RailroadGothicCC.ufo
<glyph name="exclam" format="2">
  <advance width="220"/>
  <unicode hex="0021"/>
  <outline>
    <contour>
      <point x="30" y="19" type="curve" smooth="yes"/>
      <point x="30" y="190" type="line" smooth="yes"/>
      <point x="30" y="210"/>
      <point x="32" y="213"/>
      <point x="49" y="213" type="curve" smooth="yes"/>
      <point x="170" y="213" type="line" smooth="yes"/>
      <point x="187" y="213"/>
      <point x="190" y="208"/>
      <point x="190" y="190" type="curve" smooth="yes"/>
      <point x="190" y="18" type="line" smooth="yes"/>
      <point x="190" y="2"/>
      <point x="189" y="0"/>
      <point x="173" y="0" type="curve" smooth="yes"/>
      <point x="50" y="0" type="line" smooth="yes"/>
      <point x="33" y="0"/>
      <point x="30" y="3"/>
    </contour>
    <contour>
      <point x="68" y="700" type="curve" smooth="yes"/>
      <point x="157" y="700" type="line" smooth="yes"/>
      <point x="188" y="700"/>
      <point x="185" y="697"/>
      <point x="182" y="670" type="curve" smooth="yes"/>
      <point x="138" y="262" type="line" smooth="yes"/>
      <point x="136" y="246"/>
      <point x="136" y="235"/>
      <point x="116" y="235" type="curve" smooth="yes"/>
      <point x="104" y="235" type="line" smooth="yes"/>
      <point x="88" y="235"/>
      <point x="84" y="243"/>
      <point x="83" y="256" type="curve" smooth="yes"/>
      <point x="38" y="674" type="line" smooth="yes"/>
      <point x="35" y="700"/>
      <point x="39" y="700"/>
    </contour>
  </outline>
</glyph>
<glyph name="numbersign" format="2">
  <advance width="605"/>
  <unicode hex="0023"/>
  <outline>
    <contour>
      <point x="229" y="700" type="curve" smooth="yes"/>
      <point x="287" y="700" type="line" smooth="yes"/>
      <point x="313" y="700"/>
      <point x="310" y="697"/>
      <point x="306" y="676" type="curve" smooth="yes"/>
      <point x="281" y="546" type="line" smooth="yes"/>
      <point x="277" y="527"/>
      <point x="275" y="525"/>
      <point x="299" y="525" type="curve" smooth="yes"/>
      <point x="371" y="525" type="line" smooth="yes"/>
      <point x="391" y="525"/>
      <point x="393" y="525"/>
      <point x="396" y="542" type="curve" smooth="yes"/>
      <point x="421" y="676" type="line" smooth="yes"/>
      <point x="424" y="691"/>
      <point x="425" y="700"/>
      <point x="444" y="700" type="curve" smooth="yes"/>
      <point x="495" y="700" type="line" smooth="yes"/>
      <point x="514" y="700"/>
      <point x="519" y="700"/>
      <point x="516" y="682" type="curve" smooth="yes"/>
      <point x="491" y="544" type="line" smooth="yes"/>
      <point x="489" y="532"/>
      <point x="490" y="525"/>
      <point x="506" y="525" type="curve" smooth="yes"/>
      <point x="551" y="525" type="line" smooth="yes"/>
      <point x="563" y="525"/>
      <point x="575" y="525"/>
      <point x="575" y="511" type="curve" smooth="yes"/>
      <point x="575" y="456" type="line" smooth="yes"/>
      <point x="575" y="441"/>
      <point x="571" y="440"/>
      <point x="556" y="440" type="curve" smooth="yes"/>
      <point x="491" y="440" type="line" smooth="yes"/>
      <point x="477" y="440"/>
      <point x="471" y="438"/>
      <point x="469" y="426" type="curve" smooth="yes"/>
      <point x="443" y="285" type="line" smooth="yes"/>
      <point x="440" y="268"/>
      <point x="436" y="265"/>
      <point x="458" y="265" type="curve" smooth="yes"/>
      <point x="529" y="265" type="line" smooth="yes"/>
      <point x="544" y="265"/>
      <point x="545" y="261"/>
      <point x="545" y="246" type="curve" smooth="yes"/>
      <point x="545" y="195" type="line" smooth="yes"/>
      <point x="545" y="184"/>
      <point x="541" y="180"/>
      <point x="530" y="180" type="curve" smooth="yes"/>
      <point x="441" y="180" type="line" smooth="yes"/>
      <point x="424" y="180"/>
      <point x="424" y="179"/>
      <point x="421" y="165" type="curve" smooth="yes"/>
      <point x="393" y="17" type="line" smooth="yes"/>
      <point x="391" y="5"/>
      <point x="390" y="0"/>
      <point x="375" y="0" type="curve" smooth="yes"/>
      <point x="311" y="0" type="line" smooth="yes"/>
      <point x="295" y="0"/>
      <point x="296" y="2"/>
      <point x="298" y="15" type="curve" smooth="yes"/>
      <point x="326" y="161" type="line" smooth="yes"/>
      <point x="329" y="176"/>
      <point x="328" y="180"/>
      <point x="310" y="180" type="curve" smooth="yes"/>
      <point x="236" y="180" type="line" smooth="yes"/>
      <point x="218" y="180"/>
      <point x="214" y="177"/>
      <point x="211" y="161" type="curve" smooth="yes"/>
      <point x="183" y="18" type="line" smooth="yes"/>
      <point x="181" y="7"/>
      <point x="179" y="0"/>
      <point x="165" y="0" type="curve" smooth="yes"/>
      <point x="106" y="0" type="line" smooth="yes"/>
      <point x="85" y="0"/>
      <point x="86" y="5"/>
      <point x="89" y="21" type="curve" smooth="yes"/>
      <point x="114" y="158" type="line" smooth="yes"/>
      <point x="118" y="177"/>
      <point x="122" y="180"/>
      <point x="98" y="180" type="curve" smooth="yes"/>
      <point x="49" y="180" type="line" smooth="yes"/>
      <point x="32" y="180"/>
      <point x="30" y="181"/>
      <point x="30" y="198" type="curve" smooth="yes"/>
      <point x="30" y="243" type="line" smooth="yes"/>
      <point x="30" y="262"/>
      <point x="31" y="265"/>
      <point x="50" y="265" type="curve" smooth="yes"/>
      <point x="118" y="265" type="line" smooth="yes"/>
      <point x="135" y="265"/>
      <point x="134" y="266"/>
      <point x="137" y="280" type="curve" smooth="yes"/>
      <point x="164" y="425" type="line" smooth="yes"/>
      <point x="167" y="440"/>
      <point x="166" y="440"/>
      <point x="149" y="440" type="curve" smooth="yes"/>
      <point x="82" y="440" type="line" smooth="yes"/>
      <point x="64" y="440"/>
      <point x="60" y="442"/>
      <point x="60" y="461" type="curve" smooth="yes"/>
      <point x="60" y="507" type="line" smooth="yes"/>
      <point x="60" y="523"/>
      <point x="62" y="525"/>
      <point x="77" y="525" type="curve" smooth="yes"/>
      <point x="159" y="525" type="line" smooth="yes"/>
      <point x="184" y="525"/>
      <point x="183" y="527"/>
      <point x="187" y="548" type="curve" smooth="yes"/>
      <point x="213" y="688" type="line" smooth="yes"/>
      <point x="215" y="700"/>
      <point x="215" y="700"/>
    </contour>
    <contour>
      <point x="348" y="284" type="curve" smooth="yes"/>
      <point x="374" y="423" type="line" smooth="yes"/>
      <point x="377" y="439"/>
      <point x="378" y="440"/>
      <point x="359" y="440" type="curve" smooth="yes"/>
      <point x="280" y="440" type="line" smooth="yes"/>
      <point x="260" y="440"/>
      <point x="261" y="438"/>
      <point x="258" y="422" type="curve" smooth="yes"/>
      <point x="233" y="284" type="line" smooth="yes"/>
      <point x="230" y="266"/>
      <point x="228" y="265"/>
      <point x="250" y="265" type="curve" smooth="yes"/>
      <point x="324" y="265" type="line" smooth="yes"/>
      <point x="345" y="265"/>
      <point x="345" y="267"/>
    </contour>
  </outline>
</glyph>
<glyph name="dollar" format="2">
  <advance width="508"/>
  <unicode hex="0024"/>
  <anchor x="814" y="700" name="top"/>
  <anchor x="844" y="0" name="bottom"/>
  <anchor x="844" y="0" name="cedilla"/>
  <outline>
    <contour>
      <point x="239" y="757" type="curve" smooth="yes"/>
      <point x="273" y="757" type="line" smooth="yes"/>
      <point x="286" y="757"/>
      <point x="290" y="756"/>
      <point x="290" y="742" type="curve" smooth="yes"/>
      <point x="290" y="722" type="line" smooth="yes"/>
      <point x="290" y="706"/>
      <point x="301" y="706"/>
      <point x="316" y="703" type="curve" smooth="yes"/>
      <point x="429" y="677"/>
      <point x="476" y="577"/>
      <point x="476" y="477" type="curve" smooth="yes"/>
      <point x="476" y="467"/>
      <point x="473" y="465"/>
      <point x="463" y="465" type="curve" smooth="yes"/>
      <point x="389" y="465" type="line" smooth="yes"/>
      <point x="377" y="465"/>
      <point x="372" y="465"/>
      <point x="372" y="477" type="curve" smooth="yes"/>
      <point x="371" y="537"/>
      <point x="351" y="580"/>
      <point x="313" y="600" type="curve" smooth="yes"/>
      <point x="293" y="611"/>
      <point x="290" y="601"/>
      <point x="290" y="582" type="curve" smooth="yes"/>
      <point x="290" y="416" type="line" smooth="yes"/>
      <point x="290" y="399"/>
      <point x="295" y="391"/>
      <point x="314" y="385" type="curve" smooth="yes"/>
      <point x="402" y="356"/>
      <point x="492" y="317"/>
      <point x="492" y="188" type="curve" smooth="yes"/>
      <point x="492" y="84"/>
      <point x="432" y="9"/>
      <point x="315" y="-7" type="curve" smooth="yes"/>
      <point x="294" y="-10"/>
      <point x="290" y="-6"/>
      <point x="290" y="-30" type="curve" smooth="yes"/>
      <point x="290" y="-70" type="line" smooth="yes"/>
      <point x="290" y="-82"/>
      <point x="285" y="-85"/>
      <point x="272" y="-85" type="curve" smooth="yes"/>
      <point x="236" y="-85" type="line" smooth="yes"/>
      <point x="221" y="-85"/>
      <point x="220" y="-81"/>
      <point x="220" y="-65" type="curve" smooth="yes"/>
      <point x="220" y="-23" type="line" smooth="yes"/>
      <point x="220" y="-2"/>
      <point x="210" y="-6"/>
      <point x="194" y="-3" type="curve" smooth="yes"/>
      <point x="81" y="22"/>
      <point x="40" y="110"/>
      <point x="40" y="231" type="curve" smooth="yes"/>
      <point x="40" y="246"/>
      <point x="44" y="249"/>
      <point x="60" y="249" type="curve" smooth="yes"/>
      <point x="139" y="249" type="line" smooth="yes"/>
      <point x="149" y="249"/>
      <point x="153" y="244"/>
      <point x="153" y="233" type="curve" smooth="yes"/>
      <point x="154" y="178"/>
      <point x="159" y="127"/>
      <point x="193" y="100" type="curve" smooth="yes"/>
      <point x="211" y="85"/>
      <point x="220" y="100"/>
      <point x="220" y="128" type="curve" smooth="yes"/>
      <point x="220" y="296" type="line" smooth="yes"/>
      <point x="220" y="322"/>
      <point x="216" y="321"/>
      <point x="198" y="328" type="curve" smooth="yes"/>
      <point x="124" y="359"/>
      <point x="54" y="411"/>
      <point x="54" y="519" type="curve" smooth="yes"/>
      <point x="54" y="620"/>
      <point x="106" y="680"/>
      <point x="203" y="704" type="curve" smooth="yes"/>
      <point x="215" y="707"/>
      <point x="220" y="707"/>
      <point x="220" y="723" type="curve" smooth="yes"/>
      <point x="220" y="740" type="line" smooth="yes"/>
      <point x="220" y="756"/>
      <point x="222" y="757"/>
    </contour>
    <contour>
      <point x="199" y="600" type="curve" smooth="yes"/>
      <point x="165" y="582"/>
      <point x="146" y="558"/>
      <point x="146" y="524" type="curve" smooth="yes"/>
      <point x="146" y="481"/>
      <point x="168" y="446"/>
      <point x="202" y="427" type="curve" smooth="yes"/>
      <point x="216" y="419"/>
      <point x="220" y="424"/>
      <point x="220" y="438" type="curve" smooth="yes"/>
      <point x="220" y="586" type="line" smooth="yes"/>
      <point x="220" y="602"/>
      <point x="216" y="609"/>
    </contour>
    <contour>
      <point x="319" y="91" type="curve" smooth="yes"/>
      <point x="353" y="107"/>
      <point x="374" y="140"/>
      <point x="374" y="191" type="curve" smooth="yes"/>
      <point x="374" y="234"/>
      <point x="348" y="260"/>
      <point x="312" y="280" type="curve" smooth="yes"/>
      <point x="292" y="291"/>
      <point x="290" y="294"/>
      <point x="290" y="262" type="curve" smooth="yes"/>
      <point x="290" y="110" type="line" smooth="yes"/>
      <point x="290" y="84"/>
      <point x="304" y="84"/>
    </contour>
  </outline>
</glyph>
<glyph name="percent" format="2">
  <advance width="721"/>
  <unicode hex="0025"/>
  <outline>
    <contour>
      <point x="415" y="170" type="curve" smooth="yes"/>
      <point x="415" y="284"/>
      <point x="458" y="350"/>
      <point x="543" y="350" type="curve" smooth="yes"/>
      <point x="628" y="350"/>
      <point x="671" y="284"/>
      <point x="671" y="170" type="curve" smooth="yes"/>
      <point x="671" y="56"/>
      <point x="628" y="-10"/>
      <point x="543" y="-10" type="curve" smooth="yes"/>
      <point x="458" y="-10"/>
      <point x="415" y="56"/>
    </contour>
    <contour>
      <point x="521" y="170" type="curve" smooth="yes"/>
      <point x="521" y="119"/>
      <point x="523" y="85"/>
      <point x="543" y="85" type="curve" smooth="yes"/>
      <point x="563" y="85"/>
      <point x="565" y="119"/>
      <point x="565" y="170" type="curve" smooth="yes"/>
      <point x="565" y="221"/>
      <point x="563" y="255"/>
      <point x="543" y="255" type="curve" smooth="yes"/>
      <point x="523" y="255"/>
      <point x="521" y="221"/>
    </contour>
    <contour>
      <point x="50" y="530" type="curve" smooth="yes"/>
      <point x="50" y="644"/>
      <point x="93" y="710"/>
      <point x="178" y="710" type="curve" smooth="yes"/>
      <point x="263" y="710"/>
      <point x="306" y="644"/>
      <point x="306" y="530" type="curve" smooth="yes"/>
      <point x="306" y="416"/>
      <point x="263" y="350"/>
      <point x="178" y="350" type="curve" smooth="yes"/>
      <point x="93" y="350"/>
      <point x="50" y="416"/>
    </contour>
    <contour>
      <point x="156" y="530" type="curve" smooth="yes"/>
      <point x="156" y="479"/>
      <point x="158" y="445"/>
      <point x="178" y="445" type="curve" smooth="yes"/>
      <point x="198" y="445"/>
      <point x="200" y="479"/>
      <point x="200" y="530" type="curve" smooth="yes"/>
      <point x="200" y="581"/>
      <point x="198" y="615"/>
      <point x="178" y="615" type="curve" smooth="yes"/>
      <point x="158" y="615"/>
      <point x="156" y="581"/>
    </contour>
    <contour>
      <point x="568" y="700" type="curve" smooth="yes"/>
      <point x="608" y="700" type="line" smooth="yes"/>
      <point x="634" y="700"/>
      <point x="643" y="698"/>
      <point x="643" y="691" type="curve" smooth="yes"/>
      <point x="643" y="687"/>
      <point x="641" y="681"/>
      <point x="635" y="672" type="curve" smooth="yes"/>
      <point x="212" y="29" type="line" smooth="yes"/>
      <point x="201" y="12"/>
      <point x="196" y="0"/>
      <point x="166" y="0" type="curve" smooth="yes"/>
      <point x="116" y="0" type="line" smooth="yes"/>
      <point x="95" y="0"/>
      <point x="90" y="4"/>
      <point x="90" y="11" type="curve" smooth="yes"/>
      <point x="90" y="18"/>
      <point x="97" y="29"/>
      <point x="104" y="39" type="curve" smooth="yes"/>
      <point x="522" y="675" type="line" smooth="yes"/>
      <point x="533" y="692"/>
      <point x="538" y="700"/>
    </contour>
  </outline>
</glyph>
<glyph name="ampersand" format="2">
  <advance width="707"/>
  <unicode hex="0026"/>
  <outline>
    <contour>
      <point x="166" y="564" type="curve"/>
      <point x="166" y="652"/>
      <point x="218" y="717"/>
      <point x="312" y="717" type="curve" smooth="yes"/>
      <point x="393" y="717"/>
      <point x="434" y="664"/>
      <point x="434" y="580" type="curve" smooth="yes"/>
      <point x="434" y="517"/>
      <point x="409" y="468"/>
      <point x="374" y="426" type="curve" smooth="yes"/>
      <point x="366" y="416"/>
      <point x="361" y="411"/>
      <point x="361" y="405" type="curve" smooth="yes"/>
      <point x="361" y="401"/>
      <point x="363" y="396"/>
      <point x="367" y="387" type="curve" smooth="yes"/>
      <point x="378" y="365"/>
      <point x="389" y="342"/>
      <point x="400" y="320" type="curve" smooth="yes"/>
      <point x="405" y="309"/>
      <point x="405" y="304"/>
      <point x="410" y="304" type="curve" smooth="yes"/>
      <point x="415" y="304"/>
      <point x="415" y="308"/>
      <point x="420" y="320" type="curve" smooth="yes"/>
      <point x="445" y="380"/>
      <point x="462" y="441"/>
      <point x="467" y="483" type="curve" smooth="yes"/>
      <point x="469" y="498"/>
      <point x="470" y="501"/>
      <point x="487" y="501" type="curve" smooth="yes"/>
      <point x="548" y="501" type="line" smooth="yes"/>
      <point x="565" y="501"/>
      <point x="568" y="497"/>
      <point x="568" y="485" type="curve" smooth="yes"/>
      <point x="568" y="414"/>
      <point x="533" y="298"/>
      <point x="482" y="196" type="curve" smooth="yes"/>
      <point x="479" y="190"/>
      <point x="477" y="187"/>
      <point x="477" y="183" type="curve" smooth="yes"/>
      <point x="477" y="177"/>
      <point x="481" y="173"/>
      <point x="488" y="165" type="curve" smooth="yes"/>
      <point x="507" y="143"/>
      <point x="526" y="130"/>
      <point x="547" y="130" type="curve" smooth="yes"/>
      <point x="575" y="130"/>
      <point x="586" y="151"/>
      <point x="587" y="226" type="curve" smooth="yes"/>
      <point x="587" y="228"/>
      <point x="587" y="229"/>
      <point x="587" y="230" type="curve" smooth="yes"/>
      <point x="587" y="231"/>
      <point x="587" y="232"/>
      <point x="587" y="232" type="curve" smooth="yes"/>
      <point x="587" y="243"/>
      <point x="587" y="245"/>
      <point x="602" y="245" type="curve" smooth="yes"/>
      <point x="658" y="245" type="line" smooth="yes"/>
      <point x="675" y="245"/>
      <point x="677" y="245"/>
      <point x="677" y="231" type="curve" smooth="yes"/>
      <point x="677" y="230"/>
      <point x="677" y="228"/>
      <point x="677" y="226" type="curve" smooth="yes"/>
      <point x="675" y="69"/>
      <point x="648" y="-10"/>
      <point x="542" y="-10" type="curve" smooth="yes"/>
      <point x="497" y="-10"/>
      <point x="457" y="15"/>
      <point x="418" y="57" type="curve" smooth="yes"/>
      <point x="410" y="66"/>
      <point x="407" y="69"/>
      <point x="403" y="69" type="curve" smooth="yes"/>
      <point x="399" y="69"/>
      <point x="395" y="65"/>
      <point x="386" y="56" type="curve" smooth="yes"/>
      <point x="344" y="14"/>
      <point x="296" y="-13"/>
      <point x="243" y="-13" type="curve"/>
      <point x="139" y="-13"/>
      <point x="40" y="32"/>
      <point x="40" y="157" type="curve" smooth="yes"/>
      <point x="40" y="285"/>
      <point x="118" y="337"/>
      <point x="196" y="385" type="curve" smooth="yes"/>
      <point x="207" y="392"/>
      <point x="210" y="396"/>
      <point x="210" y="401" type="curve" smooth="yes"/>
      <point x="210" y="406"/>
      <point x="209" y="411"/>
      <point x="204" y="422" type="curve" smooth="yes"/>
      <point x="182" y="472"/>
      <point x="166" y="520"/>
    </contour>
    <contour>
      <point x="337" y="506" type="curve" smooth="yes"/>
      <point x="349" y="529"/>
      <point x="356" y="556"/>
      <point x="356" y="589" type="curve"/>
      <point x="356" y="621"/>
      <point x="346" y="640"/>
      <point x="326" y="640" type="curve" smooth="yes"/>
      <point x="300" y="640"/>
      <point x="293" y="621"/>
      <point x="293" y="589" type="curve" smooth="yes"/>
      <point x="293" y="564"/>
      <point x="301" y="536"/>
      <point x="312" y="506" type="curve" smooth="yes"/>
      <point x="317" y="493"/>
      <point x="318" y="487"/>
      <point x="323" y="487" type="curve" smooth="yes"/>
      <point x="329" y="487"/>
      <point x="331" y="494"/>
    </contour>
    <contour>
      <point x="325" y="190" type="curve" smooth="yes"/>
      <point x="307" y="221"/>
      <point x="289" y="254"/>
      <point x="271" y="288" type="curve" smooth="yes"/>
      <point x="264" y="301"/>
      <point x="260" y="307"/>
      <point x="255" y="307" type="curve" smooth="yes"/>
      <point x="252" y="307"/>
      <point x="249" y="306"/>
      <point x="242" y="299" type="curve" smooth="yes"/>
      <point x="211" y="268"/>
      <point x="189" y="237"/>
      <point x="189" y="201" type="curve" smooth="yes"/>
      <point x="189" y="153"/>
      <point x="206" y="125"/>
      <point x="254" y="125" type="curve" smooth="yes"/>
      <point x="277" y="125"/>
      <point x="300" y="138"/>
      <point x="322" y="160" type="curve" smooth="yes"/>
      <point x="329" y="167"/>
      <point x="331" y="170"/>
      <point x="331" y="174" type="curve" smooth="yes"/>
      <point x="331" y="178"/>
      <point x="329" y="183"/>
    </contour>
  </outline>
</glyph>
<glyph name="quotesingle" format="2">
  <advance width="195"/>
  <unicode hex="0027"/>
  <outline>
    <contour>
      <point x="57" y="700" type="curve" smooth="yes"/>
      <point x="140" y="700" type="line" smooth="yes"/>
      <point x="169" y="700"/>
      <point x="175" y="703"/>
      <point x="173" y="675" type="curve" smooth="yes"/>
      <point x="158" y="463" type="line" smooth="yes"/>
      <point x="156" y="433"/>
      <point x="156" y="430"/>
      <point x="122" y="430" type="curve" smooth="yes"/>
      <point x="68" y="430" type="line" smooth="yes"/>
      <point x="42" y="430"/>
      <point x="40" y="434"/>
      <point x="38" y="458" type="curve" smooth="yes"/>
      <point x="23" y="666" type="line" smooth="yes"/>
      <point x="20" y="699"/>
      <point x="21" y="700"/>
    </contour>
  </outline>
</glyph>
<glyph name="parenleft" format="2">
  <advance width="261"/>
  <unicode hex="0028"/>
  <outline>
    <contour>
      <point x="185" y="730" type="curve" smooth="yes"/>
      <point x="229" y="730" type="line" smooth="yes"/>
      <point x="274" y="730"/>
      <point x="260" y="725"/>
      <point x="246" y="699" type="curve" smooth="yes"/>
      <point x="196" y="609"/>
      <point x="160" y="479"/>
      <point x="160" y="345" type="curve" smooth="yes"/>
      <point x="160" y="212"/>
      <point x="196" y="98"/>
      <point x="246" y="-3" type="curve" smooth="yes"/>
      <point x="258" y="-26"/>
      <point x="278" y="-40"/>
      <point x="235" y="-40" type="curve" smooth="yes"/>
      <point x="182" y="-40" type="line" smooth="yes"/>
      <point x="150" y="-40"/>
      <point x="148" y="-32"/>
      <point x="134" y="-15" type="curve" smooth="yes"/>
      <point x="66" y="70"/>
      <point x="20" y="172"/>
      <point x="20" y="345" type="curve" smooth="yes"/>
      <point x="20" y="517"/>
      <point x="65" y="636"/>
      <point x="133" y="709" type="curve" smooth="yes"/>
      <point x="148" y="725"/>
      <point x="153" y="730"/>
    </contour>
  </outline>
</glyph>
<glyph name="parenright" format="2">
  <advance width="261"/>
  <unicode hex="0029"/>
  <outline>
    <contour>
      <point x="76" y="-40" type="curve" smooth="yes"/>
      <point x="32" y="-40" type="line" smooth="yes"/>
      <point x="-13" y="-40"/>
      <point x="1" y="-35"/>
      <point x="15" y="-9" type="curve" smooth="yes"/>
      <point x="65" y="81"/>
      <point x="101" y="211"/>
      <point x="101" y="345" type="curve" smooth="yes"/>
      <point x="101" y="478"/>
      <point x="65" y="592"/>
      <point x="15" y="693" type="curve" smooth="yes"/>
      <point x="3" y="716"/>
      <point x="-17" y="730"/>
      <point x="26" y="730" type="curve" smooth="yes"/>
      <point x="79" y="730" type="line" smooth="yes"/>
      <point x="111" y="730"/>
      <point x="113" y="722"/>
      <point x="127" y="705" type="curve" smooth="yes"/>
      <point x="195" y="620"/>
      <point x="241" y="518"/>
      <point x="241" y="345" type="curve" smooth="yes"/>
      <point x="241" y="173"/>
      <point x="196" y="54"/>
      <point x="128" y="-19" type="curve" smooth="yes"/>
      <point x="113" y="-35"/>
      <point x="108" y="-40"/>
    </contour>
  </outline>
</glyph>
<glyph name="asterisk" format="2">
  <advance width="483"/>
  <unicode hex="002A"/>
  <outline>
    <contour>
      <point x="202" y="700" type="curve" smooth="yes"/>
      <point x="276" y="700" type="line" smooth="yes"/>
      <point x="301" y="700"/>
      <point x="299" y="698"/>
      <point x="301" y="676" type="curve" smooth="yes"/>
      <point x="307" y="616" type="line" smooth="yes"/>
      <point x="310" y="587"/>
      <point x="307" y="582"/>
      <point x="334" y="588" type="curve" smooth="yes"/>
      <point x="396" y="602" type="line" smooth="yes"/>
      <point x="417" y="607"/>
      <point x="423" y="613"/>
      <point x="430" y="592" type="curve" smooth="yes"/>
      <point x="452" y="524" type="line" smooth="yes"/>
      <point x="461" y="496"/>
      <point x="463" y="494"/>
      <point x="436" y="483" type="curve" smooth="yes"/>
      <point x="378" y="458" type="line" smooth="yes"/>
      <point x="354" y="448"/>
      <point x="353" y="449"/>
      <point x="366" y="427" type="curve" smooth="yes"/>
      <point x="402" y="367" type="line" smooth="yes"/>
      <point x="414" y="346"/>
      <point x="413" y="346"/>
      <point x="394" y="332" type="curve" smooth="yes"/>
      <point x="334" y="288" type="line" smooth="yes"/>
      <point x="317" y="275"/>
      <point x="317" y="276"/>
      <point x="303" y="292" type="curve" smooth="yes"/>
      <point x="257" y="344" type="line" smooth="yes"/>
      <point x="239" y="364"/>
      <point x="239" y="365"/>
      <point x="221" y="344" type="curve" smooth="yes"/>
      <point x="175" y="292" type="line" smooth="yes"/>
      <point x="162" y="277"/>
      <point x="162" y="275"/>
      <point x="146" y="287" type="curve" smooth="yes"/>
      <point x="82" y="333" type="line" smooth="yes"/>
      <point x="65" y="345"/>
      <point x="64" y="346"/>
      <point x="75" y="364" type="curve" smooth="yes"/>
      <point x="112" y="427" type="line" smooth="yes"/>
      <point x="123" y="446"/>
      <point x="126" y="446"/>
      <point x="104" y="456" type="curve" smooth="yes"/>
      <point x="36" y="486" type="line" smooth="yes"/>
      <point x="18" y="494"/>
      <point x="15" y="493"/>
      <point x="22" y="513" type="curve" smooth="yes"/>
      <point x="47" y="591" type="line" smooth="yes"/>
      <point x="53" y="609"/>
      <point x="55" y="608"/>
      <point x="74" y="604" type="curve" smooth="yes"/>
      <point x="140" y="589" type="line" smooth="yes"/>
      <point x="168" y="583"/>
      <point x="168" y="582"/>
      <point x="171" y="614" type="curve" smooth="yes"/>
      <point x="178" y="685" type="line" smooth="yes"/>
      <point x="180" y="703"/>
      <point x="184" y="700"/>
    </contour>
  </outline>
</glyph>
<glyph name="plus" format="2">
  <advance width="675"/>
  <unicode hex="002B"/>
  <outline>
    <contour>
      <point x="277" y="545" type="curve" smooth="yes"/>
      <point x="388" y="545" type="line" smooth="yes"/>
      <point x="412" y="545"/>
      <point x="420" y="541"/>
      <point x="420" y="516" type="curve" smooth="yes"/>
      <point x="420" y="415" type="line" smooth="yes"/>
      <point x="420" y="390"/>
      <point x="421" y="385"/>
      <point x="446" y="385" type="curve" smooth="yes"/>
      <point x="575" y="385" type="line" smooth="yes"/>
      <point x="599" y="385"/>
      <point x="600" y="381"/>
      <point x="600" y="357" type="curve" smooth="yes"/>
      <point x="600" y="250" type="line" smooth="yes"/>
      <point x="600" y="225"/>
      <point x="600" y="225"/>
      <point x="575" y="225" type="curve" smooth="yes"/>
      <point x="445" y="225" type="line" smooth="yes"/>
      <point x="421" y="225"/>
      <point x="420" y="221"/>
      <point x="420" y="197" type="curve" smooth="yes"/>
      <point x="420" y="93" type="line" smooth="yes"/>
      <point x="420" y="66"/>
      <point x="417" y="65"/>
      <point x="390" y="65" type="curve" smooth="yes"/>
      <point x="283" y="65" type="line" smooth="yes"/>
      <point x="254" y="65"/>
      <point x="250" y="66"/>
      <point x="250" y="95" type="curve" smooth="yes"/>
      <point x="250" y="198" type="line" smooth="yes"/>
      <point x="250" y="223"/>
      <point x="246" y="225"/>
      <point x="222" y="225" type="curve" smooth="yes"/>
      <point x="93" y="225" type="line" smooth="yes"/>
      <point x="71" y="225"/>
      <point x="70" y="227"/>
      <point x="70" y="250" type="curve" smooth="yes"/>
      <point x="70" y="363" type="line" smooth="yes"/>
      <point x="70" y="384"/>
      <point x="74" y="385"/>
      <point x="96" y="385" type="curve" smooth="yes"/>
      <point x="220" y="385" type="line" smooth="yes"/>
      <point x="249" y="385"/>
      <point x="250" y="392"/>
      <point x="250" y="419" type="curve" smooth="yes"/>
      <point x="250" y="518" type="line" smooth="yes"/>
      <point x="250" y="542"/>
      <point x="252" y="545"/>
    </contour>
  </outline>
</glyph>
<glyph name="comma" format="2">
  <advance width="310"/>
  <unicode hex="002C"/>
  <outline>
    <contour>
      <point x="75" y="19" type="curve" smooth="yes"/>
      <point x="75" y="190" type="line" smooth="yes"/>
      <point x="75" y="210"/>
      <point x="77" y="213"/>
      <point x="94" y="213" type="curve" smooth="yes"/>
      <point x="215" y="213" type="line" smooth="yes"/>
      <point x="232" y="213"/>
      <point x="235" y="208"/>
      <point x="235" y="190" type="curve" smooth="yes"/>
      <point x="235" y="0" type="line"/>
      <point x="235" y="-129"/>
      <point x="156" y="-178"/>
      <point x="112" y="-178" type="curve" smooth="yes"/>
      <point x="94" y="-178"/>
      <point x="85" y="-173"/>
      <point x="85" y="-161" type="curve" smooth="yes"/>
      <point x="85" y="-148"/>
      <point x="91" y="-134"/>
      <point x="108" y="-123" type="curve" smooth="yes"/>
      <point x="134" y="-106"/>
      <point x="174" y="-59"/>
      <point x="174" y="-17" type="curve" smooth="yes"/>
      <point x="174" y="-4"/>
      <point x="172" y="0"/>
      <point x="156" y="0" type="curve" smooth="yes"/>
      <point x="95" y="0" type="line" smooth="yes"/>
      <point x="78" y="0"/>
      <point x="75" y="3"/>
    </contour>
  </outline>
</glyph>
<glyph name="period" format="2">
  <advance width="310"/>
  <unicode hex="002E"/>
  <outline>
    <contour>
      <point x="75" y="19" type="curve" smooth="yes"/>
      <point x="75" y="190" type="line" smooth="yes"/>
      <point x="75" y="210"/>
      <point x="77" y="213"/>
      <point x="94" y="213" type="curve" smooth="yes"/>
      <point x="215" y="213" type="line" smooth="yes"/>
      <point x="232" y="213"/>
      <point x="235" y="208"/>
      <point x="235" y="190" type="curve" smooth="yes"/>
      <point x="235" y="18" type="line" smooth="yes"/>
      <point x="235" y="2"/>
      <point x="234" y="0"/>
      <point x="218" y="0" type="curve" smooth="yes"/>
      <point x="95" y="0" type="line" smooth="yes"/>
      <point x="78" y="0"/>
      <point x="75" y="3"/>
    </contour>
  </outline>
</glyph>
<glyph name="slash" format="2">
  <advance width="495"/>
  <unicode hex="002F"/>
  <outline>
    <contour>
      <point x="435" y="700" type="line" smooth="yes"/>
      <point x="468" y="700"/>
      <point x="475" y="699"/>
      <point x="465" y="677" type="curve" smooth="yes"/>
      <point x="172" y="27" type="line" smooth="yes"/>
      <point x="161" y="2"/>
      <point x="159" y="0"/>
      <point x="123" y="0" type="curve" smooth="yes"/>
      <point x="57" y="0" type="line" smooth="yes"/>
      <point x="22" y="0"/>
      <point x="22" y="3"/>
      <point x="32" y="26" type="curve" smooth="yes"/>
      <point x="320" y="666" type="line" smooth="yes"/>
      <point x="333" y="696"/>
      <point x="334" y="700"/>
      <point x="378" y="700" type="curve" smooth="yes"/>
    </contour>
  </outline>
</glyph>
<glyph name="zero" format="2">
  <advance width="500"/>
  <unicode hex="0030"/>
  <outline>
    <contour>
      <point x="252" y="600" type="curve" smooth="yes"/>
      <point x="223" y="600"/>
      <point x="207" y="586"/>
      <point x="196" y="563" type="curve" smooth="yes"/>
      <point x="183" y="536"/>
      <point x="180" y="419"/>
      <point x="180" y="354" type="curve" smooth="yes"/>
      <point x="180" y="287"/>
      <point x="180" y="172"/>
      <point x="192" y="139" type="curve" smooth="yes"/>
      <point x="199" y="118"/>
      <point x="217" y="100"/>
      <point x="248" y="100" type="curve" smooth="yes"/>
      <point x="277" y="100"/>
      <point x="291" y="107"/>
      <point x="302" y="132" type="curve" smooth="yes"/>
      <point x="310" y="151"/>
      <point x="316" y="281"/>
      <point x="316" y="346" type="curve" smooth="yes"/>
      <point x="316" y="413"/>
      <point x="315" y="532"/>
      <point x="304" y="561" type="curve" smooth="yes"/>
      <point x="296" y="582"/>
      <point x="283" y="600"/>
    </contour>
    <contour>
      <point x="246" y="-10" type="curve" smooth="yes"/>
      <point x="170" y="-10"/>
      <point x="137" y="11"/>
      <point x="104" y="47" type="curve" smooth="yes"/>
      <point x="55" y="100"/>
      <point x="54" y="236"/>
      <point x="54" y="357" type="curve" smooth="yes"/>
      <point x="54" y="474"/>
      <point x="53" y="580"/>
      <point x="110" y="647" type="curve" smooth="yes"/>
      <point x="138" y="679"/>
      <point x="182" y="710"/>
      <point x="254" y="710" type="curve" smooth="yes"/>
      <point x="330" y="710"/>
      <point x="363" y="689"/>
      <point x="396" y="653" type="curve" smooth="yes"/>
      <point x="445" y="600"/>
      <point x="446" y="464"/>
      <point x="446" y="343" type="curve" smooth="yes"/>
      <point x="446" y="226"/>
      <point x="447" y="114"/>
      <point x="390" y="47" type="curve" smooth="yes"/>
      <point x="362" y="15"/>
      <point x="318" y="-10"/>
    </contour>
  </outline>
</glyph>
<glyph name="one" format="2">
  <advance width="500"/>
  <unicode hex="0031"/>
  <outline>
    <contour>
      <point x="124" y="555" type="curve" smooth="yes"/>
      <point x="124" y="620" type="line" smooth="yes"/>
      <point x="124" y="628"/>
      <point x="131" y="632"/>
      <point x="137" y="633" type="curve" smooth="yes"/>
      <point x="186" y="641"/>
      <point x="235" y="649"/>
      <point x="249" y="692" type="curve"/>
      <point x="253" y="698"/>
      <point x="254" y="700"/>
      <point x="265" y="700" type="curve" smooth="yes"/>
      <point x="319" y="700" type="line" smooth="yes"/>
      <point x="335" y="700"/>
      <point x="336" y="696"/>
      <point x="336" y="681" type="curve" smooth="yes"/>
      <point x="336" y="20" type="line" smooth="yes"/>
      <point x="336" y="5"/>
      <point x="336" y="0"/>
      <point x="321" y="0" type="curve" smooth="yes"/>
      <point x="223" y="0" type="line" smooth="yes"/>
      <point x="208" y="0"/>
      <point x="207" y="1"/>
      <point x="207" y="17" type="curve" smooth="yes"/>
      <point x="207" y="528" type="line" smooth="yes"/>
      <point x="207" y="541"/>
      <point x="206" y="545"/>
      <point x="193" y="545" type="curve" smooth="yes"/>
      <point x="136" y="545" type="line" smooth="yes"/>
      <point x="128" y="545"/>
      <point x="124" y="547"/>
    </contour>
  </outline>
</glyph>
<glyph name="two" format="2">
  <advance width="500"/>
  <unicode hex="0032"/>
  <outline>
    <contour>
      <point x="184" y="120" type="curve" smooth="yes"/>
      <point x="438" y="120" type="line" smooth="yes"/>
      <point x="451" y="120"/>
      <point x="454" y="117"/>
      <point x="454" y="103" type="curve" smooth="yes"/>
      <point x="454" y="16" type="line" smooth="yes"/>
      <point x="454" y="3"/>
      <point x="451" y="0"/>
      <point x="438" y="0" type="curve" smooth="yes"/>
      <point x="64" y="0" type="line" smooth="yes"/>
      <point x="52" y="0"/>
      <point x="46" y="0"/>
      <point x="46" y="13" type="curve" smooth="yes"/>
      <point x="48" y="108" type="line" smooth="yes"/>
      <point x="48" y="124"/>
      <point x="53" y="127"/>
      <point x="60" y="135" type="curve" smooth="yes"/>
      <point x="169" y="270"/>
      <point x="320" y="369"/>
      <point x="320" y="525" type="curve" smooth="yes"/>
      <point x="320" y="586"/>
      <point x="291" y="614"/>
      <point x="244" y="614" type="curve" smooth="yes"/>
      <point x="182" y="614"/>
      <point x="178" y="540"/>
      <point x="176" y="470" type="curve" smooth="yes"/>
      <point x="176" y="458"/>
      <point x="176" y="446"/>
      <point x="162" y="446" type="curve" smooth="yes"/>
      <point x="76" y="446" type="line" smooth="yes"/>
      <point x="56" y="446"/>
      <point x="56" y="446"/>
      <point x="56" y="466" type="curve" smooth="yes"/>
      <point x="57" y="605"/>
      <point x="104" y="711"/>
      <point x="252" y="711" type="curve" smooth="yes"/>
      <point x="389" y="711"/>
      <point x="454" y="632"/>
      <point x="454" y="518" type="curve" smooth="yes"/>
      <point x="454" y="342"/>
      <point x="289" y="243"/>
      <point x="182" y="136" type="curve" smooth="yes"/>
      <point x="167" y="121"/>
      <point x="174" y="120"/>
    </contour>
  </outline>
</glyph>
<glyph name="three" format="2">
  <advance width="500"/>
  <unicode hex="0033"/>
  <outline>
    <contour>
      <point x="250" y="-10" type="curve" smooth="yes"/>
      <point x="101" y="-10"/>
      <point x="48" y="68"/>
      <point x="48" y="234" type="curve" smooth="yes"/>
      <point x="48" y="249"/>
      <point x="48" y="254"/>
      <point x="64" y="254" type="curve" smooth="yes"/>
      <point x="154" y="254" type="line" smooth="yes"/>
      <point x="169" y="254"/>
      <point x="168" y="247"/>
      <point x="168" y="234" type="curve" smooth="yes"/>
      <point x="170" y="146"/>
      <point x="185" y="90"/>
      <point x="250" y="90" type="curve" smooth="yes"/>
      <point x="310" y="90"/>
      <point x="322" y="139"/>
      <point x="322" y="215" type="curve" smooth="yes"/>
      <point x="322" y="296"/>
      <point x="287" y="332"/>
      <point x="174" y="332" type="curve" smooth="yes"/>
      <point x="152" y="332"/>
      <point x="150" y="334"/>
      <point x="150" y="357" type="curve" smooth="yes"/>
      <point x="150" y="401" type="line" smooth="yes"/>
      <point x="150" y="420"/>
      <point x="162" y="420"/>
      <point x="178" y="420" type="curve" smooth="yes"/>
      <point x="285" y="420"/>
      <point x="316" y="442"/>
      <point x="316" y="520" type="curve" smooth="yes"/>
      <point x="316" y="587"/>
      <point x="294" y="610"/>
      <point x="250" y="610" type="curve" smooth="yes"/>
      <point x="204" y="610"/>
      <point x="185" y="574"/>
      <point x="182" y="500" type="curve" smooth="yes"/>
      <point x="181" y="483"/>
      <point x="185" y="476"/>
      <point x="166" y="476" type="curve" smooth="yes"/>
      <point x="80" y="476" type="line" smooth="yes"/>
      <point x="62" y="476"/>
      <point x="60" y="480"/>
      <point x="60" y="496" type="curve" smooth="yes"/>
      <point x="60" y="625"/>
      <point x="110" y="710"/>
      <point x="248" y="710" type="curve" smooth="yes"/>
      <point x="398" y="710"/>
      <point x="446" y="626"/>
      <point x="446" y="524" type="curve" smooth="yes"/>
      <point x="446" y="447"/>
      <point x="408" y="410"/>
      <point x="350" y="378" type="curve" smooth="yes"/>
      <point x="338" y="371"/>
      <point x="331" y="371"/>
      <point x="331" y="367" type="curve" smooth="yes"/>
      <point x="331" y="362"/>
      <point x="340" y="362"/>
      <point x="352" y="357" type="curve" smooth="yes"/>
      <point x="422" y="331"/>
      <point x="452" y="284"/>
      <point x="452" y="196" type="curve" smooth="yes"/>
      <point x="452" y="59"/>
      <point x="405" y="-10"/>
    </contour>
  </outline>
</glyph>
<glyph name="four" format="2">
  <advance width="500"/>
  <unicode hex="0034"/>
  <outline>
    <contour>
      <point x="14" y="182" type="curve" smooth="yes"/>
      <point x="14" y="253" type="line" smooth="yes"/>
      <point x="14" y="273"/>
      <point x="19" y="278"/>
      <point x="26" y="290" type="curve" smooth="yes"/>
      <point x="264" y="679" type="line" smooth="yes"/>
      <point x="273" y="693"/>
      <point x="277" y="700"/>
      <point x="302" y="700" type="curve" smooth="yes"/>
      <point x="364" y="700" type="line" smooth="yes"/>
      <point x="391" y="700"/>
      <point x="392" y="697"/>
      <point x="392" y="671" type="curve" smooth="yes"/>
      <point x="392" y="288" type="line" smooth="yes"/>
      <point x="392" y="267"/>
      <point x="391" y="260"/>
      <point x="414" y="260" type="curve" smooth="yes"/>
      <point x="463" y="260" type="line" smooth="yes"/>
      <point x="480" y="260"/>
      <point x="485" y="259"/>
      <point x="485" y="241" type="curve" smooth="yes"/>
      <point x="485" y="183" type="line" smooth="yes"/>
      <point x="485" y="161"/>
      <point x="484" y="160"/>
      <point x="461" y="160" type="curve" smooth="yes"/>
      <point x="418" y="160" type="line" smooth="yes"/>
      <point x="391" y="160"/>
      <point x="392" y="157"/>
      <point x="392" y="131" type="curve" smooth="yes"/>
      <point x="392" y="25" type="line" smooth="yes"/>
      <point x="392" y="5"/>
      <point x="392" y="0"/>
      <point x="370" y="0" type="curve" smooth="yes"/>
      <point x="298" y="0" type="line" smooth="yes"/>
      <point x="274" y="0"/>
      <point x="272" y="0"/>
      <point x="272" y="25" type="curve" smooth="yes"/>
      <point x="272" y="140" type="line" smooth="yes"/>
      <point x="272" y="160"/>
      <point x="270" y="160"/>
      <point x="250" y="160" type="curve" smooth="yes"/>
      <point x="36" y="160" type="line" smooth="yes"/>
      <point x="15" y="160"/>
      <point x="14" y="161"/>
    </contour>
    <contour>
      <point x="272" y="288" type="curve" smooth="yes"/>
      <point x="272" y="497" type="line" smooth="yes"/>
      <point x="272" y="514"/>
      <point x="271" y="526"/>
      <point x="266" y="526" type="curve" smooth="yes"/>
      <point x="262" y="526"/>
      <point x="258" y="515"/>
      <point x="248" y="499" type="curve" smooth="yes"/>
      <point x="118" y="281" type="line" smooth="yes"/>
      <point x="114" y="274"/>
      <point x="112" y="269"/>
      <point x="112" y="266" type="curve" smooth="yes"/>
      <point x="112" y="260"/>
      <point x="121" y="260"/>
      <point x="144" y="260" type="curve" smooth="yes"/>
      <point x="246" y="260" type="line" smooth="yes"/>
      <point x="270" y="260"/>
      <point x="272" y="265"/>
    </contour>
  </outline>
</glyph>
<glyph name="five" format="2">
  <advance width="500"/>
  <unicode hex="0035"/>
  <outline>
    <contour>
      <point x="452" y="260" type="curve" smooth="yes"/>
      <point x="452" y="51"/>
      <point x="383" y="-10"/>
      <point x="248" y="-10" type="curve" smooth="yes"/>
      <point x="113" y="-10"/>
      <point x="48" y="59"/>
      <point x="48" y="200" type="curve" smooth="yes"/>
      <point x="48" y="213"/>
      <point x="49" y="213"/>
      <point x="62" y="213" type="curve" smooth="yes"/>
      <point x="146" y="213" type="line" smooth="yes"/>
      <point x="157" y="213"/>
      <point x="158" y="211"/>
      <point x="158" y="201" type="curve" smooth="yes"/>
      <point x="158" y="137"/>
      <point x="185" y="90"/>
      <point x="248" y="90" type="curve" smooth="yes"/>
      <point x="298" y="90"/>
      <point x="330" y="127"/>
      <point x="330" y="260" type="curve" smooth="yes"/>
      <point x="330" y="356"/>
      <point x="312" y="406"/>
      <point x="262" y="406" type="curve" smooth="yes"/>
      <point x="213" y="406"/>
      <point x="181" y="364"/>
      <point x="172" y="316" type="curve" smooth="yes"/>
      <point x="170" y="305"/>
      <point x="165" y="303"/>
      <point x="152" y="303" type="curve" smooth="yes"/>
      <point x="74" y="303" type="line" smooth="yes"/>
      <point x="61" y="303"/>
      <point x="56" y="304"/>
      <point x="56" y="312" type="curve" smooth="yes"/>
      <point x="56" y="314"/>
      <point x="58" y="322"/>
      <point x="58" y="324" type="curve" smooth="yes"/>
      <point x="76" y="686" type="line" smooth="yes"/>
      <point x="77" y="700"/>
      <point x="76" y="700"/>
      <point x="90" y="700" type="curve" smooth="yes"/>
      <point x="422" y="700" type="line" smooth="yes"/>
      <point x="437" y="700"/>
      <point x="436" y="699"/>
      <point x="436" y="684" type="curve" smooth="yes"/>
      <point x="436" y="609" type="line" smooth="yes"/>
      <point x="436" y="591"/>
      <point x="437" y="590"/>
      <point x="418" y="590" type="curve" smooth="yes"/>
      <point x="196" y="590" type="line" smooth="yes"/>
      <point x="174" y="590"/>
      <point x="173" y="589"/>
      <point x="172" y="570" type="curve" smooth="yes"/>
      <point x="162" y="431" type="line" smooth="yes"/>
      <point x="161" y="424"/>
      <point x="160" y="418"/>
      <point x="160" y="414" type="curve" smooth="yes"/>
      <point x="160" y="408"/>
      <point x="161" y="405"/>
      <point x="164" y="405" type="curve" smooth="yes"/>
      <point x="168" y="405"/>
      <point x="168" y="410"/>
      <point x="174" y="420" type="curve" smooth="yes"/>
      <point x="200" y="465"/>
      <point x="245" y="496"/>
      <point x="298" y="496" type="curve" smooth="yes"/>
      <point x="398" y="496"/>
      <point x="452" y="419"/>
    </contour>
  </outline>
</glyph>
<glyph name="six" format="2">
  <advance width="500"/>
  <unicode hex="0036"/>
  <outline>
    <contour>
      <point x="246" y="100" type="curve" smooth="yes"/>
      <point x="287" y="100"/>
      <point x="318" y="127"/>
      <point x="318" y="248" type="curve" smooth="yes"/>
      <point x="318" y="319"/>
      <point x="312" y="380"/>
      <point x="250" y="380" type="curve" smooth="yes"/>
      <point x="203" y="380"/>
      <point x="176" y="325"/>
      <point x="176" y="229" type="curve" smooth="yes"/>
      <point x="176" y="202"/>
      <point x="176" y="169"/>
      <point x="188" y="136" type="curve" smooth="yes"/>
      <point x="195" y="115"/>
      <point x="215" y="100"/>
    </contour>
    <contour>
      <point x="260" y="600" type="curve" smooth="yes"/>
      <point x="221" y="600"/>
      <point x="202" y="578"/>
      <point x="192" y="564" type="curve" smooth="yes"/>
      <point x="171" y="534"/>
      <point x="164" y="494"/>
      <point x="164" y="421" type="curve" smooth="yes"/>
      <point x="164" y="385"/>
      <point x="168" y="394"/>
      <point x="184" y="414" type="curve" smooth="yes"/>
      <point x="216" y="454"/>
      <point x="258" y="470"/>
      <point x="290" y="470" type="curve" smooth="yes"/>
      <point x="336" y="470"/>
      <point x="363" y="454"/>
      <point x="390" y="430" type="curve" smooth="yes"/>
      <point x="425" y="398"/>
      <point x="444" y="354"/>
      <point x="444" y="263" type="curve" smooth="yes"/>
      <point x="444" y="156"/>
      <point x="426" y="85"/>
      <point x="392" y="51" type="curve" smooth="yes"/>
      <point x="362" y="21"/>
      <point x="316" y="-10"/>
      <point x="244" y="-10" type="curve" smooth="yes"/>
      <point x="168" y="-10"/>
      <point x="135" y="11"/>
      <point x="102" y="47" type="curve" smooth="yes"/>
      <point x="53" y="100"/>
      <point x="52" y="236"/>
      <point x="52" y="357" type="curve" smooth="yes"/>
      <point x="52" y="474"/>
      <point x="57" y="584"/>
      <point x="106" y="641" type="curve" smooth="yes"/>
      <point x="134" y="673"/>
      <point x="184" y="710"/>
      <point x="256" y="710" type="curve" smooth="yes"/>
      <point x="306" y="710"/>
      <point x="348" y="697"/>
      <point x="378" y="673" type="curve" smooth="yes"/>
      <point x="420" y="639"/>
      <point x="448" y="592"/>
      <point x="448" y="535" type="curve" smooth="yes"/>
      <point x="448" y="510"/>
      <point x="447" y="506"/>
      <point x="426" y="506" type="curve" smooth="yes"/>
      <point x="356" y="506" type="line" smooth="yes"/>
      <point x="345" y="506"/>
      <point x="334" y="511"/>
      <point x="334" y="520" type="curve" smooth="yes"/>
      <point x="334" y="530" type="line" smooth="yes"/>
      <point x="334" y="550"/>
      <point x="329" y="565"/>
      <point x="312" y="582" type="curve" smooth="yes"/>
      <point x="300" y="594"/>
      <point x="278" y="600"/>
    </contour>
  </outline>
</glyph>
<glyph name="seven" format="2">
  <advance width="500"/>
  <unicode hex="0037"/>
  <outline>
    <contour>
      <point x="62" y="607" type="curve" smooth="yes"/>
      <point x="62" y="683" type="line" smooth="yes"/>
      <point x="62" y="698"/>
      <point x="64" y="700"/>
      <point x="82" y="700" type="curve" smooth="yes"/>
      <point x="420" y="700" type="line" smooth="yes"/>
      <point x="437" y="700"/>
      <point x="438" y="698"/>
      <point x="438" y="684" type="curve" smooth="yes"/>
      <point x="438" y="632" type="line" smooth="yes"/>
      <point x="438" y="617"/>
      <point x="433" y="612"/>
      <point x="428" y="602" type="curve" smooth="yes"/>
      <point x="337" y="424"/>
      <point x="289" y="253"/>
      <point x="286" y="22" type="curve" smooth="yes"/>
      <point x="286" y="3"/>
      <point x="278" y="0"/>
      <point x="258" y="0" type="curve" smooth="yes"/>
      <point x="172" y="0" type="line" smooth="yes"/>
      <point x="155" y="0"/>
      <point x="154" y="0"/>
      <point x="154" y="17" type="curve" smooth="yes"/>
      <point x="154" y="249"/>
      <point x="233" y="421"/>
      <point x="328" y="570" type="curve" smooth="yes"/>
      <point x="331" y="574"/>
      <point x="334" y="581"/>
      <point x="334" y="584" type="curve" smooth="yes"/>
      <point x="334" y="590"/>
      <point x="326" y="590"/>
      <point x="304" y="590" type="curve" smooth="yes"/>
      <point x="78" y="590" type="line" smooth="yes"/>
      <point x="63" y="590"/>
      <point x="62" y="591"/>
    </contour>
  </outline>
</glyph>
<glyph name="eight" format="2">
  <advance width="500"/>
  <unicode hex="0038"/>
  <outline>
    <contour>
      <point x="178" y="205" type="curve" smooth="yes"/>
      <point x="178" y="129"/>
      <point x="200" y="85"/>
      <point x="250" y="85" type="curve" smooth="yes"/>
      <point x="300" y="85"/>
      <point x="322" y="129"/>
      <point x="322" y="205" type="curve" smooth="yes"/>
      <point x="322" y="271"/>
      <point x="310" y="320"/>
      <point x="250" y="320" type="curve" smooth="yes"/>
      <point x="190" y="320"/>
      <point x="178" y="271"/>
    </contour>
    <contour>
      <point x="183" y="521" type="curve" smooth="yes"/>
      <point x="183" y="460"/>
      <point x="210" y="415"/>
      <point x="250" y="415" type="curve" smooth="yes"/>
      <point x="290" y="415"/>
      <point x="317" y="460"/>
      <point x="317" y="521" type="curve" smooth="yes"/>
      <point x="317" y="582"/>
      <point x="295" y="615"/>
      <point x="250" y="615" type="curve" smooth="yes"/>
      <point x="205" y="615"/>
      <point x="183" y="582"/>
    </contour>
    <contour>
      <point x="67" y="524" type="curve" smooth="yes"/>
      <point x="67" y="633"/>
      <point x="130" y="710"/>
      <point x="250" y="710" type="curve" smooth="yes"/>
      <point x="370" y="710"/>
      <point x="433" y="633"/>
      <point x="433" y="524" type="curve" smooth="yes"/>
      <point x="433" y="453"/>
      <point x="411" y="410"/>
      <point x="368" y="381" type="curve" smooth="yes"/>
      <point x="362" y="377"/>
      <point x="354" y="372"/>
      <point x="354" y="366" type="curve" smooth="yes"/>
      <point x="354" y="362"/>
      <point x="359" y="357"/>
      <point x="364" y="354" type="curve" smooth="yes"/>
      <point x="413" y="322"/>
      <point x="448" y="273"/>
      <point x="448" y="195" type="curve" smooth="yes"/>
      <point x="448" y="76"/>
      <point x="365" y="-10"/>
      <point x="250" y="-10" type="curve" smooth="yes"/>
      <point x="125" y="-10"/>
      <point x="52" y="76"/>
      <point x="52" y="195" type="curve" smooth="yes"/>
      <point x="52" y="272"/>
      <point x="79" y="326"/>
      <point x="129" y="354" type="curve" smooth="yes"/>
      <point x="138" y="359"/>
      <point x="144" y="364"/>
      <point x="144" y="368" type="curve" smooth="yes"/>
      <point x="144" y="371"/>
      <point x="141" y="373"/>
      <point x="136" y="376" type="curve" smooth="yes"/>
      <point x="89" y="400"/>
      <point x="67" y="451"/>
    </contour>
  </outline>
</glyph>
<glyph name="nine" format="2">
  <advance width="500"/>
  <unicode hex="0039"/>
  <outline>
    <contour>
      <point x="254" y="600" type="curve" smooth="yes"/>
      <point x="213" y="600"/>
      <point x="182" y="573"/>
      <point x="182" y="452" type="curve" smooth="yes"/>
      <point x="182" y="381"/>
      <point x="188" y="320"/>
      <point x="250" y="320" type="curve" smooth="yes"/>
      <point x="297" y="320"/>
      <point x="324" y="375"/>
      <point x="324" y="471" type="curve" smooth="yes"/>
      <point x="324" y="498"/>
      <point x="324" y="531"/>
      <point x="312" y="564" type="curve" smooth="yes"/>
      <point x="305" y="585"/>
      <point x="285" y="600"/>
    </contour>
    <contour>
      <point x="240" y="100" type="curve" smooth="yes"/>
      <point x="279" y="100"/>
      <point x="298" y="122"/>
      <point x="308" y="136" type="curve" smooth="yes"/>
      <point x="329" y="166"/>
      <point x="336" y="206"/>
      <point x="336" y="279" type="curve" smooth="yes"/>
      <point x="336" y="315"/>
      <point x="332" y="306"/>
      <point x="316" y="286" type="curve" smooth="yes"/>
      <point x="284" y="246"/>
      <point x="242" y="230"/>
      <point x="210" y="230" type="curve" smooth="yes"/>
      <point x="164" y="230"/>
      <point x="137" y="246"/>
      <point x="110" y="270" type="curve" smooth="yes"/>
      <point x="75" y="302"/>
      <point x="56" y="346"/>
      <point x="56" y="437" type="curve" smooth="yes"/>
      <point x="56" y="544"/>
      <point x="74" y="615"/>
      <point x="108" y="649" type="curve" smooth="yes"/>
      <point x="138" y="679"/>
      <point x="184" y="710"/>
      <point x="256" y="710" type="curve" smooth="yes"/>
      <point x="332" y="710"/>
      <point x="365" y="689"/>
      <point x="398" y="653" type="curve" smooth="yes"/>
      <point x="447" y="600"/>
      <point x="448" y="464"/>
      <point x="448" y="343" type="curve" smooth="yes"/>
      <point x="448" y="226"/>
      <point x="443" y="116"/>
      <point x="394" y="59" type="curve" smooth="yes"/>
      <point x="366" y="27"/>
      <point x="316" y="-10"/>
      <point x="244" y="-10" type="curve" smooth="yes"/>
      <point x="194" y="-10"/>
      <point x="152" y="3"/>
      <point x="122" y="27" type="curve" smooth="yes"/>
      <point x="80" y="61"/>
      <point x="52" y="108"/>
      <point x="52" y="165" type="curve" smooth="yes"/>
      <point x="52" y="190"/>
      <point x="53" y="194"/>
      <point x="74" y="194" type="curve" smooth="yes"/>
      <point x="144" y="194" type="line" smooth="yes"/>
      <point x="155" y="194"/>
      <point x="166" y="189"/>
      <point x="166" y="180" type="curve" smooth="yes"/>
      <point x="166" y="170" type="line" smooth="yes"/>
      <point x="166" y="150"/>
      <point x="171" y="135"/>
      <point x="188" y="118" type="curve" smooth="yes"/>
      <point x="200" y="106"/>
      <point x="222" y="100"/>
    </contour>
  </outline>
</glyph>
<glyph name="less" format="2">
  <advance width="390"/>
  <unicode hex="003C"/>
  <outline>
    <contour>
      <point x="223" y="297" type="curve" smooth="yes"/>
      <point x="311" y="254" type="line" smooth="yes"/>
      <point x="337" y="241"/>
      <point x="350" y="238"/>
      <point x="350" y="197" type="curve" smooth="yes"/>
      <point x="350" y="92" type="line" smooth="yes"/>
      <point x="350" y="35"/>
      <point x="347" y="38"/>
      <point x="310" y="60" type="curve" smooth="yes"/>
      <point x="40" y="217" type="line" smooth="yes"/>
      <point x="20" y="229"/>
      <point x="10" y="237"/>
      <point x="10" y="271" type="curve" smooth="yes"/>
      <point x="10" y="342" type="line" smooth="yes"/>
      <point x="10" y="379"/>
      <point x="25" y="389"/>
      <point x="47" y="402" type="curve" smooth="yes"/>
      <point x="307" y="555" type="line" smooth="yes"/>
      <point x="339" y="574"/>
      <point x="350" y="582"/>
      <point x="350" y="524" type="curve" smooth="yes"/>
      <point x="350" y="425" type="line" smooth="yes"/>
      <point x="350" y="381"/>
      <point x="344" y="378"/>
      <point x="314" y="365" type="curve" smooth="yes"/>
      <point x="226" y="327" type="line" smooth="yes"/>
      <point x="192" y="312"/>
      <point x="190" y="313"/>
    </contour>
  </outline>
</glyph>
<glyph name="equal" format="2">
  <advance width="270"/>
  <unicode hex="003D"/>
  <outline>
    <contour>
      <point x="20" y="154" type="curve" smooth="yes"/>
      <point x="20" y="259" type="line" smooth="yes"/>
      <point x="20" y="282"/>
      <point x="22" y="285"/>
      <point x="44" y="285" type="curve" smooth="yes"/>
      <point x="222" y="285" type="line" smooth="yes"/>
      <point x="246" y="285"/>
      <point x="250" y="284"/>
      <point x="250" y="260" type="curve" smooth="yes"/>
      <point x="250" y="146" type="line" smooth="yes"/>
      <point x="250" y="126"/>
      <point x="246" y="125"/>
      <point x="225" y="125" type="curve" smooth="yes"/>
      <point x="51" y="125" type="line" smooth="yes"/>
      <point x="25" y="125"/>
      <point x="20" y="128"/>
    </contour>
    <contour>
      <point x="20" y="354" type="curve" smooth="yes"/>
      <point x="20" y="459" type="line" smooth="yes"/>
      <point x="20" y="482"/>
      <point x="22" y="485"/>
      <point x="44" y="485" type="curve" smooth="yes"/>
      <point x="222" y="485" type="line" smooth="yes"/>
      <point x="246" y="485"/>
      <point x="250" y="484"/>
      <point x="250" y="460" type="curve" smooth="yes"/>
      <point x="250" y="346" type="line" smooth="yes"/>
      <point x="250" y="326"/>
      <point x="246" y="325"/>
      <point x="225" y="325" type="curve" smooth="yes"/>
      <point x="51" y="325" type="line" smooth="yes"/>
      <point x="25" y="325"/>
      <point x="20" y="328"/>
    </contour>
  </outline>
</glyph>
<glyph name="greater" format="2">
  <advance width="390"/>
  <unicode hex="003E"/>
  <outline>
    <contour>
      <point x="169" y="317" type="curve" smooth="yes"/>
      <point x="72" y="364" type="line" smooth="yes"/>
      <point x="45" y="377"/>
      <point x="40" y="384"/>
      <point x="40" y="426" type="curve" smooth="yes"/>
      <point x="40" y="534" type="line" smooth="yes"/>
      <point x="40" y="579"/>
      <point x="47" y="576"/>
      <point x="72" y="561" type="curve" smooth="yes"/>
      <point x="358" y="393" type="line" smooth="yes"/>
      <point x="372" y="385"/>
      <point x="380" y="380"/>
      <point x="380" y="357" type="curve" smooth="yes"/>
      <point x="380" y="278" type="line" smooth="yes"/>
      <point x="380" y="241"/>
      <point x="373" y="231"/>
      <point x="351" y="218" type="curve" smooth="yes"/>
      <point x="72" y="54" type="line" smooth="yes"/>
      <point x="43" y="37"/>
      <point x="40" y="34"/>
      <point x="40" y="83" type="curve" smooth="yes"/>
      <point x="40" y="203" type="line" smooth="yes"/>
      <point x="40" y="234"/>
      <point x="46" y="237"/>
      <point x="66" y="246" type="curve" smooth="yes"/>
      <point x="164" y="288" type="line" smooth="yes"/>
      <point x="196" y="302"/>
      <point x="202" y="301"/>
    </contour>
  </outline>
</glyph>
<glyph name="question" format="2">
  <advance width="475"/>
  <unicode hex="003F"/>
  <outline>
    <contour>
      <point x="388" y="490" type="curve" smooth="yes"/>
      <point x="388" y="331"/>
      <point x="354" y="265"/>
      <point x="264" y="265" type="curve" smooth="yes"/>
      <point x="208" y="265"/>
      <point x="210" y="300"/>
      <point x="197" y="300" type="curve" smooth="yes"/>
      <point x="190" y="300"/>
      <point x="186" y="292"/>
      <point x="186" y="274" type="curve" smooth="yes"/>
      <point x="186" y="240" type="line" smooth="yes"/>
      <point x="186" y="224"/>
      <point x="185" y="220"/>
      <point x="168" y="220" type="curve" smooth="yes"/>
      <point x="100" y="220" type="line" smooth="yes"/>
      <point x="79" y="220"/>
      <point x="76" y="223"/>
      <point x="76" y="244" type="curve" smooth="yes"/>
      <point x="74" y="446" type="line" smooth="yes"/>
      <point x="74" y="462"/>
      <point x="76" y="467"/>
      <point x="94" y="467" type="curve" smooth="yes"/>
      <point x="168" y="467" type="line" smooth="yes"/>
      <point x="181" y="467"/>
      <point x="188" y="465"/>
      <point x="188" y="454" type="curve" smooth="yes"/>
      <point x="188" y="406"/>
      <point x="193" y="364"/>
      <point x="228" y="364" type="curve" smooth="yes"/>
      <point x="258" y="364"/>
      <point x="266" y="394"/>
      <point x="266" y="490" type="curve" smooth="yes"/>
      <point x="266" y="573"/>
      <point x="244" y="610"/>
      <point x="214" y="610" type="curve" smooth="yes"/>
      <point x="181" y="610"/>
      <point x="174" y="563"/>
      <point x="174" y="499" type="curve" smooth="yes"/>
      <point x="174" y="489"/>
      <point x="173" y="487"/>
      <point x="162" y="487" type="curve" smooth="yes"/>
      <point x="78" y="487" type="line" smooth="yes"/>
      <point x="65" y="487"/>
      <point x="64" y="487"/>
      <point x="64" y="500" type="curve" smooth="yes"/>
      <point x="64" y="641"/>
      <point x="89" y="710"/>
      <point x="224" y="710" type="curve" smooth="yes"/>
      <point x="309" y="710"/>
      <point x="388" y="649"/>
    </contour>
    <contour>
      <point x="50" y="19" type="curve" smooth="yes"/>
      <point x="50" y="170" type="line" smooth="yes"/>
      <point x="50" y="190"/>
      <point x="52" y="193"/>
      <point x="69" y="193" type="curve" smooth="yes"/>
      <point x="190" y="193" type="line" smooth="yes"/>
      <point x="207" y="193"/>
      <point x="210" y="188"/>
      <point x="210" y="170" type="curve" smooth="yes"/>
      <point x="210" y="18" type="line" smooth="yes"/>
      <point x="210" y="2"/>
      <point x="209" y="0"/>
      <point x="193" y="0" type="curve" smooth="yes"/>
      <point x="70" y="0" type="line" smooth="yes"/>
      <point x="53" y="0"/>
      <point x="50" y="3"/>
    </contour>
  </outline>
</glyph>
<glyph name="at" format="2">
  <advance width="738"/>
  <unicode hex="0040"/>
  <outline>
    <contour>
      <point x="529" y="28" type="curve" smooth="yes"/>
      <point x="614" y="28" type="line" smooth="yes"/>
      <point x="632" y="28"/>
      <point x="638" y="28"/>
      <point x="638" y="11" type="curve" smooth="yes"/>
      <point x="638" y="-35"/>
      <point x="606" y="-78"/>
      <point x="572" y="-101" type="curve" smooth="yes"/>
      <point x="523" y="-135"/>
      <point x="458" y="-160"/>
      <point x="374" y="-160" type="curve" smooth="yes"/>
      <point x="224" y="-160"/>
      <point x="164" y="-116"/>
      <point x="112" y="-52" type="curve" smooth="yes"/>
      <point x="43" y="33"/>
      <point x="40" y="153"/>
      <point x="40" y="320" type="curve" smooth="yes"/>
      <point x="40" y="487"/>
      <point x="61" y="598"/>
      <point x="124" y="678" type="curve" smooth="yes"/>
      <point x="180" y="749"/>
      <point x="274" y="790"/>
      <point x="384" y="790" type="curve" smooth="yes"/>
      <point x="495" y="790"/>
      <point x="565" y="752"/>
      <point x="609" y="707" type="curve" smooth="yes"/>
      <point x="680" y="634"/>
      <point x="698" y="538"/>
      <point x="698" y="393" type="curve" smooth="yes"/>
      <point x="698" y="239"/>
      <point x="695" y="159"/>
      <point x="655" y="107" type="curve" smooth="yes"/>
      <point x="637" y="83"/>
      <point x="608" y="70"/>
      <point x="551" y="70" type="curve" smooth="yes"/>
      <point x="498" y="70"/>
      <point x="465" y="102"/>
      <point x="447" y="124" type="curve" smooth="yes"/>
      <point x="440" y="132"/>
      <point x="432" y="130"/>
      <point x="425" y="120" type="curve" smooth="yes"/>
      <point x="405" y="93"/>
      <point x="369" y="72"/>
      <point x="334" y="72" type="curve" smooth="yes"/>
      <point x="265" y="72"/>
      <point x="224" y="121"/>
      <point x="224" y="206" type="curve" smooth="yes"/>
      <point x="224" y="264"/>
      <point x="224" y="328"/>
      <point x="320" y="349" type="curve" smooth="yes"/>
      <point x="377" y="362"/>
      <point x="391" y="367"/>
      <point x="391" y="400" type="curve" smooth="yes"/>
      <point x="391" y="439"/>
      <point x="381" y="448"/>
      <point x="364" y="448" type="curve" smooth="yes"/>
      <point x="345" y="448"/>
      <point x="336" y="434"/>
      <point x="335" y="408" type="curve" smooth="yes"/>
      <point x="335" y="400"/>
      <point x="333" y="399"/>
      <point x="324" y="399" type="curve" smooth="yes"/>
      <point x="237" y="399" type="line" smooth="yes"/>
      <point x="228" y="399"/>
      <point x="225" y="402"/>
      <point x="225" y="411" type="curve" smooth="yes"/>
      <point x="227" y="514"/>
      <point x="283" y="553"/>
      <point x="368" y="553" type="curve" smooth="yes"/>
      <point x="489" y="553"/>
      <point x="512" y="499"/>
      <point x="512" y="404" type="curve" smooth="yes"/>
      <point x="512" y="230" type="line" smooth="yes"/>
      <point x="512" y="213"/>
      <point x="514" y="197"/>
      <point x="518" y="188" type="curve" smooth="yes"/>
      <point x="523" y="179"/>
      <point x="531" y="177"/>
      <point x="540" y="177" type="curve" smooth="yes"/>
      <point x="549" y="177"/>
      <point x="556" y="180"/>
      <point x="561" y="191" type="curve" smooth="yes"/>
      <point x="566" y="202"/>
      <point x="568" y="273"/>
      <point x="568" y="396" type="curve" smooth="yes"/>
      <point x="568" y="494"/>
      <point x="570" y="574"/>
      <point x="522" y="629" type="curve" smooth="yes"/>
      <point x="488" y="667"/>
      <point x="442" y="679"/>
      <point x="384" y="680" type="curve" smooth="yes"/>
      <point x="321" y="680"/>
      <point x="261" y="657"/>
      <point x="221" y="610" type="curve" smooth="yes"/>
      <point x="169" y="549"/>
      <point x="166" y="445"/>
      <point x="166" y="320" type="curve" smooth="yes"/>
      <point x="166" y="195"/>
      <point x="166" y="77"/>
      <point x="210" y="16" type="curve" smooth="yes"/>
      <point x="242" y="-28"/>
      <point x="271" y="-50"/>
      <point x="374" y="-50" type="curve" smooth="yes"/>
      <point x="440" y="-50"/>
      <point x="483" y="-27"/>
      <point x="504" y="-1" type="curve" smooth="yes"/>
      <point x="512" y="9"/>
      <point x="517" y="28"/>
    </contour>
    <contour>
      <point x="327" y="222" type="curve" smooth="yes"/>
      <point x="327" y="184"/>
      <point x="341" y="168"/>
      <point x="358" y="168" type="curve" smooth="yes"/>
      <point x="379" y="168"/>
      <point x="386" y="181"/>
      <point x="386" y="246" type="curve" smooth="yes"/>
      <point x="386" y="288" type="line" smooth="yes"/>
      <point x="386" y="295"/>
      <point x="384" y="297"/>
      <point x="382" y="297" type="curve" smooth="yes"/>
      <point x="376" y="297"/>
      <point x="370" y="291"/>
      <point x="362" y="288" type="curve" smooth="yes"/>
      <point x="348" y="283"/>
      <point x="327" y="274"/>
    </contour>
  </outline>
</glyph>
<glyph name="A" format="2">
  <advance width="488"/>
  <unicode hex="0041"/>
  <anchor x="405" y="0" name="cedilla"/>
  <anchor x="243" y="0" name="bottom"/>
  <anchor x="241" y="700" name="top"/>
  <outline>
    <contour>
      <point x="178" y="120" type="curve" smooth="yes"/>
      <point x="161" y="17" type="line" smooth="yes"/>
      <point x="159" y="4"/>
      <point x="141" y="0"/>
      <point x="125" y="0" type="curve" smooth="yes"/>
      <point x="59" y="0" type="line" smooth="yes"/>
      <point x="42" y="0"/>
      <point x="20" y="0"/>
      <point x="20" y="13" type="curve" smooth="yes"/>
      <point x="20" y="14"/>
      <point x="20" y="16"/>
      <point x="21" y="20" type="curve" smooth="yes"/>
      <point x="160" y="672" type="line" smooth="yes"/>
      <point x="165" y="696"/>
      <point x="170" y="700"/>
      <point x="200" y="700" type="curve" smooth="yes"/>
      <point x="294" y="700" type="line" smooth="yes"/>
      <point x="319" y="700"/>
      <point x="322" y="690"/>
      <point x="326" y="671" type="curve" smooth="yes"/>
      <point x="466" y="18" type="line" smooth="yes"/>
      <point x="467" y="13"/>
      <point x="468" y="9"/>
      <point x="468" y="6" type="curve" smooth="yes"/>
      <point x="468" y="1"/>
      <point x="465" y="0"/>
      <point x="453" y="0" type="curve" smooth="yes"/>
      <point x="336" y="0" type="line" smooth="yes"/>
      <point x="319" y="0"/>
      <point x="318" y="5"/>
      <point x="316" y="20" type="curve" smooth="yes"/>
      <point x="301" y="114" type="line" smooth="yes"/>
      <point x="299" y="129"/>
      <point x="293" y="130"/>
      <point x="282" y="130" type="curve" smooth="yes"/>
      <point x="202" y="130" type="line" smooth="yes"/>
      <point x="183" y="130"/>
      <point x="180" y="129"/>
    </contour>
    <contour>
      <point x="215" y="210" type="curve" smooth="yes"/>
      <point x="261" y="210" type="line" smooth="yes"/>
      <point x="278" y="210"/>
      <point x="283" y="218"/>
      <point x="283" y="231" type="curve" smooth="yes"/>
      <point x="283" y="235"/>
      <point x="283" y="240"/>
      <point x="282" y="245" type="curve" smooth="yes"/>
      <point x="253" y="443" type="line" smooth="yes"/>
      <point x="251" y="458"/>
      <point x="249" y="459"/>
      <point x="242" y="459" type="curve" smooth="yes"/>
      <point x="235" y="459"/>
      <point x="235" y="458"/>
      <point x="232" y="443" type="curve" smooth="yes"/>
      <point x="201" y="255" type="line" smooth="yes"/>
      <point x="199" y="245"/>
      <point x="198" y="237"/>
      <point x="198" y="231" type="curve" smooth="yes"/>
      <point x="198" y="212"/>
      <point x="206" y="210"/>
    </contour>
  </outline>
</glyph>
<glyph name="B" format="2">
  <advance width="438"/>
  <unicode hex="0042"/>
  <anchor x="202" y="700" name="top"/>
  <anchor x="198" y="0" name="bottom"/>
  <outline>
    <contour>
      <point x="347" y="346" type="curve" smooth="yes"/>
      <point x="393" y="316"/>
      <point x="408" y="261"/>
      <point x="408" y="210" type="curve" smooth="yes"/>
      <point x="408" y="91"/>
      <point x="355" y="0"/>
      <point x="210" y="0" type="curve" smooth="yes"/>
      <point x="58" y="0" type="line" smooth="yes"/>
      <point x="41" y="0"/>
      <point x="40" y="9"/>
      <point x="40" y="26" type="curve" smooth="yes"/>
      <point x="40" y="670" type="line" smooth="yes"/>
      <point x="40" y="692"/>
      <point x="43" y="700"/>
      <point x="64" y="700" type="curve" smooth="yes"/>
      <point x="190" y="700" type="line" smooth="yes"/>
      <point x="335" y="700"/>
      <point x="400" y="619"/>
      <point x="400" y="500" type="curve" smooth="yes"/>
      <point x="400" y="444"/>
      <point x="381" y="400"/>
      <point x="343" y="368" type="curve" smooth="yes"/>
      <point x="337" y="363"/>
      <point x="334" y="361"/>
      <point x="334" y="358" type="curve" smooth="yes"/>
      <point x="334" y="354"/>
      <point x="336" y="353"/>
    </contour>
    <contour>
      <point x="164" y="292" type="curve" smooth="yes"/>
      <point x="164" y="145" type="line" smooth="yes"/>
      <point x="164" y="132"/>
      <point x="167" y="131"/>
      <point x="180" y="131" type="curve" smooth="yes"/>
      <point x="205" y="131" type="line" smooth="yes"/>
      <point x="255" y="131"/>
      <point x="278" y="159"/>
      <point x="278" y="215" type="curve" smooth="yes"/>
      <point x="278" y="281"/>
      <point x="235" y="305"/>
      <point x="195" y="305" type="curve" smooth="yes"/>
      <point x="177" y="305" type="line" smooth="yes"/>
      <point x="167" y="305"/>
      <point x="164" y="301"/>
    </contour>
    <contour>
      <point x="173" y="415" type="curve" smooth="yes"/>
      <point x="190" y="415" type="line" smooth="yes"/>
      <point x="250" y="415"/>
      <point x="280" y="449"/>
      <point x="280" y="500" type="curve" smooth="yes"/>
      <point x="280" y="545"/>
      <point x="250" y="570"/>
      <point x="200" y="570" type="curve" smooth="yes"/>
      <point x="176" y="570" type="line" smooth="yes"/>
      <point x="168" y="570"/>
      <point x="164" y="569"/>
      <point x="164" y="562" type="curve" smooth="yes"/>
      <point x="164" y="426" type="line" smooth="yes"/>
      <point x="164" y="416"/>
      <point x="167" y="415"/>
    </contour>
  </outline>
</glyph>
<glyph name="D" format="2">
  <advance width="462"/>
  <unicode hex="0044"/>
  <anchor x="202" y="700" name="top"/>
  <anchor x="131" y="0" name="bottom"/>
  <anchor x="131" y="0" name="cedilla"/>
  <outline>
    <contour>
      <point x="87" y="0" type="curve" smooth="yes"/>
      <point x="50" y="0"/>
      <point x="40" y="-7"/>
      <point x="40" y="33" type="curve" smooth="yes"/>
      <point x="40" y="664" type="line" smooth="yes"/>
      <point x="40" y="697"/>
      <point x="52" y="700"/>
      <point x="87" y="700" type="curve" smooth="yes"/>
      <point x="123" y="700"/>
      <point x="180" y="700"/>
      <point x="180" y="700" type="curve"/>
      <point x="222" y="700" type="line" smooth="yes"/>
      <point x="426" y="700"/>
      <point x="432" y="569"/>
      <point x="432" y="350" type="curve" smooth="yes"/>
      <point x="432" y="131"/>
      <point x="426" y="0"/>
      <point x="222" y="0" type="curve" smooth="yes"/>
      <point x="180" y="0" type="line"/>
      <point x="180" y="0"/>
      <point x="123" y="0"/>
    </contour>
    <contour>
      <point x="212" y="140" type="curve" smooth="yes"/>
      <point x="234" y="140"/>
      <point x="254" y="144"/>
      <point x="265" y="161" type="curve" smooth="yes"/>
      <point x="284" y="189"/>
      <point x="285" y="258"/>
      <point x="285" y="360" type="curve" smooth="yes"/>
      <point x="285" y="460"/>
      <point x="284" y="520"/>
      <point x="269" y="551" type="curve" smooth="yes"/>
      <point x="258" y="573"/>
      <point x="238" y="580"/>
      <point x="212" y="580" type="curve" smooth="yes"/>
      <point x="196" y="580"/>
      <point x="180" y="582"/>
      <point x="180" y="557" type="curve" smooth="yes"/>
      <point x="180" y="159" type="line" smooth="yes"/>
      <point x="180" y="141"/>
      <point x="192" y="140"/>
    </contour>
  </outline>
</glyph>
<glyph name="E" format="2">
  <advance width="416"/>
  <unicode hex="0045"/>
  <anchor x="212" y="700" name="top"/>
  <anchor x="208" y="0" name="bottom"/>
  <anchor x="313" y="0" name="cedilla"/>
  <outline>
    <contour>
      <point x="180" y="266" type="curve" smooth="yes"/>
      <point x="180" y="166" type="line" smooth="yes"/>
      <point x="180" y="144"/>
      <point x="192" y="140"/>
      <point x="212" y="140" type="curve" smooth="yes"/>
      <point x="369" y="140" type="line" smooth="yes"/>
      <point x="393" y="140"/>
      <point x="396" y="138"/>
      <point x="396" y="118" type="curve" smooth="yes"/>
      <point x="396" y="32" type="line" smooth="yes"/>
      <point x="396" y="4"/>
      <point x="386" y="0"/>
      <point x="360" y="0" type="curve" smooth="yes"/>
      <point x="248" y="0"/>
      <point x="184" y="0"/>
      <point x="72" y="0" type="curve" smooth="yes"/>
      <point x="47" y="0"/>
      <point x="40" y="5"/>
      <point x="40" y="32" type="curve" smooth="yes"/>
      <point x="40" y="673" type="line" smooth="yes"/>
      <point x="40" y="699"/>
      <point x="43" y="700"/>
      <point x="72" y="700" type="curve" smooth="yes"/>
      <point x="177" y="700"/>
      <point x="245" y="700"/>
      <point x="350" y="700" type="curve" smooth="yes"/>
      <point x="380" y="700"/>
      <point x="388" y="698"/>
      <point x="388" y="675" type="curve" smooth="yes"/>
      <point x="388" y="583" type="line" smooth="yes"/>
      <point x="388" y="563"/>
      <point x="385" y="560"/>
      <point x="366" y="560" type="curve" smooth="yes"/>
      <point x="207" y="560" type="line" smooth="yes"/>
      <point x="187" y="560"/>
      <point x="180" y="557"/>
      <point x="180" y="537" type="curve" smooth="yes"/>
      <point x="180" y="445" type="line" smooth="yes"/>
      <point x="180" y="427"/>
      <point x="182" y="425"/>
      <point x="199" y="425" type="curve" smooth="yes"/>
      <point x="312" y="425" type="line" smooth="yes"/>
      <point x="325" y="425"/>
      <point x="331" y="422"/>
      <point x="331" y="408" type="curve" smooth="yes"/>
      <point x="331" y="309" type="line" smooth="yes"/>
      <point x="331" y="295"/>
      <point x="326" y="290"/>
      <point x="312" y="290" type="curve" smooth="yes"/>
      <point x="210" y="290" type="line" smooth="yes"/>
      <point x="188" y="290"/>
      <point x="180" y="287"/>
    </contour>
  </outline>
</glyph>
<glyph name="F" format="2">
  <advance width="398"/>
  <unicode hex="0046"/>
  <anchor x="113" y="0" name="bottom"/>
  <anchor x="232" y="700" name="top"/>
  <outline>
    <contour>
      <point x="180" y="268" type="curve" smooth="yes"/>
      <point x="180" y="26" type="line" smooth="yes"/>
      <point x="180" y="4"/>
      <point x="179" y="0"/>
      <point x="162" y="0" type="curve" smooth="yes"/>
      <point x="62" y="0" type="line" smooth="yes"/>
      <point x="47" y="0"/>
      <point x="40" y="6"/>
      <point x="40" y="29" type="curve" smooth="yes"/>
      <point x="40" y="673" type="line" smooth="yes"/>
      <point x="40" y="699"/>
      <point x="54" y="700"/>
      <point x="83" y="700" type="curve" smooth="yes"/>
      <point x="188" y="700"/>
      <point x="248" y="700"/>
      <point x="353" y="700" type="curve" smooth="yes"/>
      <point x="375" y="700"/>
      <point x="378" y="698"/>
      <point x="378" y="675" type="curve" smooth="yes"/>
      <point x="378" y="588" type="line" smooth="yes"/>
      <point x="378" y="568"/>
      <point x="375" y="560"/>
      <point x="356" y="560" type="curve" smooth="yes"/>
      <point x="207" y="560" type="line" smooth="yes"/>
      <point x="187" y="560"/>
      <point x="180" y="557"/>
      <point x="180" y="537" type="curve" smooth="yes"/>
      <point x="180" y="447" type="line" smooth="yes"/>
      <point x="180" y="429"/>
      <point x="182" y="427"/>
      <point x="199" y="427" type="curve" smooth="yes"/>
      <point x="302" y="427" type="line" smooth="yes"/>
      <point x="315" y="427"/>
      <point x="321" y="424"/>
      <point x="321" y="410" type="curve" smooth="yes"/>
      <point x="321" y="311" type="line" smooth="yes"/>
      <point x="321" y="297"/>
      <point x="316" y="292"/>
      <point x="302" y="292" type="curve" smooth="yes"/>
      <point x="210" y="292" type="line" smooth="yes"/>
      <point x="188" y="292"/>
      <point x="180" y="289"/>
    </contour>
  </outline>
</glyph>
<glyph name="G" format="2">
  <advance width="486"/>
  <unicode hex="0047"/>
  <anchor x="235" y="0" name="cedilla"/>
  <anchor x="235" y="0" name="_top"/>
  <anchor x="235" y="0" name="bottom"/>
  <anchor x="235" y="700" name="top"/>
  <outline>
    <contour>
      <point x="446" y="9" type="curve" smooth="yes"/>
      <point x="446" y="2"/>
      <point x="444" y="-1"/>
      <point x="428" y="-1" type="curve" smooth="yes"/>
      <point x="417" y="-1"/>
      <point x="413" y="1"/>
      <point x="405" y="10" type="curve" smooth="yes"/>
      <point x="377" y="41" type="line" smooth="yes"/>
      <point x="371" y="48"/>
      <point x="367" y="49"/>
      <point x="360" y="43" type="curve" smooth="yes"/>
      <point x="327" y="14"/>
      <point x="289" y="-10"/>
      <point x="228" y="-10" type="curve" smooth="yes"/>
      <point x="152" y="-10"/>
      <point x="114" y="11"/>
      <point x="81" y="47" type="curve" smooth="yes"/>
      <point x="32" y="100"/>
      <point x="30" y="236"/>
      <point x="30" y="357" type="curve" smooth="yes"/>
      <point x="30" y="474"/>
      <point x="30" y="586"/>
      <point x="87" y="653" type="curve" smooth="yes"/>
      <point x="115" y="685"/>
      <point x="163" y="710"/>
      <point x="235" y="710" type="curve" smooth="yes"/>
      <point x="319" y="710"/>
      <point x="360" y="692"/>
      <point x="392" y="649" type="curve" smooth="yes"/>
      <point x="431" y="597"/>
      <point x="442" y="546"/>
      <point x="442" y="454" type="curve" smooth="yes"/>
      <point x="442" y="429"/>
      <point x="440" y="425"/>
      <point x="419" y="425" type="curve" smooth="yes"/>
      <point x="314" y="425" type="line" smooth="yes"/>
      <point x="303" y="425"/>
      <point x="293" y="430"/>
      <point x="293" y="439" type="curve" smooth="yes"/>
      <point x="293" y="494" type="line" smooth="yes"/>
      <point x="293" y="535"/>
      <point x="292" y="550"/>
      <point x="279" y="570" type="curve" smooth="yes"/>
      <point x="269" y="585"/>
      <point x="252" y="590"/>
      <point x="239" y="590" type="curve" smooth="yes"/>
      <point x="220" y="590"/>
      <point x="208" y="585"/>
      <point x="197" y="568" type="curve" smooth="yes"/>
      <point x="181" y="543"/>
      <point x="181" y="419"/>
      <point x="181" y="354" type="curve" smooth="yes"/>
      <point x="181" y="287"/>
      <point x="183" y="168"/>
      <point x="193" y="139" type="curve" smooth="yes"/>
      <point x="200" y="118"/>
      <point x="214" y="110"/>
      <point x="235" y="110" type="curve" smooth="yes"/>
      <point x="288" y="110"/>
      <point x="292" y="145"/>
      <point x="292" y="202" type="curve"/>
      <point x="292" y="220"/>
      <point x="291" y="224"/>
      <point x="282" y="224" type="curve" smooth="yes"/>
      <point x="270" y="224"/>
      <point x="246" y="224"/>
      <point x="246" y="242" type="curve" smooth="yes"/>
      <point x="246" y="359" type="line" smooth="yes"/>
      <point x="246" y="375"/>
      <point x="251" y="379"/>
      <point x="266" y="379" type="curve" smooth="yes"/>
      <point x="427" y="379" type="line" smooth="yes"/>
      <point x="442" y="379"/>
      <point x="446" y="374"/>
      <point x="446" y="360" type="curve" smooth="yes"/>
      <point x="446" y="246"/>
      <point x="446" y="123"/>
    </contour>
  </outline>
</glyph>
<glyph name="H" format="2">
  <advance width="485"/>
  <unicode hex="0048"/>
  <anchor x="239" y="700" name="top"/>
  <anchor x="239" y="0" name="bottom"/>
  <anchor x="97" y="0" name="cedilla"/>
  <outline>
    <contour>
      <point x="59" y="700" type="curve" smooth="yes"/>
      <point x="167" y="700" type="line" smooth="yes"/>
      <point x="182" y="700"/>
      <point x="185" y="697"/>
      <point x="185" y="682" type="curve" smooth="yes"/>
      <point x="185" y="458" type="line" smooth="yes"/>
      <point x="185" y="440"/>
      <point x="189" y="435"/>
      <point x="204" y="435" type="curve" smooth="yes"/>
      <point x="282" y="435" type="line" smooth="yes"/>
      <point x="297" y="435"/>
      <point x="300" y="440"/>
      <point x="300" y="458" type="curve" smooth="yes"/>
      <point x="300" y="680" type="line" smooth="yes"/>
      <point x="300" y="694"/>
      <point x="303" y="700"/>
      <point x="317" y="700" type="curve" smooth="yes"/>
      <point x="428" y="700" type="line" smooth="yes"/>
      <point x="445" y="700"/>
      <point x="445" y="697"/>
      <point x="445" y="681" type="curve" smooth="yes"/>
      <point x="445" y="19" type="line" smooth="yes"/>
      <point x="445" y="5"/>
      <point x="444" y="0"/>
      <point x="430" y="0" type="curve" smooth="yes"/>
      <point x="314" y="0" type="line" smooth="yes"/>
      <point x="301" y="0"/>
      <point x="300" y="4"/>
      <point x="300" y="18" type="curve" smooth="yes"/>
      <point x="300" y="244" type="line" smooth="yes"/>
      <point x="300" y="257"/>
      <point x="297" y="260"/>
      <point x="284" y="260" type="curve" smooth="yes"/>
      <point x="204" y="260" type="line" smooth="yes"/>
      <point x="190" y="260"/>
      <point x="185" y="256"/>
      <point x="185" y="243" type="curve" smooth="yes"/>
      <point x="185" y="18" type="line" smooth="yes"/>
      <point x="185" y="4"/>
      <point x="182" y="0"/>
      <point x="168" y="0" type="curve" smooth="yes"/>
      <point x="63" y="0" type="line" smooth="yes"/>
      <point x="43" y="0"/>
      <point x="40" y="7"/>
      <point x="40" y="28" type="curve" smooth="yes"/>
      <point x="40" y="682" type="line" smooth="yes"/>
      <point x="40" y="694"/>
      <point x="43" y="700"/>
    </contour>
  </outline>
</glyph>
<glyph name="I" format="2">
  <advance width="230"/>
  <unicode hex="0049"/>
  <anchor x="115" y="700" name="top"/>
  <anchor x="115" y="0" name="bottom"/>
  <anchor x="115" y="0" name="cedilla"/>
  <outline>
    <contour>
      <point x="51" y="700" type="curve" smooth="yes"/>
      <point x="179" y="700" type="line" smooth="yes"/>
      <point x="188" y="700"/>
      <point x="190" y="697"/>
      <point x="190" y="687" type="curve" smooth="yes"/>
      <point x="190" y="13" type="line" smooth="yes"/>
      <point x="190" y="3"/>
      <point x="189" y="0"/>
      <point x="178" y="0" type="curve" smooth="yes"/>
      <point x="55" y="0" type="line" smooth="yes"/>
      <point x="41" y="0"/>
      <point x="40" y="5"/>
      <point x="40" y="20" type="curve" smooth="yes"/>
      <point x="40" y="689" type="line" smooth="yes"/>
      <point x="40" y="698"/>
      <point x="41" y="700"/>
    </contour>
  </outline>
</glyph>
<glyph name="J" format="2">
  <advance width="328"/>
  <unicode hex="004A"/>
  <anchor x="40" y="0" name="cedilla"/>
  <anchor x="199" y="700" name="top"/>
  <anchor x="40" y="0" name="bottom"/>
  <outline>
    <contour>
      <point x="44" y="140" type="curve" smooth="yes"/>
      <point x="71" y="140" type="line" smooth="yes"/>
      <point x="90" y="140"/>
      <point x="108" y="140"/>
      <point x="119" y="150" type="curve" smooth="yes"/>
      <point x="130" y="160"/>
      <point x="133" y="182"/>
      <point x="133" y="215" type="curve" smooth="yes"/>
      <point x="133" y="676" type="line" smooth="yes"/>
      <point x="133" y="695"/>
      <point x="136" y="700"/>
      <point x="154" y="700" type="curve" smooth="yes"/>
      <point x="265" y="700" type="line" smooth="yes"/>
      <point x="283" y="700"/>
      <point x="288" y="699"/>
      <point x="288" y="681" type="curve" smooth="yes"/>
      <point x="288" y="170" type="line" smooth="yes"/>
      <point x="288" y="48"/>
      <point x="230" y="0"/>
      <point x="84" y="0" type="curve" smooth="yes"/>
      <point x="75" y="0"/>
      <point x="54" y="1"/>
      <point x="43" y="2" type="curve" smooth="yes"/>
      <point x="26" y="3"/>
      <point x="20" y="11"/>
      <point x="20" y="20" type="curve" smooth="yes"/>
      <point x="21" y="125" type="line" smooth="yes"/>
      <point x="21" y="140"/>
      <point x="29" y="140"/>
    </contour>
  </outline>
</glyph>
<glyph name="K" format="2">
  <advance width="469"/>
  <unicode hex="004B"/>
  <anchor x="239" y="700" name="top"/>
  <anchor x="245" y="0" name="bottom"/>
  <anchor x="94" y="0" name="cedilla"/>
  <outline>
    <contour>
      <point x="62" y="700" type="curve" smooth="yes"/>
      <point x="161" y="700" type="line" smooth="yes"/>
      <point x="179" y="700"/>
      <point x="180" y="698"/>
      <point x="180" y="679" type="curve" smooth="yes"/>
      <point x="180" y="508" type="line" smooth="yes"/>
      <point x="180" y="482"/>
      <point x="181" y="470"/>
      <point x="191" y="470" type="curve" smooth="yes"/>
      <point x="203" y="470"/>
      <point x="209" y="484"/>
      <point x="222" y="510" type="curve" smooth="yes"/>
      <point x="293" y="674" type="line" smooth="yes"/>
      <point x="299" y="687"/>
      <point x="301" y="700"/>
      <point x="321" y="700" type="curve" smooth="yes"/>
      <point x="431" y="700" type="line" smooth="yes"/>
      <point x="452" y="700"/>
      <point x="460" y="699"/>
      <point x="460" y="693" type="curve" smooth="yes"/>
      <point x="460" y="690"/>
      <point x="457" y="684"/>
      <point x="454" y="677" type="curve" smooth="yes"/>
      <point x="316" y="386" type="line" smooth="yes"/>
      <point x="313" y="379"/>
      <point x="311" y="375"/>
      <point x="311" y="370" type="curve" smooth="yes"/>
      <point x="311" y="366"/>
      <point x="311" y="363"/>
      <point x="314" y="357" type="curve" smooth="yes"/>
      <point x="466" y="20" type="line" smooth="yes"/>
      <point x="468" y="16"/>
      <point x="469" y="12"/>
      <point x="469" y="9" type="curve" smooth="yes"/>
      <point x="469" y="3"/>
      <point x="465" y="0"/>
      <point x="452" y="0" type="curve" smooth="yes"/>
      <point x="328" y="0" type="line" smooth="yes"/>
      <point x="300" y="0"/>
      <point x="301" y="31"/>
      <point x="287" y="62" type="curve" smooth="yes"/>
      <point x="213" y="222" type="line" smooth="yes"/>
      <point x="202" y="246"/>
      <point x="193" y="255"/>
      <point x="187" y="255" type="curve" smooth="yes"/>
      <point x="181" y="255"/>
      <point x="180" y="246"/>
      <point x="180" y="216" type="curve" smooth="yes"/>
      <point x="180" y="17" type="line" smooth="yes"/>
      <point x="180" y="4"/>
      <point x="177" y="0"/>
      <point x="163" y="0" type="curve" smooth="yes"/>
      <point x="61" y="0" type="line" smooth="yes"/>
      <point x="47" y="0"/>
      <point x="40" y="2"/>
      <point x="40" y="15" type="curve" smooth="yes"/>
      <point x="40" y="678" type="line" smooth="yes"/>
      <point x="40" y="700"/>
      <point x="40" y="700"/>
    </contour>
  </outline>
</glyph>
<glyph name="L" format="2">
  <advance width="375"/>
  <unicode hex="004C"/>
  <anchor x="117" y="700" name="top"/>
  <anchor x="173" y="0" name="bottom"/>
  <anchor x="173" y="0" name="cedilla"/>
  <outline>
    <contour>
      <point x="73" y="700" type="curve" smooth="yes"/>
      <point x="175" y="700" type="line" smooth="yes"/>
      <point x="185" y="700"/>
      <point x="195" y="697"/>
      <point x="195" y="679" type="curve" smooth="yes"/>
      <point x="195" y="165" type="line" smooth="yes"/>
      <point x="195" y="150"/>
      <point x="197" y="145"/>
      <point x="211" y="145" type="curve" smooth="yes"/>
      <point x="328" y="145" type="line" smooth="yes"/>
      <point x="346" y="145"/>
      <point x="355" y="143"/>
      <point x="355" y="130" type="curve" smooth="yes"/>
      <point x="355" y="21" type="line" smooth="yes"/>
      <point x="355" y="0"/>
      <point x="344" y="0"/>
      <point x="325" y="0" type="curve" smooth="yes"/>
      <point x="228" y="0"/>
      <point x="162" y="0"/>
      <point x="65" y="0" type="curve" smooth="yes"/>
      <point x="42" y="0"/>
      <point x="40" y="2"/>
      <point x="40" y="18" type="curve" smooth="yes"/>
      <point x="40" y="684" type="line" smooth="yes"/>
      <point x="40" y="696"/>
      <point x="44" y="700"/>
    </contour>
  </outline>
</glyph>
<glyph name="M" format="2">
  <advance width="650"/>
  <unicode hex="004D"/>
  <anchor x="325" y="700" name="top"/>
  <anchor x="325" y="0" name="bottom"/>
  <outline>
    <contour>
      <point x="481" y="476" type="curve" smooth="yes"/>
      <point x="374" y="17" type="line" smooth="yes"/>
      <point x="371" y="2"/>
      <point x="372" y="0"/>
      <point x="353" y="0" type="curve" smooth="yes"/>
      <point x="287" y="0" type="line" smooth="yes"/>
      <point x="270" y="0"/>
      <point x="269" y="5"/>
      <point x="266" y="19" type="curve" smooth="yes"/>
      <point x="171" y="459" type="line" smooth="yes"/>
      <point x="168" y="472"/>
      <point x="164" y="479"/>
      <point x="161" y="479" type="curve" smooth="yes"/>
      <point x="157" y="479"/>
      <point x="160" y="472"/>
      <point x="160" y="459" type="curve" smooth="yes"/>
      <point x="160" y="19" type="line" smooth="yes"/>
      <point x="160" y="4"/>
      <point x="160" y="0"/>
      <point x="144" y="0" type="curve" smooth="yes"/>
      <point x="57" y="0" type="line" smooth="yes"/>
      <point x="41" y="0"/>
      <point x="40" y="4"/>
      <point x="40" y="21" type="curve" smooth="yes"/>
      <point x="40" y="681" type="line" smooth="yes"/>
      <point x="40" y="698"/>
      <point x="42" y="700"/>
      <point x="58" y="700" type="curve" smooth="yes"/>
      <point x="224" y="700" type="line" smooth="yes"/>
      <point x="244" y="700"/>
      <point x="246" y="695"/>
      <point x="249" y="678" type="curve" smooth="yes"/>
      <point x="315" y="366" type="line" smooth="yes"/>
      <point x="319" y="349"/>
      <point x="321" y="344"/>
      <point x="325" y="344" type="curve" smooth="yes"/>
      <point x="330" y="344"/>
      <point x="331" y="349"/>
      <point x="335" y="366" type="curve" smooth="yes"/>
      <point x="402" y="687" type="line" smooth="yes"/>
      <point x="404" y="699"/>
      <point x="410" y="700"/>
      <point x="425" y="700" type="curve" smooth="yes"/>
      <point x="595" y="700" type="line" smooth="yes"/>
      <point x="606" y="700"/>
      <point x="610" y="699"/>
      <point x="610" y="687" type="curve" smooth="yes"/>
      <point x="610" y="11" type="line" smooth="yes"/>
      <point x="610" y="1"/>
      <point x="606" y="0"/>
      <point x="596" y="0" type="curve" smooth="yes"/>
      <point x="507" y="0" type="line" smooth="yes"/>
      <point x="494" y="0"/>
      <point x="490" y="1"/>
      <point x="490" y="14" type="curve" smooth="yes"/>
      <point x="490" y="476" type="line" smooth="yes"/>
      <point x="490" y="481"/>
      <point x="489" y="483"/>
      <point x="486" y="483" type="curve" smooth="yes"/>
      <point x="483" y="483"/>
      <point x="482" y="482"/>
    </contour>
  </outline>
</glyph>
<glyph name="N" format="2">
  <advance width="495"/>
  <unicode hex="004E"/>
  <anchor x="244" y="700" name="top"/>
  <anchor x="234" y="0" name="bottom"/>
  <outline>
    <contour>
      <point x="342" y="700" type="curve" smooth="yes"/>
      <point x="439" y="700" type="line" smooth="yes"/>
      <point x="453" y="700"/>
      <point x="455" y="697"/>
      <point x="455" y="682" type="curve" smooth="yes"/>
      <point x="455" y="19" type="line" smooth="yes"/>
      <point x="455" y="5"/>
      <point x="455" y="0"/>
      <point x="440" y="0" type="curve" smooth="yes"/>
      <point x="320" y="0" type="line" smooth="yes"/>
      <point x="302" y="0"/>
      <point x="304" y="5"/>
      <point x="299" y="18" type="curve" smooth="yes"/>
      <point x="189" y="324" type="line" smooth="yes"/>
      <point x="174" y="367"/>
      <point x="170" y="355"/>
      <point x="170" y="322" type="curve" smooth="yes"/>
      <point x="170" y="21" type="line" smooth="yes"/>
      <point x="170" y="3"/>
      <point x="172" y="0"/>
      <point x="153" y="0" type="curve" smooth="yes"/>
      <point x="60" y="0" type="line" smooth="yes"/>
      <point x="40" y="0"/>
      <point x="40" y="0"/>
      <point x="40" y="20" type="curve" smooth="yes"/>
      <point x="40" y="680" type="line" smooth="yes"/>
      <point x="40" y="700"/>
      <point x="40" y="700"/>
      <point x="60" y="700" type="curve" smooth="yes"/>
      <point x="173" y="700" type="line" smooth="yes"/>
      <point x="197" y="700"/>
      <point x="196" y="696"/>
      <point x="203" y="680" type="curve" smooth="yes"/>
      <point x="309" y="427" type="line" smooth="yes"/>
      <point x="321" y="397"/>
      <point x="325" y="401"/>
      <point x="325" y="429" type="curve" smooth="yes"/>
      <point x="325" y="686" type="line" smooth="yes"/>
      <point x="325" y="699"/>
      <point x="328" y="700"/>
    </contour>
  </outline>
</glyph>
<glyph name="P" format="2">
  <advance width="468"/>
  <unicode hex="0050"/>
  <anchor x="158" y="700" name="top"/>
  <anchor x="98" y="0" name="bottom"/>
  <outline>
    <contour>
      <point x="180" y="247" type="curve" smooth="yes"/>
      <point x="180" y="22" type="line" smooth="yes"/>
      <point x="180" y="2"/>
      <point x="182" y="0"/>
      <point x="161" y="0" type="curve" smooth="yes"/>
      <point x="59" y="0" type="line" smooth="yes"/>
      <point x="43" y="0"/>
      <point x="40" y="-3"/>
      <point x="40" y="14" type="curve" smooth="yes"/>
      <point x="40" y="685" type="line" smooth="yes"/>
      <point x="40" y="700"/>
      <point x="44" y="700"/>
      <point x="58" y="700" type="curve" smooth="yes"/>
      <point x="200" y="700" type="line" smooth="yes"/>
      <point x="251" y="700"/>
      <point x="299" y="695"/>
      <point x="339" y="673" type="curve" smooth="yes"/>
      <point x="398" y="641"/>
      <point x="438" y="577"/>
      <point x="438" y="485" type="curve" smooth="yes"/>
      <point x="438" y="399"/>
      <point x="412" y="331"/>
      <point x="359" y="297" type="curve" smooth="yes"/>
      <point x="317" y="271"/>
      <point x="255" y="262"/>
      <point x="200" y="262" type="curve" smooth="yes"/>
      <point x="184" y="262"/>
      <point x="180" y="260"/>
    </contour>
    <contour>
      <point x="190" y="410" type="curve" smooth="yes"/>
      <point x="249" y="410"/>
      <point x="283" y="429"/>
      <point x="283" y="485" type="curve" smooth="yes"/>
      <point x="283" y="531"/>
      <point x="253" y="560"/>
      <point x="194" y="560" type="curve" smooth="yes"/>
      <point x="185" y="560"/>
      <point x="180" y="559"/>
      <point x="180" y="548" type="curve" smooth="yes"/>
      <point x="180" y="428" type="line" smooth="yes"/>
      <point x="180" y="416"/>
      <point x="182" y="410"/>
    </contour>
  </outline>
</glyph>
<glyph name="Q" format="2">
  <advance width="473"/>
  <unicode hex="0051"/>
  <anchor x="237" y="700" name="top"/>
  <outline>
    <contour>
      <point x="239" y="590" type="curve" smooth="yes"/>
      <point x="220" y="590"/>
      <point x="205" y="581"/>
      <point x="193" y="563" type="curve" smooth="yes"/>
      <point x="176" y="538"/>
      <point x="176" y="419"/>
      <point x="176" y="354" type="curve" smooth="yes"/>
      <point x="176" y="287"/>
      <point x="176" y="172"/>
      <point x="188" y="139" type="curve" smooth="yes"/>
      <point x="195" y="118"/>
      <point x="213" y="110"/>
      <point x="234" y="110" type="curve" smooth="yes"/>
      <point x="253" y="110"/>
      <point x="264" y="115"/>
      <point x="278" y="132" type="curve" smooth="yes"/>
      <point x="291" y="148"/>
      <point x="292" y="281"/>
      <point x="292" y="346" type="curve" smooth="yes"/>
      <point x="292" y="413"/>
      <point x="292" y="532"/>
      <point x="281" y="561" type="curve" smooth="yes"/>
      <point x="273" y="582"/>
      <point x="260" y="590"/>
    </contour>
    <contour>
      <point x="372" y="15" type="curve" smooth="yes"/>
      <point x="424" y="-50" type="line" smooth="yes"/>
      <point x="431" y="-59"/>
      <point x="432" y="-62"/>
      <point x="419" y="-62" type="curve" smooth="yes"/>
      <point x="283" y="-62" type="line" smooth="yes"/>
      <point x="270" y="-62"/>
      <point x="269" y="-59"/>
      <point x="263" y="-52" type="curve" smooth="yes"/>
      <point x="234" y="-20" type="line" smooth="yes"/>
      <point x="226" y="-11"/>
      <point x="220" y="-10"/>
      <point x="203" y="-9" type="curve" smooth="yes"/>
      <point x="145" y="-4"/>
      <point x="109" y="16"/>
      <point x="81" y="47" type="curve" smooth="yes"/>
      <point x="32" y="100"/>
      <point x="30" y="236"/>
      <point x="30" y="357" type="curve" smooth="yes"/>
      <point x="30" y="474"/>
      <point x="30" y="586"/>
      <point x="87" y="653" type="curve" smooth="yes"/>
      <point x="115" y="685"/>
      <point x="168" y="710"/>
      <point x="240" y="710" type="curve" smooth="yes"/>
      <point x="316" y="710"/>
      <point x="359" y="689"/>
      <point x="392" y="653" type="curve" smooth="yes"/>
      <point x="441" y="600"/>
      <point x="443" y="464"/>
      <point x="443" y="343" type="curve" smooth="yes"/>
      <point x="443" y="221"/>
      <point x="443" y="100"/>
      <point x="377" y="38" type="curve" smooth="yes"/>
      <point x="366" y="28"/>
      <point x="366" y="22"/>
    </contour>
  </outline>
</glyph>
<glyph name="R" format="2">
  <advance width="472"/>
  <unicode hex="0052"/>
  <anchor x="370" y="0" name="cedilla"/>
  <anchor x="238" y="0" name="bottom"/>
  <anchor x="218" y="700" name="top"/>
  <outline>
    <contour>
      <point x="190" y="420" type="curve" smooth="yes"/>
      <point x="249" y="420"/>
      <point x="289" y="447"/>
      <point x="289" y="504" type="curve" smooth="yes"/>
      <point x="289" y="550"/>
      <point x="253" y="565"/>
      <point x="194" y="565" type="curve" smooth="yes"/>
      <point x="185" y="565"/>
      <point x="180" y="564"/>
      <point x="180" y="553" type="curve" smooth="yes"/>
      <point x="180" y="438" type="line" smooth="yes"/>
      <point x="180" y="426"/>
      <point x="182" y="420"/>
    </contour>
    <contour>
      <point x="378" y="320" type="curve" smooth="yes"/>
      <point x="408" y="279"/>
      <point x="414" y="201"/>
      <point x="421" y="109" type="curve" smooth="yes"/>
      <point x="425" y="59"/>
      <point x="438" y="40"/>
      <point x="445" y="25" type="curve" smooth="yes"/>
      <point x="447" y="21"/>
      <point x="452" y="15"/>
      <point x="452" y="8" type="curve" smooth="yes"/>
      <point x="452" y="1"/>
      <point x="444" y="0"/>
      <point x="437" y="0" type="curve" smooth="yes"/>
      <point x="436" y="0"/>
      <point x="434" y="0"/>
      <point x="433" y="0" type="curve" smooth="yes"/>
      <point x="315" y="0" type="line" smooth="yes"/>
      <point x="304" y="0"/>
      <point x="298" y="5"/>
      <point x="294" y="13" type="curve" smooth="yes"/>
      <point x="285" y="30"/>
      <point x="279" y="61"/>
      <point x="277" y="96" type="curve" smooth="yes"/>
      <point x="274" y="152"/>
      <point x="268" y="241"/>
      <point x="247" y="267" type="curve" smooth="yes"/>
      <point x="236" y="281"/>
      <point x="216" y="287"/>
      <point x="203" y="287" type="curve" smooth="yes"/>
      <point x="197" y="287" type="line" smooth="yes"/>
      <point x="181" y="287"/>
      <point x="180" y="283"/>
      <point x="180" y="270" type="curve" smooth="yes"/>
      <point x="180" y="22" type="line" smooth="yes"/>
      <point x="180" y="19"/>
      <point x="180" y="17"/>
      <point x="180" y="15" type="curve" smooth="yes"/>
      <point x="180" y="2"/>
      <point x="179" y="0"/>
      <point x="161" y="0" type="curve" smooth="yes"/>
      <point x="59" y="0" type="line" smooth="yes"/>
      <point x="55" y="0"/>
      <point x="52" y="0"/>
      <point x="50" y="0" type="curve" smooth="yes"/>
      <point x="42" y="0"/>
      <point x="40" y="1"/>
      <point x="40" y="14" type="curve" smooth="yes"/>
      <point x="40" y="685" type="line" smooth="yes"/>
      <point x="40" y="700"/>
      <point x="44" y="700"/>
      <point x="58" y="700" type="curve" smooth="yes"/>
      <point x="200" y="700" type="line" smooth="yes"/>
      <point x="248" y="700"/>
      <point x="293" y="699"/>
      <point x="331" y="684" type="curve" smooth="yes"/>
      <point x="395" y="658"/>
      <point x="444" y="603"/>
      <point x="444" y="498" type="curve" smooth="yes"/>
      <point x="444" y="428"/>
      <point x="413" y="392"/>
      <point x="376" y="370" type="curve" smooth="yes"/>
      <point x="366" y="364"/>
      <point x="347" y="354"/>
      <point x="347" y="350" type="curve" smooth="yes"/>
      <point x="347" y="346"/>
      <point x="362" y="342"/>
    </contour>
  </outline>
</glyph>
<glyph name="S" format="2">
  <advance width="508"/>
  <unicode hex="0053"/>
  <anchor x="254" y="700" name="top"/>
  <anchor x="264" y="0" name="bottom"/>
  <anchor x="264" y="0" name="cedilla"/>
  <outline>
    <contour>
      <point x="183" y="263" type="curve" smooth="yes"/>
      <point x="185" y="182"/>
      <point x="203" y="130"/>
      <point x="263" y="130" type="curve" smooth="yes"/>
      <point x="298" y="130"/>
      <point x="324" y="156"/>
      <point x="324" y="191" type="curve" smooth="yes"/>
      <point x="324" y="315"/>
      <point x="56" y="298"/>
      <point x="56" y="529" type="curve" smooth="yes"/>
      <point x="56" y="623"/>
      <point x="125" y="710"/>
      <point x="254" y="710" type="curve" smooth="yes"/>
      <point x="412" y="710"/>
      <point x="452" y="584"/>
      <point x="452" y="467" type="curve" smooth="yes"/>
      <point x="452" y="457"/>
      <point x="449" y="455"/>
      <point x="439" y="455" type="curve" smooth="yes"/>
      <point x="339" y="455" type="line" smooth="yes"/>
      <point x="327" y="455"/>
      <point x="322" y="455"/>
      <point x="322" y="467" type="curve" smooth="yes"/>
      <point x="321" y="523"/>
      <point x="312" y="575"/>
      <point x="254" y="575" type="curve" smooth="yes"/>
      <point x="228" y="575"/>
      <point x="206" y="556"/>
      <point x="206" y="526" type="curve" smooth="yes"/>
      <point x="206" y="409"/>
      <point x="478" y="434"/>
      <point x="478" y="190" type="curve" smooth="yes"/>
      <point x="478" y="72"/>
      <point x="415" y="-10"/>
      <point x="264" y="-10" type="curve" smooth="yes"/>
      <point x="97" y="-10"/>
      <point x="30" y="118"/>
      <point x="30" y="261" type="curve" smooth="yes"/>
      <point x="30" y="276"/>
      <point x="34" y="279"/>
      <point x="50" y="279" type="curve" smooth="yes"/>
      <point x="169" y="279" type="line" smooth="yes"/>
      <point x="179" y="279"/>
      <point x="183" y="274"/>
    </contour>
  </outline>
</glyph>
<glyph name="T" format="2">
  <advance width="490"/>
  <unicode hex="0054"/>
  <anchor x="241" y="700" name="top"/>
  <anchor x="244" y="0" name="bottom"/>
  <anchor x="244" y="0" name="cedilla"/>
  <outline>
    <contour>
      <point x="20" y="570" type="curve" smooth="yes"/>
      <point x="20" y="681" type="line" smooth="yes"/>
      <point x="20" y="699"/>
      <point x="22" y="700"/>
      <point x="39" y="700" type="curve" smooth="yes"/>
      <point x="454" y="700" type="line" smooth="yes"/>
      <point x="469" y="700"/>
      <point x="470" y="697"/>
      <point x="470" y="683" type="curve" smooth="yes"/>
      <point x="470" y="575" type="line" smooth="yes"/>
      <point x="470" y="559"/>
      <point x="469" y="555"/>
      <point x="452" y="555" type="curve" smooth="yes"/>
      <point x="338" y="555" type="line" smooth="yes"/>
      <point x="321" y="555"/>
      <point x="320" y="548"/>
      <point x="320" y="533" type="curve" smooth="yes"/>
      <point x="320" y="13" type="line" smooth="yes"/>
      <point x="320" y="2"/>
      <point x="319" y="0"/>
      <point x="308" y="0" type="curve" smooth="yes"/>
      <point x="177" y="0" type="line" smooth="yes"/>
      <point x="166" y="0"/>
      <point x="165" y="3"/>
      <point x="165" y="13" type="curve" smooth="yes"/>
      <point x="165" y="535" type="line" smooth="yes"/>
      <point x="165" y="555"/>
      <point x="165" y="555"/>
      <point x="145" y="555" type="curve" smooth="yes"/>
      <point x="37" y="555" type="line" smooth="yes"/>
      <point x="22" y="555"/>
      <point x="20" y="555"/>
    </contour>
  </outline>
</glyph>
<glyph name="U" format="2">
  <advance width="490"/>
  <unicode hex="0055"/>
  <anchor x="249" y="700" name="top"/>
  <anchor x="245" y="0" name="bottom"/>
  <anchor x="245" y="0" name="cedilla"/>
  <outline>
    <contour>
      <point x="53" y="700" type="curve" smooth="yes"/>
      <point x="160" y="700" type="line" smooth="yes"/>
      <point x="177" y="700"/>
      <point x="180" y="697"/>
      <point x="180" y="679" type="curve" smooth="yes"/>
      <point x="180" y="235" type="line" smooth="yes"/>
      <point x="180" y="159"/>
      <point x="205" y="135"/>
      <point x="245" y="135" type="curve" smooth="yes"/>
      <point x="295" y="135"/>
      <point x="310" y="159"/>
      <point x="310" y="235" type="curve" smooth="yes"/>
      <point x="310" y="685" type="line" smooth="yes"/>
      <point x="310" y="697"/>
      <point x="312" y="700"/>
      <point x="324" y="700" type="curve" smooth="yes"/>
      <point x="432" y="700" type="line" smooth="yes"/>
      <point x="449" y="700"/>
      <point x="450" y="697"/>
      <point x="450" y="680" type="curve" smooth="yes"/>
      <point x="450" y="220" type="line" smooth="yes"/>
      <point x="450" y="51"/>
      <point x="390" y="-10"/>
      <point x="245" y="-10" type="curve" smooth="yes"/>
      <point x="100" y="-10"/>
      <point x="40" y="51"/>
      <point x="40" y="220" type="curve" smooth="yes"/>
      <point x="40" y="685" type="line" smooth="yes"/>
      <point x="40" y="696"/>
      <point x="42" y="700"/>
    </contour>
  </outline>
</glyph>
<glyph name="V" format="2">
  <advance width="510"/>
  <unicode hex="0056"/>
  <anchor x="255" y="700" name="top"/>
  <anchor x="256" y="0" name="bottom"/>
  <outline>
    <contour>
      <point x="266" y="357" type="curve" smooth="yes"/>
      <point x="330" y="674" type="line" smooth="yes"/>
      <point x="334" y="696"/>
      <point x="332" y="700"/>
      <point x="359" y="700" type="curve" smooth="yes"/>
      <point x="473" y="700" type="line" smooth="yes"/>
      <point x="487" y="700"/>
      <point x="490" y="698"/>
      <point x="490" y="693" type="curve" smooth="yes"/>
      <point x="490" y="689"/>
      <point x="488" y="684"/>
      <point x="486" y="676" type="curve" smooth="yes"/>
      <point x="321" y="16" type="line" smooth="yes"/>
      <point x="317" y="1"/>
      <point x="318" y="0"/>
      <point x="299" y="0" type="curve" smooth="yes"/>
      <point x="210" y="0" type="line" smooth="yes"/>
      <point x="194" y="0"/>
      <point x="192" y="6"/>
      <point x="189" y="18" type="curve" smooth="yes"/>
      <point x="23" y="682" type="line" smooth="yes"/>
      <point x="22" y="687"/>
      <point x="20" y="691"/>
      <point x="20" y="694" type="curve" smooth="yes"/>
      <point x="20" y="700"/>
      <point x="24" y="700"/>
      <point x="34" y="700" type="curve" smooth="yes"/>
      <point x="37" y="700"/>
      <point x="40" y="700"/>
      <point x="43" y="700" type="curve" smooth="yes"/>
      <point x="153" y="700" type="line" smooth="yes"/>
      <point x="176" y="700"/>
      <point x="175" y="699"/>
      <point x="179" y="680" type="curve" smooth="yes"/>
      <point x="244" y="360" type="line" smooth="yes"/>
      <point x="248" y="342"/>
      <point x="249" y="329"/>
      <point x="255" y="329" type="curve" smooth="yes"/>
      <point x="262" y="329"/>
      <point x="263" y="342"/>
    </contour>
  </outline>
</glyph>
<glyph name="W" format="2">
  <advance width="784"/>
  <unicode hex="0057"/>
  <anchor x="390" y="700" name="top"/>
  <anchor x="390" y="0" name="bottom"/>
  <outline>
    <contour>
      <point x="545" y="386" type="curve" smooth="yes"/>
      <point x="616" y="675" type="line" smooth="yes"/>
      <point x="621" y="696"/>
      <point x="619" y="700"/>
      <point x="646" y="700" type="curve" smooth="yes"/>
      <point x="745" y="700" type="line" smooth="yes"/>
      <point x="761" y="700"/>
      <point x="764" y="698"/>
      <point x="764" y="693" type="curve" smooth="yes"/>
      <point x="764" y="689"/>
      <point x="762" y="682"/>
      <point x="760" y="673" type="curve" smooth="yes"/>
      <point x="593" y="24" type="line" smooth="yes"/>
      <point x="590" y="10"/>
      <point x="586" y="0"/>
      <point x="568" y="0" type="curve" smooth="yes"/>
      <point x="492" y="0" type="line" smooth="yes"/>
      <point x="465" y="0"/>
      <point x="466" y="2"/>
      <point x="462" y="24" type="curve" smooth="yes"/>
      <point x="403" y="330" type="line" smooth="yes"/>
      <point x="397" y="360"/>
      <point x="394" y="369"/>
      <point x="392" y="369" type="curve" smooth="yes"/>
      <point x="389" y="369"/>
      <point x="387" y="360"/>
      <point x="381" y="329" type="curve" smooth="yes"/>
      <point x="323" y="33" type="line" smooth="yes"/>
      <point x="318" y="7"/>
      <point x="315" y="0"/>
      <point x="300" y="0" type="curve" smooth="yes"/>
      <point x="227" y="0" type="line" smooth="yes"/>
      <point x="203" y="0"/>
      <point x="196" y="5"/>
      <point x="189" y="31" type="curve" smooth="yes"/>
      <point x="23" y="676" type="line" smooth="yes"/>
      <point x="21" y="684"/>
      <point x="20" y="688"/>
      <point x="20" y="692" type="curve" smooth="yes"/>
      <point x="20" y="700"/>
      <point x="26" y="700"/>
      <point x="47" y="700" type="curve" smooth="yes"/>
      <point x="136" y="700" type="line" smooth="yes"/>
      <point x="160" y="700"/>
      <point x="165" y="688"/>
      <point x="171" y="663" type="curve" smooth="yes"/>
      <point x="240" y="380" type="line" smooth="yes"/>
      <point x="246" y="355"/>
      <point x="249" y="346"/>
      <point x="252" y="346" type="curve" smooth="yes"/>
      <point x="255" y="346"/>
      <point x="257" y="353"/>
      <point x="263" y="377" type="curve" smooth="yes"/>
      <point x="332" y="677" type="line" smooth="yes"/>
      <point x="337" y="700"/>
      <point x="338" y="700"/>
      <point x="367" y="700" type="curve" smooth="yes"/>
      <point x="425" y="700" type="line" smooth="yes"/>
      <point x="444" y="700"/>
      <point x="448" y="695"/>
      <point x="453" y="672" type="curve" smooth="yes"/>
      <point x="519" y="389" type="line" smooth="yes"/>
      <point x="526" y="359"/>
      <point x="529" y="348"/>
      <point x="532" y="348" type="curve" smooth="yes"/>
      <point x="535" y="348"/>
      <point x="538" y="357"/>
    </contour>
  </outline>
</glyph>
<glyph name="X" format="2">
  <advance width="444"/>
  <unicode hex="0058"/>
  <anchor x="223" y="700" name="top"/>
  <anchor x="220" y="0" name="bottom"/>
  <outline>
    <contour>
      <point x="287" y="700" type="curve" smooth="yes"/>
      <point x="384" y="700" type="line" smooth="yes"/>
      <point x="403" y="700"/>
      <point x="409" y="698"/>
      <point x="409" y="692" type="curve" smooth="yes"/>
      <point x="409" y="687"/>
      <point x="405" y="680"/>
      <point x="401" y="669" type="curve" smooth="yes"/>
      <point x="308" y="405" type="line" smooth="yes"/>
      <point x="301" y="385"/>
      <point x="298" y="369"/>
      <point x="298" y="355" type="curve" smooth="yes"/>
      <point x="298" y="330"/>
      <point x="307" y="309"/>
      <point x="320" y="275" type="curve" smooth="yes"/>
      <point x="415" y="32" type="line" smooth="yes"/>
      <point x="419" y="20"/>
      <point x="424" y="13"/>
      <point x="424" y="8" type="curve" smooth="yes"/>
      <point x="424" y="2"/>
      <point x="417" y="0"/>
      <point x="394" y="0" type="curve" smooth="yes"/>
      <point x="301" y="0" type="line" smooth="yes"/>
      <point x="273" y="0"/>
      <point x="276" y="12"/>
      <point x="270" y="32" type="curve" smooth="yes"/>
      <point x="243" y="137" type="line" smooth="yes"/>
      <point x="235" y="165"/>
      <point x="228" y="179"/>
      <point x="221" y="179" type="curve" smooth="yes"/>
      <point x="214" y="179"/>
      <point x="208" y="165"/>
      <point x="199" y="137" type="curve" smooth="yes"/>
      <point x="167" y="23" type="line" smooth="yes"/>
      <point x="161" y="5"/>
      <point x="162" y="0"/>
      <point x="137" y="0" type="curve" smooth="yes"/>
      <point x="49" y="0" type="line" smooth="yes"/>
      <point x="28" y="0"/>
      <point x="20" y="5"/>
      <point x="20" y="14" type="curve" smooth="yes"/>
      <point x="20" y="22"/>
      <point x="25" y="32"/>
      <point x="31" y="46" type="curve" smooth="yes"/>
      <point x="137" y="308" type="line" smooth="yes"/>
      <point x="145" y="328"/>
      <point x="148" y="341"/>
      <point x="148" y="354" type="curve" smooth="yes"/>
      <point x="148" y="369"/>
      <point x="143" y="384"/>
      <point x="134" y="407" type="curve" smooth="yes"/>
      <point x="30" y="668" type="line" smooth="yes"/>
      <point x="25" y="680"/>
      <point x="21" y="687"/>
      <point x="21" y="692" type="curve" smooth="yes"/>
      <point x="21" y="698"/>
      <point x="28" y="700"/>
      <point x="51" y="700" type="curve" smooth="yes"/>
      <point x="138" y="700" type="line" smooth="yes"/>
      <point x="170" y="700"/>
      <point x="167" y="687"/>
      <point x="174" y="664" type="curve" smooth="yes"/>
      <point x="207" y="557" type="line" smooth="yes"/>
      <point x="209" y="548"/>
      <point x="214" y="544"/>
      <point x="220" y="544" type="curve" smooth="yes"/>
      <point x="227" y="544"/>
      <point x="234" y="550"/>
      <point x="236" y="561" type="curve" smooth="yes"/>
      <point x="262" y="680" type="line" smooth="yes"/>
      <point x="266" y="697"/>
      <point x="265" y="700"/>
    </contour>
  </outline>
</glyph>
<glyph name="Y" format="2">
  <advance width="395"/>
  <unicode hex="0059"/>
  <anchor x="199" y="700" name="top"/>
  <anchor x="199" y="0" name="bottom"/>
  <outline>
    <contour>
      <point x="251" y="700" type="curve" smooth="yes"/>
      <point x="360" y="700" type="line" smooth="yes"/>
      <point x="371" y="700"/>
      <point x="375" y="699"/>
      <point x="375" y="694" type="curve" smooth="yes"/>
      <point x="375" y="692"/>
      <point x="374" y="689"/>
      <point x="373" y="685" type="curve" smooth="yes"/>
      <point x="272" y="296" type="line" smooth="yes"/>
      <point x="268" y="279"/>
      <point x="266" y="262"/>
      <point x="266" y="239" type="curve" smooth="yes"/>
      <point x="266" y="13" type="line" smooth="yes"/>
      <point x="266" y="1"/>
      <point x="264" y="0"/>
      <point x="252" y="0" type="curve" smooth="yes"/>
      <point x="152" y="0" type="line" smooth="yes"/>
      <point x="141" y="0"/>
      <point x="132" y="0"/>
      <point x="132" y="12" type="curve" smooth="yes"/>
      <point x="132" y="252" type="line" smooth="yes"/>
      <point x="132" y="269"/>
      <point x="129" y="280"/>
      <point x="126" y="292" type="curve" smooth="yes"/>
      <point x="23" y="673" type="line" smooth="yes"/>
      <point x="21" y="680"/>
      <point x="20" y="685"/>
      <point x="20" y="689" type="curve" smooth="yes"/>
      <point x="20" y="696"/>
      <point x="24" y="700"/>
      <point x="40" y="700" type="curve" smooth="yes"/>
      <point x="137" y="700" type="line" smooth="yes"/>
      <point x="161" y="700"/>
      <point x="157" y="693"/>
      <point x="161" y="674" type="curve" smooth="yes"/>
      <point x="189" y="520" type="line" smooth="yes"/>
      <point x="192" y="506"/>
      <point x="195" y="498"/>
      <point x="199" y="498" type="curve" smooth="yes"/>
      <point x="203" y="498"/>
      <point x="206" y="505"/>
      <point x="209" y="519" type="curve" smooth="yes"/>
      <point x="240" y="692" type="line" smooth="yes"/>
      <point x="242" y="700"/>
      <point x="242" y="700"/>
    </contour>
  </outline>
</glyph>
<glyph name="Z" format="2">
  <advance width="425"/>
  <unicode hex="005A"/>
  <anchor x="218" y="700" name="top"/>
  <anchor x="203" y="0" name="bottom"/>
  <outline>
    <contour>
      <point x="40" y="562" type="curve" smooth="yes"/>
      <point x="40" y="684" type="line" smooth="yes"/>
      <point x="40" y="696"/>
      <point x="42" y="700"/>
      <point x="54" y="700" type="curve" smooth="yes"/>
      <point x="370" y="700" type="line" smooth="yes"/>
      <point x="387" y="700"/>
      <point x="392" y="696"/>
      <point x="392" y="689" type="curve" smooth="yes"/>
      <point x="392" y="684"/>
      <point x="391" y="676"/>
      <point x="388" y="666" type="curve" smooth="yes"/>
      <point x="224" y="153" type="line" smooth="yes"/>
      <point x="223" y="150"/>
      <point x="223" y="148"/>
      <point x="223" y="146" type="curve" smooth="yes"/>
      <point x="223" y="141"/>
      <point x="227" y="140"/>
      <point x="237" y="140" type="curve" smooth="yes"/>
      <point x="387" y="140" type="line" smooth="yes"/>
      <point x="402" y="140"/>
      <point x="405" y="139"/>
      <point x="405" y="123" type="curve" smooth="yes"/>
      <point x="405" y="18" type="line" smooth="yes"/>
      <point x="405" y="1"/>
      <point x="398" y="0"/>
      <point x="383" y="0" type="curve" smooth="yes"/>
      <point x="36" y="0" type="line" smooth="yes"/>
      <point x="35" y="0"/>
      <point x="35" y="0"/>
      <point x="34" y="0" type="curve" smooth="yes"/>
      <point x="27" y="0"/>
      <point x="20" y="0"/>
      <point x="20" y="6" type="curve" smooth="yes"/>
      <point x="20" y="16"/>
      <point x="22" y="21"/>
      <point x="24" y="28" type="curve" smooth="yes"/>
      <point x="193" y="539" type="line" smooth="yes"/>
      <point x="194" y="541"/>
      <point x="194" y="544"/>
      <point x="194" y="545" type="curve" smooth="yes"/>
      <point x="194" y="550"/>
      <point x="190" y="550"/>
      <point x="180" y="550" type="curve" smooth="yes"/>
      <point x="56" y="550" type="line" smooth="yes"/>
      <point x="45" y="550"/>
      <point x="40" y="551"/>
    </contour>
  </outline>
</glyph>
<glyph name="bracketleft" format="2">
  <advance width="281"/>
  <unicode hex="005B"/>
  <outline>
    <contour>
      <point x="190" y="605" type="curve" smooth="yes"/>
      <point x="190" y="104" type="line" smooth="yes"/>
      <point x="190" y="78"/>
      <point x="193" y="70"/>
      <point x="218" y="70" type="curve" smooth="yes"/>
      <point x="235" y="70" type="line" smooth="yes"/>
      <point x="258" y="70"/>
      <point x="261" y="69"/>
      <point x="261" y="45" type="curve" smooth="yes"/>
      <point x="261" y="1" type="line" smooth="yes"/>
      <point x="261" y="-29"/>
      <point x="259" y="-30"/>
      <point x="228" y="-30" type="curve" smooth="yes"/>
      <point x="81" y="-30" type="line" smooth="yes"/>
      <point x="48" y="-30"/>
      <point x="40" y="-27"/>
      <point x="40" y="5" type="curve" smooth="yes"/>
      <point x="40" y="686" type="line" smooth="yes"/>
      <point x="40" y="722"/>
      <point x="43" y="730"/>
      <point x="78" y="730" type="curve" smooth="yes"/>
      <point x="216" y="730" type="line" smooth="yes"/>
      <point x="241" y="730"/>
      <point x="261" y="730"/>
      <point x="261" y="702" type="curve" smooth="yes"/>
      <point x="261" y="670" type="line" smooth="yes"/>
      <point x="261" y="640"/>
      <point x="259" y="630"/>
      <point x="235" y="630" type="curve" smooth="yes"/>
      <point x="217" y="630" type="line" smooth="yes"/>
      <point x="193" y="630"/>
      <point x="190" y="630"/>
    </contour>
  </outline>
</glyph>
<glyph name="backslash" format="2">
  <advance width="495"/>
  <unicode hex="005C"/>
  <outline>
    <contour>
      <point x="60" y="700" type="curve" smooth="yes"/>
      <point x="117" y="700" type="line" smooth="yes"/>
      <point x="161" y="700"/>
      <point x="162" y="696"/>
      <point x="175" y="666" type="curve" smooth="yes"/>
      <point x="463" y="26" type="line" smooth="yes"/>
      <point x="473" y="3"/>
      <point x="473" y="0"/>
      <point x="438" y="0" type="curve" smooth="yes"/>
      <point x="372" y="0" type="line" smooth="yes"/>
      <point x="336" y="0"/>
      <point x="334" y="2"/>
      <point x="323" y="27" type="curve" smooth="yes"/>
      <point x="30" y="677" type="line" smooth="yes"/>
      <point x="20" y="699"/>
      <point x="27" y="700"/>
    </contour>
  </outline>
</glyph>
<glyph name="bracketright" format="2">
  <advance width="281"/>
  <unicode hex="005D"/>
  <outline>
    <contour>
      <point x="91" y="95" type="curve" smooth="yes"/>
      <point x="91" y="596" type="line" smooth="yes"/>
      <point x="91" y="622"/>
      <point x="88" y="630"/>
      <point x="63" y="630" type="curve" smooth="yes"/>
      <point x="46" y="630" type="line" smooth="yes"/>
      <point x="23" y="630"/>
      <point x="20" y="631"/>
      <point x="20" y="655" type="curve" smooth="yes"/>
      <point x="20" y="699" type="line" smooth="yes"/>
      <point x="20" y="729"/>
      <point x="22" y="730"/>
      <point x="53" y="730" type="curve" smooth="yes"/>
      <point x="200" y="730" type="line" smooth="yes"/>
      <point x="233" y="730"/>
      <point x="241" y="727"/>
      <point x="241" y="695" type="curve" smooth="yes"/>
      <point x="241" y="14" type="line" smooth="yes"/>
      <point x="241" y="-22"/>
      <point x="238" y="-30"/>
      <point x="203" y="-30" type="curve" smooth="yes"/>
      <point x="65" y="-30" type="line" smooth="yes"/>
      <point x="40" y="-30"/>
      <point x="20" y="-30"/>
      <point x="20" y="-2" type="curve" smooth="yes"/>
      <point x="20" y="30" type="line" smooth="yes"/>
      <point x="20" y="60"/>
      <point x="22" y="70"/>
      <point x="46" y="70" type="curve" smooth="yes"/>
      <point x="64" y="70" type="line" smooth="yes"/>
      <point x="88" y="70"/>
      <point x="91" y="70"/>
    </contour>
  </outline>
</glyph>
<glyph name="asciicircum" format="2">
  <advance width="510"/>
  <unicode hex="005E"/>
  <outline>
    <contour>
      <point x="241" y="567" type="curve" smooth="yes"/>
      <point x="207" y="488" type="line" smooth="yes"/>
      <point x="198" y="466"/>
      <point x="199" y="460"/>
      <point x="166" y="460" type="curve" smooth="yes"/>
      <point x="79" y="460" type="line" smooth="yes"/>
      <point x="40" y="460"/>
      <point x="49" y="469"/>
      <point x="60" y="492" type="curve" smooth="yes"/>
      <point x="153" y="684" type="line" smooth="yes"/>
      <point x="163" y="706"/>
      <point x="168" y="710"/>
      <point x="201" y="710" type="curve" smooth="yes"/>
      <point x="312" y="710" type="line" smooth="yes"/>
      <point x="348" y="710"/>
      <point x="348" y="705"/>
      <point x="359" y="681" type="curve" smooth="yes"/>
      <point x="450" y="492" type="line" smooth="yes"/>
      <point x="461" y="468"/>
      <point x="466" y="460"/>
      <point x="426" y="460" type="curve" smooth="yes"/>
      <point x="352" y="460" type="line" smooth="yes"/>
      <point x="313" y="460"/>
      <point x="313" y="464"/>
      <point x="302" y="491" type="curve" smooth="yes"/>
      <point x="268" y="571" type="line" smooth="yes"/>
      <point x="253" y="605"/>
      <point x="254" y="599"/>
    </contour>
  </outline>
</glyph>
<glyph name="underscore" format="2">
  <advance width="350"/>
  <unicode hex="005F"/>
  <outline>
    <contour>
      <point x="0" y="-163" type="curve" smooth="yes"/>
      <point x="0" y="-100" type="line" smooth="yes"/>
      <point x="0" y="-83"/>
      <point x="4" y="-78"/>
      <point x="20" y="-78" type="curve" smooth="yes"/>
      <point x="328" y="-78" type="line" smooth="yes"/>
      <point x="348" y="-78"/>
      <point x="350" y="-81"/>
      <point x="350" y="-102" type="curve" smooth="yes"/>
      <point x="350" y="-162" type="line" smooth="yes"/>
      <point x="350" y="-180"/>
      <point x="347" y="-183"/>
      <point x="328" y="-183" type="curve" smooth="yes"/>
      <point x="20" y="-183" type="line" smooth="yes"/>
      <point x="0" y="-183"/>
      <point x="0" y="-183"/>
    </contour>
  </outline>
</glyph>
<glyph name="grave" format="2">
  <advance width="286"/>
  <unicode hex="0060"/>
  <outline>
    <contour>
      <point x="36" y="659" type="curve" smooth="yes"/>
      <point x="108" y="719" type="line" smooth="yes"/>
      <point x="130" y="737"/>
      <point x="131" y="731"/>
      <point x="150" y="711" type="curve" smooth="yes"/>
      <point x="255" y="599" type="line" smooth="yes"/>
      <point x="279" y="573"/>
      <point x="275" y="573"/>
      <point x="250" y="548" type="curve" smooth="yes"/>
      <point x="210" y="508" type="line" smooth="yes"/>
      <point x="186" y="484"/>
      <point x="185" y="489"/>
      <point x="159" y="510" type="curve" smooth="yes"/>
      <point x="36" y="613" type="line" smooth="yes"/>
      <point x="8" y="637"/>
      <point x="8" y="635"/>
    </contour>
  </outline>
</glyph>
<glyph name="braceleft" format="2">
  <advance width="281"/>
  <unicode hex="007B"/>
  <outline>
    <contour>
      <point x="208" y="590" type="curve" smooth="yes"/>
      <point x="208" y="550" type="line" smooth="yes"/>
      <point x="208" y="475.481"/>
      <point x="201.963" y="408.02"/>
      <point x="173.589" y="368" type="curve" smooth="yes"/>
      <point x="157.551" y="345.379"/>
      <point x="159.552" y="351.646"/>
      <point x="175.893" y="330" type="curve" smooth="yes"/>
      <point x="209.281" y="285.77"/>
      <point x="208" y="225.192"/>
      <point x="208" y="150" type="curve" smooth="yes"/>
      <point x="208" y="110" type="line" smooth="yes"/>
      <point x="208" y="84"/>
      <point x="226" y="70"/>
      <point x="256" y="70" type="curve" smooth="yes"/>
      <point x="270.401" y="70"/>
      <point x="271" y="60.5127"/>
      <point x="271" y="46" type="curve" smooth="yes"/>
      <point x="271" y="-5" type="line" smooth="yes"/>
      <point x="271" y="-24.9326"/>
      <point x="271" y="-30"/>
      <point x="251" y="-30" type="curve" smooth="yes"/>
      <point x="201" y="-30" type="line" smooth="yes"/>
      <point x="127" y="-30"/>
      <point x="68" y="-9"/>
      <point x="68" y="90" type="curve" smooth="yes"/>
      <point x="68" y="210" type="line" smooth="yes"/>
      <point x="68" y="252.639"/>
      <point x="57.5645" y="276.726"/>
      <point x="39.3421" y="288" type="curve" smooth="yes"/>
      <point x="25.9524" y="296.284"/>
      <point x="20" y="290.378"/>
      <point x="20" y="313" type="curve" smooth="yes"/>
      <point x="20" y="390" type="line" smooth="yes"/>
      <point x="20" y="408.89"/>
      <point x="25.1763" y="404.251"/>
      <point x="37" y="410.644" type="curve" smooth="yes"/>
      <point x="56.6676" y="421.279"/>
      <point x="68" y="445.566"/>
      <point x="68" y="490" type="curve" smooth="yes"/>
      <point x="68" y="610" type="line" smooth="yes"/>
      <point x="68" y="709"/>
      <point x="127" y="730"/>
      <point x="201" y="730" type="curve" smooth="yes"/>
      <point x="252" y="730" type="line" smooth="yes"/>
      <point x="267.538" y="730"/>
      <point x="271" y="723.57"/>
      <point x="271" y="707" type="curve" smooth="yes"/>
      <point x="271" y="655" type="line" smooth="yes"/>
      <point x="271" y="638.285"/>
      <point x="273.459" y="630"/>
      <point x="256" y="630" type="curve" smooth="yes"/>
      <point x="226" y="630"/>
      <point x="208" y="616"/>
    </contour>
  </outline>
</glyph>
<glyph name="bar" format="2">
  <advance width="304"/>
  <unicode hex="007C"/>
  <outline>
    <contour>
      <point x="112" y="730" type="curve" smooth="yes"/>
      <point x="197" y="730" type="line" smooth="yes"/>
      <point x="223.368" y="730"/>
      <point x="224" y="724.521"/>
      <point x="224" y="698" type="curve" smooth="yes"/>
      <point x="224" y="-5" type="line" smooth="yes"/>
      <point x="224" y="-29.9156"/>
      <point x="224" y="-30"/>
      <point x="199" y="-30" type="curve" smooth="yes"/>
      <point x="114" y="-30" type="line" smooth="yes"/>
      <point x="83.5781" y="-30"/>
      <point x="80" y="-29.4625"/>
      <point x="80" y="1" type="curve" smooth="yes"/>
      <point x="80" y="696" type="line" smooth="yes"/>
      <point x="80" y="724.468"/>
      <point x="84.493" y="730"/>
    </contour>
  </outline>
</glyph>
<glyph name="braceright" format="2">
  <advance width="281"/>
  <unicode hex="007D"/>
  <outline>
    <contour>
      <point x="73" y="590" type="line" smooth="yes"/>
      <point x="73" y="616"/>
      <point x="55" y="630"/>
      <point x="25" y="630" type="curve" smooth="yes"/>
      <point x="7.54102" y="630"/>
      <point x="10" y="638.285"/>
      <point x="10" y="655" type="curve" smooth="yes"/>
      <point x="10" y="707" type="line" smooth="yes"/>
      <point x="10" y="723.57"/>
      <point x="13.4619" y="730"/>
      <point x="29" y="730" type="curve" smooth="yes"/>
      <point x="80" y="730" type="line" smooth="yes"/>
      <point x="154" y="730"/>
      <point x="213" y="709"/>
      <point x="213" y="610" type="curve" smooth="yes"/>
      <point x="213" y="490" type="line" smooth="yes"/>
      <point x="213" y="445.566"/>
      <point x="224.332" y="421.279"/>
      <point x="244" y="410.645" type="curve" smooth="yes"/>
      <point x="255.823" y="404.251"/>
      <point x="261" y="408.89"/>
      <point x="261" y="390" type="curve" smooth="yes"/>
      <point x="261" y="313" type="line" smooth="yes"/>
      <point x="261" y="290.378"/>
      <point x="255.048" y="296.284"/>
      <point x="241.658" y="288" type="curve" smooth="yes"/>
      <point x="223.436" y="276.727"/>
      <point x="213" y="252.639"/>
      <point x="213" y="210" type="curve" smooth="yes"/>
      <point x="213" y="90" type="line" smooth="yes"/>
      <point x="213" y="-9"/>
      <point x="154" y="-30"/>
      <point x="80" y="-30" type="curve" smooth="yes"/>
      <point x="30" y="-30" type="line" smooth="yes"/>
      <point x="10" y="-30"/>
      <point x="10" y="-24.9326"/>
      <point x="10" y="-5" type="curve" smooth="yes"/>
      <point x="10" y="46" type="line" smooth="yes"/>
      <point x="10" y="60.5127"/>
      <point x="10.5986" y="70"/>
      <point x="25" y="70" type="curve" smooth="yes"/>
      <point x="55" y="70"/>
      <point x="73" y="84"/>
      <point x="73" y="110" type="curve" smooth="yes"/>
      <point x="73" y="150" type="line" smooth="yes"/>
      <point x="73" y="225.192"/>
      <point x="71.7188" y="285.771"/>
      <point x="105.107" y="330" type="curve" smooth="yes"/>
      <point x="121.447" y="351.646"/>
      <point x="123.448" y="345.379"/>
      <point x="107.411" y="368" type="curve" smooth="yes"/>
      <point x="79.0371" y="408.021"/>
      <point x="73" y="475.481"/>
      <point x="73" y="550" type="curve" smooth="yes"/>
    </contour>
  </outline>
</glyph>
<glyph name="asciitilde" format="2">
  <advance width="575"/>
  <unicode hex="007E"/>
  <outline>
    <contour>
      <point x="178" y="176.709" type="curve" smooth="yes"/>
      <point x="81" y="180.328" type="line" smooth="yes"/>
      <point x="64.057" y="180.961"/>
      <point x="62.1443" y="179.371"/>
      <point x="60.7694" y="197" type="curve" smooth="yes"/>
      <point x="60.2565" y="203.576"/>
      <point x="60" y="210.442"/>
      <point x="60" y="215" type="curve" smooth="yes"/>
      <point x="60" y="236"/>
      <point x="65.8475" y="271.115"/>
      <point x="84" y="295" type="curve" smooth="yes"/>
      <point x="103" y="320"/>
      <point x="134" y="337"/>
      <point x="176" y="337" type="curve" smooth="yes"/>
      <point x="225" y="337"/>
      <point x="265.081" y="316.513"/>
      <point x="312" y="294" type="curve" smooth="yes"/>
      <point x="333.475" y="283.696"/>
      <point x="357" y="277"/>
      <point x="365" y="277" type="curve" smooth="yes"/>
      <point x="375" y="277"/>
      <point x="382" y="282"/>
      <point x="382" y="296" type="curve" smooth="yes"/>
      <point x="382" y="311.049"/>
      <point x="366.286" y="323.32"/>
      <point x="391" y="322.412" type="curve" smooth="yes"/>
      <point x="495" y="318.588" type="line" smooth="yes"/>
      <point x="511.433" y="317.984"/>
      <point x="511.678" y="318.411"/>
      <point x="513.508" y="302" type="curve" smooth="yes"/>
      <point x="514.391" y="294.086"/>
      <point x="515" y="285.52"/>
      <point x="515" y="280" type="curve" smooth="yes"/>
      <point x="515" y="260"/>
      <point x="509.28" y="222.515"/>
      <point x="493" y="199" type="curve" smooth="yes"/>
      <point x="475" y="173"/>
      <point x="445" y="162"/>
      <point x="399" y="162" type="curve" smooth="yes"/>
      <point x="355" y="162"/>
      <point x="297.931" y="181.901"/>
      <point x="257" y="205" type="curve" smooth="yes"/>
      <point x="236.364" y="216.646"/>
      <point x="216" y="223"/>
      <point x="206" y="223" type="curve" smooth="yes"/>
      <point x="194" y="223"/>
      <point x="185" y="216"/>
      <point x="185" y="201" type="curve" smooth="yes"/>
      <point x="185" y="184.801"/>
      <point x="206.315" y="175.652"/>
    </contour>
  </outline>
</glyph>
<glyph name="cent" format="2">
  <advance width="472"/>
  <unicode hex="00A2"/>
  <outline>
    <contour>
      <point x="343" y="290" type="curve" smooth="yes"/>
      <point x="408" y="290" type="line" smooth="yes"/>
      <point x="426" y="290"/>
      <point x="432" y="290"/>
      <point x="432" y="273" type="curve" smooth="yes"/>
      <point x="432" y="160"/>
      <point x="416" y="75"/>
      <point x="372" y="34" type="curve" smooth="yes"/>
      <point x="348" y="12"/>
      <point x="322.667" y="-0.222222"/>
      <point x="288" y="-5.92593" type="curve" smooth="yes"/>
      <point x="274.116" y="-8.21021"/>
      <point x="268" y="-4.58289"/>
      <point x="268" y="-22" type="curve" smooth="yes"/>
      <point x="268" y="-71" type="line" smooth="yes"/>
      <point x="268" y="-84.9527"/>
      <point x="268" y="-85"/>
      <point x="254" y="-85" type="curve" smooth="yes"/>
      <point x="217" y="-85" type="line" smooth="yes"/>
      <point x="200.537" y="-85"/>
      <point x="198" y="-84.4559"/>
      <point x="198" y="-68" type="curve" smooth="yes"/>
      <point x="198" y="-24" type="line" smooth="yes"/>
      <point x="198" y="-6.32696"/>
      <point x="194.636" y="-8.90005"/>
      <point x="180" y="-6.55279" type="curve" smooth="yes"/>
      <point x="134.298" y="0.776837"/>
      <point x="106.192" y="19.5176"/>
      <point x="81" y="47" type="curve" smooth="yes"/>
      <point x="32" y="100"/>
      <point x="30" y="236"/>
      <point x="30" y="357" type="curve" smooth="yes"/>
      <point x="30" y="474"/>
      <point x="30" y="586"/>
      <point x="87" y="653" type="curve" smooth="yes"/>
      <point x="107.932" y="676.922"/>
      <point x="140" y="697.156"/>
      <point x="185" y="705.511" type="curve" smooth="yes"/>
      <point x="193.973" y="707.177"/>
      <point x="198" y="709.627"/>
      <point x="198" y="726" type="curve" smooth="yes"/>
      <point x="198" y="743" type="line" smooth="yes"/>
      <point x="198" y="756.017"/>
      <point x="203.069" y="757"/>
      <point x="215" y="757" type="curve" smooth="yes"/>
      <point x="257" y="757" type="line" smooth="yes"/>
      <point x="265.923" y="757"/>
      <point x="268" y="753.522"/>
      <point x="268" y="744" type="curve" smooth="yes"/>
      <point x="268" y="722" type="line" smooth="yes"/>
      <point x="268" y="707.71"/>
      <point x="269.608" y="709.039"/>
      <point x="282" y="707.617" type="curve" smooth="yes"/>
      <point x="335.612" y="701.463"/>
      <point x="366.634" y="683.086"/>
      <point x="392" y="649" type="curve" smooth="yes"/>
      <point x="431" y="597"/>
      <point x="432" y="531"/>
      <point x="432" y="439" type="curve" smooth="yes"/>
      <point x="432" y="414"/>
      <point x="430" y="410"/>
      <point x="409" y="410" type="curve" smooth="yes"/>
      <point x="334" y="410" type="line" smooth="yes"/>
      <point x="323" y="410"/>
      <point x="313" y="415"/>
      <point x="313" y="424" type="curve" smooth="yes"/>
      <point x="313" y="494" type="line" smooth="yes"/>
      <point x="313" y="535"/>
      <point x="312" y="550"/>
      <point x="299" y="570" type="curve" smooth="yes"/>
      <point x="294.724" y="576.414"/>
      <point x="288.802" y="582.828"/>
      <point x="281" y="588.07" type="curve" smooth="yes"/>
      <point x="269.257" y="595.958"/>
      <point x="268" y="595.651"/>
      <point x="268" y="577" type="curve" smooth="yes"/>
      <point x="268" y="121" type="line" smooth="yes"/>
      <point x="268" y="104.194"/>
      <point x="269.849" y="105.003"/>
      <point x="280.306" y="112" type="curve" smooth="yes"/>
      <point x="305.813" y="129.066"/>
      <point x="312" y="162.677"/>
      <point x="312" y="202" type="curve" smooth="yes"/>
      <point x="312" y="263" type="line" smooth="yes"/>
      <point x="312" y="289"/>
      <point x="318" y="290"/>
    </contour>
    <contour>
      <point x="184" y="583.844" type="curve" smooth="yes"/>
      <point x="178.372" y="579.203"/>
      <point x="173.873" y="573.81"/>
      <point x="170" y="568" type="curve" smooth="yes"/>
      <point x="151" y="539"/>
      <point x="151" y="419"/>
      <point x="151" y="354" type="curve" smooth="yes"/>
      <point x="151" y="287"/>
      <point x="153" y="174"/>
      <point x="168" y="139" type="curve" smooth="yes"/>
      <point x="171.905" y="130.321"/>
      <point x="176.94" y="121.831"/>
      <point x="184.739" y="115" type="curve" smooth="yes"/>
      <point x="195.262" y="105.783"/>
      <point x="198" y="104.52"/>
      <point x="198" y="124" type="curve" smooth="yes"/>
      <point x="198" y="575" type="line" smooth="yes"/>
      <point x="198" y="594.964"/>
      <point x="194.986" y="592.902"/>
    </contour>
  </outline>
</glyph>
<glyph name="sterling" format="2">
  <advance width="541"/>
  <unicode hex="00A3"/>
  <outline>
    <contour>
      <point x="119" y="126" type="curve" smooth="yes"/>
      <point x="119" y="95"/>
      <point x="145" y="80"/>
      <point x="183" y="80" type="curve" smooth="yes"/>
      <point x="196.907" y="80"/>
      <point x="208.762" y="83.9473"/>
      <point x="218" y="92.5948" type="curve" smooth="yes"/>
      <point x="228.571" y="102.491"/>
      <point x="234.878" y="112.718"/>
      <point x="224" y="124.268" type="curve" smooth="yes"/>
      <point x="202.8" y="146.778"/>
      <point x="181.416" y="163"/>
      <point x="156" y="163" type="curve" smooth="yes"/>
      <point x="134" y="163"/>
      <point x="119" y="151"/>
    </contour>
    <contour>
      <point x="61" y="324" type="curve" smooth="yes"/>
      <point x="61" y="379" type="line" smooth="yes"/>
      <point x="61" y="402"/>
      <point x="63" y="405"/>
      <point x="85" y="405" type="curve" smooth="yes"/>
      <point x="120" y="405" type="line" smooth="yes"/>
      <point x="140.369" y="405"/>
      <point x="130.61" y="414.47"/>
      <point x="127.122" y="428" type="curve" smooth="yes"/>
      <point x="120.228" y="454.743"/>
      <point x="116" y="483.349"/>
      <point x="116" y="514" type="curve" smooth="yes"/>
      <point x="116" y="649"/>
      <point x="187" y="710"/>
      <point x="316" y="710" type="curve" smooth="yes"/>
      <point x="400" y="710"/>
      <point x="441" y="692"/>
      <point x="473" y="649" type="curve" smooth="yes"/>
      <point x="512" y="597"/>
      <point x="513" y="551"/>
      <point x="513" y="529" type="curve" smooth="yes"/>
      <point x="513" y="504"/>
      <point x="511" y="500"/>
      <point x="490" y="500" type="curve" smooth="yes"/>
      <point x="415" y="500" type="line" smooth="yes"/>
      <point x="404" y="500"/>
      <point x="394" y="505"/>
      <point x="394" y="514" type="curve" smooth="yes"/>
      <point x="394" y="555.261"/>
      <point x="378.407" y="610"/>
      <point x="320" y="610" type="curve" smooth="yes"/>
      <point x="266.826" y="610"/>
      <point x="246" y="576.327"/>
      <point x="246" y="511" type="curve" smooth="yes"/>
      <point x="246" y="480.871"/>
      <point x="252.985" y="453.746"/>
      <point x="263.262" y="428" type="curve" smooth="yes"/>
      <point x="270.298" y="410.375"/>
      <point x="269.911" y="405"/>
      <point x="296" y="405" type="curve" smooth="yes"/>
      <point x="433" y="405" type="line" smooth="yes"/>
      <point x="457" y="405"/>
      <point x="461" y="404"/>
      <point x="461" y="380" type="curve" smooth="yes"/>
      <point x="461" y="316" type="line" smooth="yes"/>
      <point x="461" y="296"/>
      <point x="457" y="295"/>
      <point x="436" y="295" type="curve" smooth="yes"/>
      <point x="346" y="295" type="line" smooth="yes"/>
      <point x="327.839" y="295"/>
      <point x="328.633" y="295.349"/>
      <point x="333.253" y="282" type="curve" smooth="yes"/>
      <point x="341.007" y="259.592"/>
      <point x="346" y="235.919"/>
      <point x="346" y="210" type="curve" smooth="yes"/>
      <point x="346" y="186.619"/>
      <point x="343.616" y="162.85"/>
      <point x="338.612" y="140" type="curve" smooth="yes"/>
      <point x="334.803" y="122.604"/>
      <point x="337.298" y="121.756"/>
      <point x="350" y="113.304" type="curve" smooth="yes"/>
      <point x="366.609" y="102.252"/>
      <point x="381.956" y="95"/>
      <point x="396" y="95" type="curve" smooth="yes"/>
      <point x="412" y="95"/>
      <point x="423" y="102"/>
      <point x="423" y="117" type="curve" smooth="yes"/>
      <point x="423" y="132"/>
      <point x="405" y="151"/>
      <point x="430" y="150" type="curve" smooth="yes"/>
      <point x="506" y="147" type="line" smooth="yes"/>
      <point x="522" y="146"/>
      <point x="523" y="146"/>
      <point x="525" y="130" type="curve" smooth="yes"/>
      <point x="526" y="122"/>
      <point x="526" y="114"/>
      <point x="526" y="108" type="curve" smooth="yes"/>
      <point x="526" y="37"/>
      <point x="491" y="-10"/>
      <point x="410" y="-10" type="curve" smooth="yes"/>
      <point x="373.116" y="-10"/>
      <point x="343.447" y="3.71413"/>
      <point x="318" y="23.4199" type="curve" smooth="yes"/>
      <point x="291.776" y="43.7278"/>
      <point x="297.37" y="42.0232"/>
      <point x="272" y="21.7296" type="curve" smooth="yes"/>
      <point x="247.283" y="1.95811"/>
      <point x="215.865" y="-10"/>
      <point x="177" y="-10" type="curve" smooth="yes"/>
      <point x="101" y="-10"/>
      <point x="40" y="39"/>
      <point x="40" y="113" type="curve" smooth="yes"/>
      <point x="40" y="184"/>
      <point x="80" y="223"/>
      <point x="153" y="223" type="curve" smooth="yes"/>
      <point x="173.481" y="223"/>
      <point x="193.156" y="217.839"/>
      <point x="212" y="209.59" type="curve" smooth="yes"/>
      <point x="233.216" y="200.303"/>
      <point x="236.803" y="203.495"/>
      <point x="224.782" y="221" type="curve" smooth="yes"/>
      <point x="212.94" y="238.246"/>
      <point x="203.859" y="260.501"/>
      <point x="191.078" y="283" type="curve" smooth="yes"/>
      <point x="183.361" y="296.584"/>
      <point x="175.518" y="295"/>
      <point x="154" y="295" type="curve" smooth="yes"/>
      <point x="92" y="295" type="line" smooth="yes"/>
      <point x="66" y="295"/>
      <point x="61" y="298"/>
    </contour>
  </outline>
</glyph>
<glyph name="yen" format="2">
  <advance width="434"/>
  <unicode hex="00A5"/>
  <outline>
    <contour>
      <point x="269" y="700" type="curve" smooth="yes"/>
      <point x="378" y="700" type="line" smooth="yes"/>
      <point x="389" y="700"/>
      <point x="393" y="699"/>
      <point x="393" y="694" type="curve" smooth="yes"/>
      <point x="393" y="692"/>
      <point x="392" y="689"/>
      <point x="391" y="685" type="curve" smooth="yes"/>
      <point x="310.512" y="375" type="line" smooth="yes"/>
      <point x="306.18" y="358.317"/>
      <point x="301.621" y="355"/>
      <point x="324" y="355" type="curve" smooth="yes"/>
      <point x="376" y="355" type="line" smooth="yes"/>
      <point x="400" y="355"/>
      <point x="404" y="354"/>
      <point x="404" y="330" type="curve" smooth="yes"/>
      <point x="404" y="286" type="line" smooth="yes"/>
      <point x="404" y="266"/>
      <point x="400" y="265"/>
      <point x="379" y="265" type="curve" smooth="yes"/>
      <point x="302" y="265" type="line" smooth="yes"/>
      <point x="281.014" y="265"/>
      <point x="284" y="259.35"/>
      <point x="284" y="239" type="curve" smooth="yes"/>
      <point x="284" y="217" type="line" smooth="yes"/>
      <point x="284" y="203.927"/>
      <point x="285.293" y="205"/>
      <point x="298" y="205" type="curve" smooth="yes"/>
      <point x="376" y="205" type="line" smooth="yes"/>
      <point x="400" y="205"/>
      <point x="404" y="204"/>
      <point x="404" y="180" type="curve" smooth="yes"/>
      <point x="404" y="136" type="line" smooth="yes"/>
      <point x="404" y="116"/>
      <point x="400" y="115"/>
      <point x="379" y="115" type="curve" smooth="yes"/>
      <point x="299" y="115" type="line" smooth="yes"/>
      <point x="285.34" y="115"/>
      <point x="284" y="116.138"/>
      <point x="284" y="102" type="curve" smooth="yes"/>
      <point x="284" y="13" type="line" smooth="yes"/>
      <point x="284" y="1"/>
      <point x="282" y="0"/>
      <point x="270" y="0" type="curve" smooth="yes"/>
      <point x="170" y="0" type="line" smooth="yes"/>
      <point x="159" y="0"/>
      <point x="150" y="0"/>
      <point x="150" y="12" type="curve" smooth="yes"/>
      <point x="150" y="99" type="line" smooth="yes"/>
      <point x="150" y="113.651"/>
      <point x="151.155" y="115"/>
      <point x="136" y="115" type="curve" smooth="yes"/>
      <point x="61" y="115" type="line" smooth="yes"/>
      <point x="35" y="115"/>
      <point x="30" y="118"/>
      <point x="30" y="144" type="curve" smooth="yes"/>
      <point x="30" y="179" type="line" smooth="yes"/>
      <point x="30" y="202"/>
      <point x="32" y="205"/>
      <point x="54" y="205" type="curve" smooth="yes"/>
      <point x="134" y="205" type="line" smooth="yes"/>
      <point x="148.032" y="205"/>
      <point x="150" y="203.42"/>
      <point x="150" y="218" type="curve" smooth="yes"/>
      <point x="150" y="252" type="line" smooth="yes"/>
      <point x="150" y="266.305"/>
      <point x="147.747" y="265"/>
      <point x="134" y="265" type="curve" smooth="yes"/>
      <point x="61" y="265" type="line" smooth="yes"/>
      <point x="35" y="265"/>
      <point x="30" y="268"/>
      <point x="30" y="294" type="curve" smooth="yes"/>
      <point x="30" y="329" type="line" smooth="yes"/>
      <point x="30" y="352"/>
      <point x="32" y="355"/>
      <point x="54" y="355" type="curve" smooth="yes"/>
      <point x="113" y="355" type="line" smooth="yes"/>
      <point x="132.602" y="355"/>
      <point x="124.912" y="362.607"/>
      <point x="121.291" y="376" type="curve" smooth="yes"/>
      <point x="41" y="673" type="line" smooth="yes"/>
      <point x="39" y="680"/>
      <point x="38" y="685"/>
      <point x="38" y="689" type="curve" smooth="yes"/>
      <point x="38" y="696"/>
      <point x="42" y="700"/>
      <point x="58" y="700" type="curve" smooth="yes"/>
      <point x="155" y="700" type="line" smooth="yes"/>
      <point x="179" y="700"/>
      <point x="175" y="693"/>
      <point x="179" y="674" type="curve" smooth="yes"/>
      <point x="207" y="520" type="line" smooth="yes"/>
      <point x="210" y="506"/>
      <point x="213" y="498"/>
      <point x="217" y="498" type="curve" smooth="yes"/>
      <point x="221" y="498"/>
      <point x="224" y="505"/>
      <point x="227" y="519" type="curve" smooth="yes"/>
      <point x="258" y="692" type="line" smooth="yes"/>
      <point x="260" y="700"/>
      <point x="260" y="700"/>
    </contour>
  </outline>
</glyph>
<glyph name="brokenbar" format="2">
  <advance width="304"/>
  <unicode hex="00A6"/>
  <outline>
    <contour>
      <point x="112" y="250" type="curve" smooth="yes"/>
      <point x="197" y="250" type="line" smooth="yes"/>
      <point x="223.368" y="250"/>
      <point x="224" y="244.521"/>
      <point x="224" y="218" type="curve" smooth="yes"/>
      <point x="224" y="-5" type="line" smooth="yes"/>
      <point x="224" y="-29.916"/>
      <point x="224" y="-30"/>
      <point x="199" y="-30" type="curve" smooth="yes"/>
      <point x="114" y="-30" type="line" smooth="yes"/>
      <point x="83.5781" y="-30"/>
      <point x="80" y="-29.4629"/>
      <point x="80" y="1" type="curve" smooth="yes"/>
      <point x="80" y="216" type="line" smooth="yes"/>
      <point x="80" y="244.468"/>
      <point x="84.4932" y="250"/>
    </contour>
    <contour>
      <point x="112" y="730" type="curve" smooth="yes"/>
      <point x="197" y="730" type="line" smooth="yes"/>
      <point x="223.368" y="730"/>
      <point x="224" y="724.521"/>
      <point x="224" y="698" type="curve" smooth="yes"/>
      <point x="224" y="475" type="line" smooth="yes"/>
      <point x="224" y="450.084"/>
      <point x="224" y="450"/>
      <point x="199" y="450" type="curve" smooth="yes"/>
      <point x="114" y="450" type="line" smooth="yes"/>
      <point x="83.5781" y="450"/>
      <point x="80" y="450.537"/>
      <point x="80" y="481" type="curve" smooth="yes"/>
      <point x="80" y="696" type="line" smooth="yes"/>
      <point x="80" y="724.468"/>
      <point x="84.493" y="730"/>
    </contour>
  </outline>
</glyph>
<glyph name="guillemotleft" format="2">
  <advance width="522"/>
  <unicode hex="00AB"/>
  <outline>
    <contour>
      <point x="367.863" y="255" type="curve" smooth="yes"/>
      <point x="480.877" y="90" type="line" smooth="yes"/>
      <point x="495.901" y="68.0649"/>
      <point x="501.006" y="66.6424"/>
      <point x="476" y="52.9794" type="curve" smooth="yes"/>
      <point x="427" y="26.2062" type="line" smooth="yes"/>
      <point x="403.211" y="13.2079"/>
      <point x="401.933" y="10.6551"/>
      <point x="386.425" y="33" type="curve" smooth="yes"/>
      <point x="235.821" y="250" type="line" smooth="yes"/>
      <point x="215.221" y="279.681"/>
      <point x="216.555" y="282.241"/>
      <point x="237.209" y="312" type="curve" smooth="yes"/>
      <point x="387.119" y="528" type="line" smooth="yes"/>
      <point x="402.966" y="550.832"/>
      <point x="405.7" y="545.432"/>
      <point x="430" y="532.155" type="curve" smooth="yes"/>
      <point x="474" y="508.113" type="line" smooth="yes"/>
      <point x="499.738" y="494.05"/>
      <point x="497.01" y="493.608"/>
      <point x="480.938" y="471" type="curve" smooth="yes"/>
      <point x="365.062" y="308" type="line" smooth="yes"/>
      <point x="347.12" y="282.762"/>
      <point x="350.589" y="280.22"/>
    </contour>
    <contour>
      <point x="158.808" y="258" type="curve" smooth="yes"/>
      <point x="279.356" y="82" type="line" smooth="yes"/>
      <point x="292.825" y="62.3354"/>
      <point x="287.598" y="63.16"/>
      <point x="267" y="52.0204" type="curve" smooth="yes"/>
      <point x="208" y="20.1122" type="line" smooth="yes"/>
      <point x="189.252" y="9.97298"/>
      <point x="188.961" y="17.8507"/>
      <point x="177.813" y="34" type="curve" smooth="yes"/>
      <point x="21.1157" y="261" type="line" smooth="yes"/>
      <point x="4.97615" y="284.38"/>
      <point x="14.6961" y="289.7"/>
      <point x="30.0896" y="312" type="curve" smooth="yes"/>
      <point x="181.265" y="531" type="line" smooth="yes"/>
      <point x="191.813" y="546.281"/>
      <point x="191.718" y="548.693"/>
      <point x="209" y="539.347" type="curve" smooth="yes"/>
      <point x="269" y="506.898" type="line" smooth="yes"/>
      <point x="294.198" y="493.27"/>
      <point x="288.708" y="491.777"/>
      <point x="273.227" y="470" type="curve" smooth="yes"/>
      <point x="156.64" y="306" type="line" smooth="yes"/>
      <point x="140.36" y="283.1"/>
      <point x="143.135" y="280.883"/>
    </contour>
  </outline>
</glyph>
<glyph name="logicalnot" format="2">
  <advance width="515"/>
  <unicode hex="00AC"/>
  <outline>
    <contour>
      <point x="281" y="465" type="curve" smooth="yes"/>
      <point x="95" y="465" type="line" smooth="yes"/>
      <point x="54.6521" y="465"/>
      <point x="60" y="472.083"/>
      <point x="60" y="511" type="curve" smooth="yes"/>
      <point x="60" y="591" type="line" smooth="yes"/>
      <point x="60" y="618.445"/>
      <point x="64.4973" y="615"/>
      <point x="91" y="615" type="curve" smooth="yes"/>
      <point x="420" y="615" type="line" smooth="yes"/>
      <point x="451.412" y="615"/>
      <point x="456" y="618.656"/>
      <point x="456" y="586" type="curve" smooth="yes"/>
      <point x="456" y="399" type="line" smooth="yes"/>
      <point x="456" y="373.088"/>
      <point x="456" y="373"/>
      <point x="430" y="373" type="curve" smooth="yes"/>
      <point x="342" y="373" type="line" smooth="yes"/>
      <point x="320.528" y="373"/>
      <point x="306" y="365.962"/>
      <point x="306" y="390" type="curve" smooth="yes"/>
      <point x="306" y="440" type="line" smooth="yes"/>
      <point x="306" y="464.916"/>
      <point x="306" y="465"/>
    </contour>
  </outline>
</glyph>
<glyph name="registered" format="2">
  <advance width="640"/>
  <unicode hex="00AE"/>
  <outline>
    <contour>
      <point x="50" y="375" type="curve" smooth="yes"/>
      <point x="50" y="588"/>
      <point x="117" y="760"/>
      <point x="320" y="760" type="curve" smooth="yes"/>
      <point x="523" y="760"/>
      <point x="590" y="588"/>
      <point x="590" y="375" type="curve" smooth="yes"/>
      <point x="590" y="162"/>
      <point x="523" y="-10"/>
      <point x="320" y="-10" type="curve" smooth="yes"/>
      <point x="117" y="-10"/>
      <point x="50" y="162"/>
    </contour>
    <contour>
      <point x="87" y="375" type="curve" smooth="yes"/>
      <point x="87" y="181"/>
      <point x="146" y="26"/>
      <point x="320" y="26" type="curve" smooth="yes"/>
      <point x="494" y="26"/>
      <point x="553" y="181"/>
      <point x="553" y="375" type="curve" smooth="yes"/>
      <point x="553" y="569"/>
      <point x="494" y="724"/>
      <point x="320" y="724" type="curve" smooth="yes"/>
      <point x="146" y="724"/>
      <point x="87" y="569"/>
    </contour>
    <component base="R" xScale="0.6" yScale="0.6" xOffset="183" yOffset="174"/>
  </outline>
</glyph>
<glyph name="macron" format="2">
  <advance width="369"/>
  <unicode hex="00AF"/>
  <outline>
    <contour>
      <point x="20" y="374" type="curve" smooth="yes"/>
      <point x="20" y="479" type="line" smooth="yes"/>
      <point x="20" y="502"/>
      <point x="22" y="505"/>
      <point x="44" y="505" type="curve" smooth="yes"/>
      <point x="322" y="505" type="line" smooth="yes"/>
      <point x="346" y="505"/>
      <point x="350" y="504"/>
      <point x="350" y="480" type="curve" smooth="yes"/>
      <point x="350" y="366" type="line" smooth="yes"/>
      <point x="350" y="346"/>
      <point x="346" y="345"/>
      <point x="325" y="345" type="curve" smooth="yes"/>
      <point x="51" y="345" type="line" smooth="yes"/>
      <point x="25" y="345"/>
      <point x="20" y="348"/>
    </contour>
  </outline>
</glyph>
<glyph name="plusminus" format="2">
  <advance width="536"/>
  <unicode hex="00B1"/>
  <outline>
    <contour>
      <point x="20" y="34" type="curve" smooth="yes"/>
      <point x="20" y="139" type="line" smooth="yes"/>
      <point x="20" y="162"/>
      <point x="22" y="165"/>
      <point x="44" y="165" type="curve" smooth="yes"/>
      <point x="487" y="165" type="line" smooth="yes"/>
      <point x="511" y="165"/>
      <point x="515" y="164"/>
      <point x="515" y="140" type="curve" smooth="yes"/>
      <point x="515" y="26" type="line" smooth="yes"/>
      <point x="515" y="6"/>
      <point x="511" y="5"/>
      <point x="490" y="5" type="curve" smooth="yes"/>
      <point x="51" y="5" type="line" smooth="yes"/>
      <point x="25" y="5"/>
      <point x="20" y="8"/>
    </contour>
    <component base="plus" xOffset="-70" yOffset="210"/>
  </outline>
</glyph>
<glyph name="acute" format="2">
  <advance width="286"/>
  <unicode hex="00B4"/>
  <outline>
    <contour>
      <point x="255" y="659" type="line" smooth="yes"/>
      <point x="283" y="635"/>
      <point x="283" y="637"/>
      <point x="255" y="613" type="curve" smooth="yes"/>
      <point x="132" y="510" type="line" smooth="yes"/>
      <point x="106" y="489"/>
      <point x="105" y="484"/>
      <point x="81" y="508" type="curve" smooth="yes"/>
      <point x="41" y="548" type="line" smooth="yes"/>
      <point x="16" y="573"/>
      <point x="12" y="573"/>
      <point x="36" y="599" type="curve" smooth="yes"/>
      <point x="141" y="711" type="line" smooth="yes"/>
      <point x="160" y="731"/>
      <point x="161" y="737"/>
      <point x="183" y="719" type="curve" smooth="yes"/>
    </contour>
  </outline>
</glyph>
<glyph name="paragraph" format="2">
  <advance width="640"/>
  <unicode hex="00B6"/>
  <outline>
    <contour>
      <point x="315" y="240" type="curve" smooth="yes"/>
      <point x="205" y="240"/>
      <point x="110" y="325"/>
      <point x="110" y="470" type="curve" smooth="yes"/>
      <point x="110" y="615"/>
      <point x="205" y="700"/>
      <point x="315" y="700" type="curve" smooth="yes"/>
      <point x="563" y="700" type="line" smooth="yes"/>
      <point x="582.374" y="700"/>
      <point x="585" y="702.121"/>
      <point x="585" y="682" type="curve" smooth="yes"/>
      <point x="585" y="20" type="line" smooth="yes"/>
      <point x="585" y="3.28476"/>
      <point x="587.459" y="0"/>
      <point x="570" y="0" type="curve" smooth="yes"/>
      <point x="495" y="0" type="line" smooth="yes"/>
      <point x="476.39" y="0"/>
      <point x="475" y="-1.2181"/>
      <point x="475" y="18" type="curve" smooth="yes"/>
      <point x="475" y="558" type="line" smooth="yes"/>
      <point x="475" y="573.793"/>
      <point x="468.453" y="570"/>
      <point x="454" y="570" type="curve" smooth="yes"/>
      <point x="439.918" y="570"/>
      <point x="435" y="573.156"/>
      <point x="435" y="558" type="curve" smooth="yes"/>
      <point x="435" y="20" type="line" smooth="yes"/>
      <point x="435" y="-2.52119"/>
      <point x="431.796" y="0"/>
      <point x="410" y="0" type="curve" smooth="yes"/>
      <point x="339" y="0" type="line" smooth="yes"/>
      <point x="323.025" y="0"/>
      <point x="325" y="2.56857"/>
      <point x="325" y="18" type="curve" smooth="yes"/>
      <point x="325" y="222" type="line" smooth="yes"/>
      <point x="325" y="234.124"/>
      <point x="328.34" y="240"/>
    </contour>
  </outline>
</glyph>
<glyph name="cedilla" format="2">
  <advance width="549"/>
  <unicode hex="00B8"/>
  <anchor x="312" y="0" name="_cedilla"/>
  <outline>
    <contour>
      <point x="238" y="-138" type="curve" smooth="yes"/>
      <point x="238" y="-113.185"/>
      <point x="221.772" y="-98.627"/>
      <point x="213.53" y="-91" type="curve" smooth="yes"/>
      <point x="199.765" y="-78.2627"/>
      <point x="197.963" y="-78.0498"/>
      <point x="210.75" y="-61" type="curve" smooth="yes"/>
      <point x="266" y="6" type="line"/>
      <point x="310" y="6" type="line"/>
      <point x="279" y="-32" type="line" smooth="yes"/>
      <point x="269.133" y="-45.1562"/>
      <point x="270.632" y="-43.6865"/>
      <point x="291" y="-44.9385" type="curve" smooth="yes"/>
      <point x="378.469" y="-50.3135"/>
      <point x="419" y="-72.9961"/>
      <point x="419" y="-125" type="curve" smooth="yes"/>
      <point x="419" y="-172.858"/>
      <point x="347.538" y="-219.801"/>
      <point x="209" y="-223.734" type="curve" smooth="yes"/>
      <point x="192.26" y="-224.209"/>
      <point x="190" y="-225.653"/>
      <point x="190" y="-208" type="curve" smooth="yes"/>
      <point x="190" y="-183.18"/>
      <point x="194.9" y="-192.062"/>
      <point x="209.238" y="-181" type="curve" smooth="yes"/>
      <point x="220.023" y="-172.679"/>
      <point x="238" y="-157.438"/>
    </contour>
  </outline>
</glyph>
<glyph name="guillemotright" format="2">
  <advance width="526"/>
  <unicode hex="00BB"/>
  <outline>
    <contour>
      <point x="154" y="255" type="line" smooth="yes"/>
      <point x="171" y="280"/>
      <point x="175" y="283"/>
      <point x="157" y="308" type="curve" smooth="yes"/>
      <point x="41" y="471" type="line" smooth="yes"/>
      <point x="25" y="494"/>
      <point x="22" y="494"/>
      <point x="48" y="508" type="curve" smooth="yes"/>
      <point x="92" y="532" type="line" smooth="yes"/>
      <point x="116" y="545"/>
      <point x="119" y="551"/>
      <point x="135" y="528" type="curve" smooth="yes"/>
      <point x="285" y="312" type="line" smooth="yes"/>
      <point x="306" y="282"/>
      <point x="307" y="280"/>
      <point x="286" y="250" type="curve" smooth="yes"/>
      <point x="135" y="33" type="line" smooth="yes"/>
      <point x="119" y="11"/>
      <point x="119" y="13"/>
      <point x="95" y="26" type="curve" smooth="yes"/>
      <point x="46" y="53" type="line" smooth="yes"/>
      <point x="21" y="67"/>
      <point x="26" y="68"/>
      <point x="41" y="90" type="curve" smooth="yes"/>
    </contour>
    <contour>
      <point x="363" y="258" type="line" smooth="yes"/>
      <point x="379" y="281"/>
      <point x="381" y="283"/>
      <point x="365" y="306" type="curve" smooth="yes"/>
      <point x="249" y="470" type="line" smooth="yes"/>
      <point x="234" y="492"/>
      <point x="228" y="493"/>
      <point x="253" y="507" type="curve" smooth="yes"/>
      <point x="313" y="539" type="line" smooth="yes"/>
      <point x="330" y="548"/>
      <point x="330" y="546"/>
      <point x="341" y="531" type="curve" smooth="yes"/>
      <point x="492" y="312" type="line" smooth="yes"/>
      <point x="507" y="290"/>
      <point x="517" y="284"/>
      <point x="501" y="261" type="curve" smooth="yes"/>
      <point x="344" y="34" type="line" smooth="yes"/>
      <point x="333" y="18"/>
      <point x="333" y="10"/>
      <point x="314" y="20" type="curve" smooth="yes"/>
      <point x="255" y="52" type="line" smooth="yes"/>
      <point x="234" y="63"/>
      <point x="229" y="62"/>
      <point x="242" y="82" type="curve" smooth="yes"/>
    </contour>
  </outline>
</glyph>
<glyph name="AE" format="2">
  <advance width="716"/>
  <unicode hex="00C6"/>
  <outline>
    <contour>
      <point x="480" y="266" type="curve" smooth="yes"/>
      <point x="480" y="166" type="line" smooth="yes"/>
      <point x="480" y="144"/>
      <point x="492" y="140"/>
      <point x="512" y="140" type="curve" smooth="yes"/>
      <point x="669" y="140" type="line" smooth="yes"/>
      <point x="693" y="140"/>
      <point x="696" y="138"/>
      <point x="696" y="118" type="curve" smooth="yes"/>
      <point x="696" y="32" type="line" smooth="yes"/>
      <point x="696" y="4"/>
      <point x="686" y="0"/>
      <point x="660" y="0" type="curve" smooth="yes"/>
      <point x="453" y="0" type="line"/>
      <point x="386" y="0" type="line"/>
      <point x="372" y="0" type="line" smooth="yes"/>
      <point x="347" y="0"/>
      <point x="340" y="5"/>
      <point x="340" y="32" type="curve" smooth="yes"/>
      <point x="340" y="117" type="line" smooth="yes"/>
      <point x="340" y="129.956"/>
      <point x="340" y="130"/>
      <point x="327" y="130" type="curve" smooth="yes"/>
      <point x="212" y="130" type="line" smooth="yes"/>
      <point x="193" y="130"/>
      <point x="190" y="129"/>
      <point x="188" y="120" type="curve" smooth="yes"/>
      <point x="161" y="17" type="line" smooth="yes"/>
      <point x="159" y="4"/>
      <point x="141" y="0"/>
      <point x="125" y="0" type="curve" smooth="yes"/>
      <point x="59" y="0" type="line" smooth="yes"/>
      <point x="42" y="0"/>
      <point x="20" y="0"/>
      <point x="20" y="13" type="curve" smooth="yes"/>
      <point x="20" y="14"/>
      <point x="20" y="16"/>
      <point x="21" y="20" type="curve" smooth="yes"/>
      <point x="210" y="672" type="line" smooth="yes"/>
      <point x="215" y="696"/>
      <point x="220" y="700"/>
      <point x="250" y="700" type="curve" smooth="yes"/>
      <point x="650" y="700" type="line" smooth="yes"/>
      <point x="680" y="700"/>
      <point x="688" y="698"/>
      <point x="688" y="675" type="curve" smooth="yes"/>
      <point x="688" y="583" type="line" smooth="yes"/>
      <point x="688" y="563"/>
      <point x="685" y="560"/>
      <point x="666" y="560" type="curve" smooth="yes"/>
      <point x="507" y="560" type="line" smooth="yes"/>
      <point x="487" y="560"/>
      <point x="480" y="557"/>
      <point x="480" y="537" type="curve" smooth="yes"/>
      <point x="480" y="445" type="line" smooth="yes"/>
      <point x="480" y="427"/>
      <point x="482" y="425"/>
      <point x="499" y="425" type="curve" smooth="yes"/>
      <point x="612" y="425" type="line" smooth="yes"/>
      <point x="625" y="425"/>
      <point x="631" y="422"/>
      <point x="631" y="408" type="curve" smooth="yes"/>
      <point x="631" y="309" type="line" smooth="yes"/>
      <point x="631" y="295"/>
      <point x="626" y="290"/>
      <point x="612" y="290" type="curve" smooth="yes"/>
      <point x="510" y="290" type="line" smooth="yes"/>
      <point x="488" y="290"/>
      <point x="480" y="287"/>
    </contour>
    <contour>
      <point x="225" y="210" type="curve" smooth="yes"/>
      <point x="331" y="210" type="line" smooth="yes"/>
      <point x="339.948" y="210"/>
      <point x="340" y="211.027"/>
      <point x="340" y="220" type="curve" smooth="yes"/>
      <point x="340" y="549" type="line" smooth="yes"/>
      <point x="340" y="559.476"/>
      <point x="339.447" y="559"/>
      <point x="329" y="559" type="curve" smooth="yes"/>
      <point x="299" y="559" type="line" smooth="yes"/>
      <point x="292" y="559"/>
      <point x="288.801" y="557.794"/>
      <point x="285" y="543" type="curve" smooth="yes"/>
      <point x="211" y="255" type="line" smooth="yes"/>
      <point x="209" y="245"/>
      <point x="208" y="237"/>
      <point x="208" y="231" type="curve" smooth="yes"/>
      <point x="208" y="212"/>
      <point x="216" y="210"/>
    </contour>
  </outline>
</glyph>
<glyph name="Eth" format="2">
  <advance width="751"/>
  <unicode hex="00D0"/>
  <outline>
    <contour>
      <point x="-12.666" y="314" type="curve" smooth="yes"/>
      <point x="-12.666" y="389" type="line" smooth="yes"/>
      <point x="-12.666" y="412"/>
      <point x="-10.2334" y="415"/>
      <point x="16.5342" y="415" type="curve" smooth="yes"/>
      <point x="183.103" y="415" type="line" smooth="yes"/>
      <point x="212.304" y="415"/>
      <point x="217.17" y="414"/>
      <point x="217.17" y="390" type="curve" smooth="yes"/>
      <point x="217.17" y="306" type="line" smooth="yes"/>
      <point x="217.17" y="286"/>
      <point x="212.304" y="285"/>
      <point x="186.753" y="285" type="curve" smooth="yes"/>
      <point x="25.0508" y="285" type="line" smooth="yes"/>
      <point x="-6.58301" y="285"/>
      <point x="-12.666" y="288"/>
    </contour>
    <component base="D"/>
  </outline>
</glyph>
<glyph name="Oslash" format="2">
  <advance width="473"/>
  <unicode hex="00D8"/>
  <outline>
    <contour>
      <point x="239" y="590" type="curve" smooth="yes"/>
      <point x="220" y="590"/>
      <point x="205" y="581"/>
      <point x="193" y="563" type="curve" smooth="yes"/>
      <point x="176" y="538"/>
      <point x="176" y="419"/>
      <point x="176" y="354" type="curve" smooth="yes"/>
      <point x="176" y="320.824"/>
      <point x="174.114" y="313.685"/>
      <point x="187.191" y="341" type="curve" smooth="yes"/>
      <point x="279.111" y="533" type="line" smooth="yes"/>
      <point x="283.65" y="542.481"/>
      <point x="284.971" y="550.531"/>
      <point x="281" y="561" type="curve" smooth="yes"/>
      <point x="273" y="582"/>
      <point x="260" y="590"/>
    </contour>
    <contour>
      <point x="417.999" y="607" type="curve" smooth="yes"/>
      <point x="441.783" y="540.874"/>
      <point x="443" y="437.374"/>
      <point x="443" y="343" type="curve" smooth="yes"/>
      <point x="443" y="226"/>
      <point x="443" y="114"/>
      <point x="386" y="47" type="curve" smooth="yes"/>
      <point x="358" y="15"/>
      <point x="305" y="-10"/>
      <point x="233" y="-10" type="curve" smooth="yes"/>
      <point x="195.583" y="-10"/>
      <point x="166.164" y="-4.90976"/>
      <point x="142" y="4.5547" type="curve" smooth="yes"/>
      <point x="128.921" y="9.67728"/>
      <point x="123.01" y="18.9513"/>
      <point x="116.331" y="5" type="curve" smooth="yes"/>
      <point x="94.3088" y="-41" type="line" smooth="yes"/>
      <point x="89.7924" y="-50.4336"/>
      <point x="87.1189" y="-50"/>
      <point x="73" y="-50" type="curve" smooth="yes"/>
      <point x="12" y="-50" type="line" smooth="yes"/>
      <point x="-4.97382" y="-50"/>
      <point x="2.59067" y="-44.5887"/>
      <point x="7.18125" y="-35" type="curve" smooth="yes"/>
      <point x="55.535" y="66" type="line" smooth="yes"/>
      <point x="60.6244" y="76.6306"/>
      <point x="60.3448" y="78.7465"/>
      <point x="56.1053" y="90" type="curve" smooth="yes"/>
      <point x="31.2541" y="155.967"/>
      <point x="30" y="261.186"/>
      <point x="30" y="357" type="curve" smooth="yes"/>
      <point x="30" y="474"/>
      <point x="30" y="586"/>
      <point x="87" y="653" type="curve" smooth="yes"/>
      <point x="115" y="685"/>
      <point x="168" y="710"/>
      <point x="240" y="710" type="curve" smooth="yes"/>
      <point x="280.571" y="710"/>
      <point x="311.738" y="704.015"/>
      <point x="337" y="692.959" type="curve" smooth="yes"/>
      <point x="350.127" y="687.214"/>
      <point x="351.006" y="683.172"/>
      <point x="357.626" y="697" type="curve" smooth="yes"/>
      <point x="379.17" y="742" type="line" smooth="yes"/>
      <point x="382.43" y="748.81"/>
      <point x="382.509" y="750"/>
      <point x="393" y="750" type="curve" smooth="yes"/>
      <point x="463" y="750" type="line" smooth="yes"/>
      <point x="475.011" y="750"/>
      <point x="472.332" y="748.605"/>
      <point x="468.691" y="741" type="curve" smooth="yes"/>
      <point x="417.944" y="635" type="line" smooth="yes"/>
      <point x="412.023" y="622.632"/>
      <point x="413.281" y="620.117"/>
    </contour>
    <contour>
      <point x="281.979" y="351" type="curve" smooth="yes"/>
      <point x="192.452" y="164" type="line" smooth="yes"/>
      <point x="188.199" y="155.115"/>
      <point x="184.18" y="149.506"/>
      <point x="188" y="139" type="curve" smooth="yes"/>
      <point x="195" y="118"/>
      <point x="213" y="110"/>
      <point x="234" y="110" type="curve" smooth="yes"/>
      <point x="253" y="110"/>
      <point x="266.571" y="113.175"/>
      <point x="278" y="132" type="curve" smooth="yes"/>
      <point x="295" y="160"/>
      <point x="292" y="281"/>
      <point x="292" y="346" type="curve" smooth="yes"/>
      <point x="292" y="375.651"/>
      <point x="291.124" y="370.102"/>
    </contour>
  </outline>
</glyph>
<glyph name="Thorn" format="2">
  <advance width="468"/>
  <unicode hex="00DE"/>
  <outline>
    <contour>
      <point x="190" y="290" type="curve" smooth="yes"/>
      <point x="249" y="290"/>
      <point x="283" y="309"/>
      <point x="283" y="365" type="curve" smooth="yes"/>
      <point x="283" y="411"/>
      <point x="253" y="440"/>
      <point x="194" y="440" type="curve" smooth="yes"/>
      <point x="185" y="440"/>
      <point x="180" y="439"/>
      <point x="180" y="428" type="curve" smooth="yes"/>
      <point x="180" y="308" type="line" smooth="yes"/>
      <point x="180" y="296"/>
      <point x="182" y="290"/>
    </contour>
    <contour>
      <point x="180" y="117" type="curve" smooth="yes"/>
      <point x="180" y="22" type="line" smooth="yes"/>
      <point x="180" y="2"/>
      <point x="182" y="0"/>
      <point x="161" y="0" type="curve" smooth="yes"/>
      <point x="59" y="0" type="line" smooth="yes"/>
      <point x="43" y="0"/>
      <point x="40" y="-3"/>
      <point x="40" y="14" type="curve" smooth="yes"/>
      <point x="40" y="689" type="line" smooth="yes"/>
      <point x="40" y="702.367"/>
      <point x="43.4367" y="700"/>
      <point x="56" y="700" type="curve" smooth="yes"/>
      <point x="168" y="700" type="line" smooth="yes"/>
      <point x="183.793" y="700"/>
      <point x="180" y="693.453"/>
      <point x="180" y="679" type="curve" smooth="yes"/>
      <point x="180" y="588" type="line" smooth="yes"/>
      <point x="180" y="568.855"/>
      <point x="181.335" y="570"/>
      <point x="200" y="570" type="curve" smooth="yes"/>
      <point x="251" y="570"/>
      <point x="299" y="565"/>
      <point x="339" y="543" type="curve" smooth="yes"/>
      <point x="398" y="511"/>
      <point x="438" y="447"/>
      <point x="438" y="355" type="curve" smooth="yes"/>
      <point x="438" y="269"/>
      <point x="412" y="201"/>
      <point x="359" y="167" type="curve" smooth="yes"/>
      <point x="317" y="141"/>
      <point x="255" y="132"/>
      <point x="200" y="132" type="curve" smooth="yes"/>
      <point x="184" y="132"/>
      <point x="180" y="130"/>
    </contour>
  </outline>
</glyph>
<glyph name="Hbar" format="2">
  <advance width="485"/>
  <unicode hex="0126"/>
  <outline>
    <contour>
      <point x="0" y="544" type="curve" smooth="yes"/>
      <point x="0" y="609" type="line" smooth="yes"/>
      <point x="0" y="632"/>
      <point x="2" y="635"/>
      <point x="24" y="635" type="curve" smooth="yes"/>
      <point x="457" y="635" type="line" smooth="yes"/>
      <point x="481" y="635"/>
      <point x="485" y="634"/>
      <point x="485" y="610" type="curve" smooth="yes"/>
      <point x="485" y="536" type="line" smooth="yes"/>
      <point x="485" y="516"/>
      <point x="481" y="515"/>
      <point x="460" y="515" type="curve" smooth="yes"/>
      <point x="31" y="515" type="line" smooth="yes"/>
      <point x="5" y="515"/>
      <point x="0" y="518"/>
    </contour>
    <component base="H"/>
  </outline>
</glyph>
<glyph name="Lslash" format="2">
  <advance width="375"/>
  <unicode hex="0141"/>
  <outline>
    <contour>
      <point x="-45" y="265" type="curve" smooth="yes"/>
      <point x="-45" y="351" type="line" smooth="yes"/>
      <point x="-45" y="369.446"/>
      <point x="-42.8813" y="370.315"/>
      <point x="-32" y="377.068" type="curve" smooth="yes"/>
      <point x="26" y="413.062" type="line" smooth="yes"/>
      <point x="36.2845" y="419.444"/>
      <point x="40" y="419.405"/>
      <point x="40" y="437" type="curve" smooth="yes"/>
      <point x="40" y="684" type="line" smooth="yes"/>
      <point x="40" y="696"/>
      <point x="44" y="700"/>
      <point x="73" y="700" type="curve" smooth="yes"/>
      <point x="175" y="700" type="line" smooth="yes"/>
      <point x="185" y="700"/>
      <point x="195" y="697"/>
      <point x="195" y="679" type="curve" smooth="yes"/>
      <point x="195" y="536" type="line" smooth="yes"/>
      <point x="195" y="520.331"/>
      <point x="193.022" y="516.714"/>
      <point x="204" y="523.526" type="curve" smooth="yes"/>
      <point x="286" y="574.415" type="line" smooth="yes"/>
      <point x="292.912" y="578.704"/>
      <point x="295" y="572.863"/>
      <point x="295" y="560" type="curve" smooth="yes"/>
      <point x="295" y="474" type="line" smooth="yes"/>
      <point x="295" y="456.735"/>
      <point x="290.073" y="456.942"/>
      <point x="280" y="450.691" type="curve" smooth="yes"/>
      <point x="216" y="410.974" type="line" smooth="yes"/>
      <point x="206.716" y="405.212"/>
      <point x="195" y="400"/>
      <point x="195" y="388" type="curve" smooth="yes"/>
      <point x="195" y="301"/>
      <point x="195" y="165"/>
      <point x="195" y="165" type="curve" smooth="yes"/>
      <point x="195" y="150"/>
      <point x="197" y="145"/>
      <point x="211" y="145" type="curve" smooth="yes"/>
      <point x="328" y="145" type="line" smooth="yes"/>
      <point x="346" y="145"/>
      <point x="355" y="143"/>
      <point x="355" y="130" type="curve" smooth="yes"/>
      <point x="355" y="21" type="line" smooth="yes"/>
      <point x="355" y="0"/>
      <point x="344" y="0"/>
      <point x="325" y="0" type="curve" smooth="yes"/>
      <point x="228" y="0"/>
      <point x="162" y="0"/>
      <point x="65" y="0" type="curve" smooth="yes"/>
      <point x="42" y="0"/>
      <point x="40" y="2"/>
      <point x="40" y="18" type="curve" smooth="yes"/>
      <point x="40" y="284" type="line" smooth="yes"/>
      <point x="40" y="306.009"/>
      <point x="37.1729" y="299.996"/>
      <point x="25" y="292.441" type="curve" smooth="yes"/>
      <point x="-28" y="259.55" type="line" smooth="yes"/>
      <point x="-39.2588" y="252.563"/>
      <point x="-45" y="242.629"/>
    </contour>
  </outline>
</glyph>
<glyph name="Eng" format="2">
  <advance width="490"/>
  <unicode hex="014A"/>
  <outline>
    <contour>
      <point x="206" y="-40" type="curve" smooth="yes"/>
      <point x="233" y="-40" type="line" smooth="yes"/>
      <point x="252" y="-40"/>
      <point x="285" y="-40"/>
      <point x="296" y="-30" type="curve" smooth="yes"/>
      <point x="307" y="-20"/>
      <point x="310" y="2"/>
      <point x="310" y="35" type="curve" smooth="yes"/>
      <point x="310" y="465" type="line" smooth="yes"/>
      <point x="310" y="541"/>
      <point x="285" y="565"/>
      <point x="245" y="565" type="curve" smooth="yes"/>
      <point x="195" y="565"/>
      <point x="180" y="541"/>
      <point x="180" y="465" type="curve" smooth="yes"/>
      <point x="180" y="13" type="line" smooth="yes"/>
      <point x="180" y="1.8867"/>
      <point x="178.127" y="0"/>
      <point x="166" y="0" type="curve" smooth="yes"/>
      <point x="55" y="0" type="line" smooth="yes"/>
      <point x="41" y="0"/>
      <point x="40" y="5"/>
      <point x="40" y="20" type="curve" smooth="yes"/>
      <point x="40" y="689" type="line" smooth="yes"/>
      <point x="40" y="698"/>
      <point x="41" y="700"/>
      <point x="51" y="700" type="curve" smooth="yes"/>
      <point x="169" y="700" type="line" smooth="yes"/>
      <point x="178" y="700"/>
      <point x="180" y="697"/>
      <point x="180" y="687" type="curve" smooth="yes"/>
      <point x="180" y="656" type="line" smooth="yes"/>
      <point x="180" y="630.584"/>
      <point x="182.335" y="632.833"/>
      <point x="190" y="644.245" type="curve" smooth="yes"/>
      <point x="221.294" y="690.84"/>
      <point x="267.362" y="710"/>
      <point x="315" y="710" type="curve" smooth="yes"/>
      <point x="400" y="710"/>
      <point x="450" y="649"/>
      <point x="450" y="480" type="curve" smooth="yes"/>
      <point x="450" y="-10" type="line" smooth="yes"/>
      <point x="450" y="-132"/>
      <point x="392" y="-180"/>
      <point x="246" y="-180" type="curve" smooth="yes"/>
      <point x="237" y="-180"/>
      <point x="216" y="-179"/>
      <point x="205" y="-178" type="curve" smooth="yes"/>
      <point x="188" y="-177"/>
      <point x="182" y="-169"/>
      <point x="182" y="-160" type="curve" smooth="yes"/>
      <point x="183" y="-55" type="line" smooth="yes"/>
      <point x="183" y="-40"/>
      <point x="191" y="-40"/>
    </contour>
  </outline>
</glyph>
<glyph name="OE" format="2">
  <advance width="659"/>
  <unicode hex="0152"/>
  <outline>
    <contour>
      <point x="423" y="266" type="curve" smooth="yes"/>
      <point x="423" y="166" type="line" smooth="yes"/>
      <point x="423" y="144"/>
      <point x="435" y="140"/>
      <point x="455" y="140" type="curve" smooth="yes"/>
      <point x="612" y="140" type="line" smooth="yes"/>
      <point x="636" y="140"/>
      <point x="639" y="138"/>
      <point x="639" y="118" type="curve" smooth="yes"/>
      <point x="639" y="32" type="line" smooth="yes"/>
      <point x="639" y="4"/>
      <point x="629" y="0"/>
      <point x="603" y="0" type="curve" smooth="yes"/>
      <point x="240" y="0" type="line" smooth="yes"/>
      <point x="36" y="0"/>
      <point x="30" y="131"/>
      <point x="30" y="350" type="curve" smooth="yes"/>
      <point x="30" y="569"/>
      <point x="36" y="700"/>
      <point x="240" y="700" type="curve" smooth="yes"/>
      <point x="593" y="700" type="line" smooth="yes"/>
      <point x="623" y="700"/>
      <point x="631" y="698"/>
      <point x="631" y="675" type="curve" smooth="yes"/>
      <point x="631" y="583" type="line" smooth="yes"/>
      <point x="631" y="563"/>
      <point x="628" y="560"/>
      <point x="609" y="560" type="curve" smooth="yes"/>
      <point x="450" y="560" type="line" smooth="yes"/>
      <point x="430" y="560"/>
      <point x="423" y="557"/>
      <point x="423" y="537" type="curve" smooth="yes"/>
      <point x="423" y="445" type="line" smooth="yes"/>
      <point x="423" y="427"/>
      <point x="425" y="425"/>
      <point x="442" y="425" type="curve" smooth="yes"/>
      <point x="555" y="425" type="line" smooth="yes"/>
      <point x="568" y="425"/>
      <point x="574" y="422"/>
      <point x="574" y="408" type="curve" smooth="yes"/>
      <point x="574" y="309" type="line" smooth="yes"/>
      <point x="574" y="295"/>
      <point x="569" y="290"/>
      <point x="555" y="290" type="curve" smooth="yes"/>
      <point x="453" y="290" type="line" smooth="yes"/>
      <point x="431" y="290"/>
      <point x="423" y="287"/>
    </contour>
    <contour>
      <point x="250" y="560" type="curve" smooth="yes"/>
      <point x="228" y="560"/>
      <point x="208" y="556"/>
      <point x="197" y="539" type="curve" smooth="yes"/>
      <point x="178" y="511"/>
      <point x="177" y="442"/>
      <point x="177" y="340" type="curve" smooth="yes"/>
      <point x="177" y="240"/>
      <point x="178" y="180"/>
      <point x="193" y="149" type="curve" smooth="yes"/>
      <point x="204" y="127"/>
      <point x="224" y="120"/>
      <point x="250" y="120" type="curve" smooth="yes"/>
      <point x="266" y="120"/>
      <point x="282" y="118"/>
      <point x="282" y="143" type="curve" smooth="yes"/>
      <point x="282" y="541" type="line" smooth="yes"/>
      <point x="282" y="559"/>
      <point x="270" y="560"/>
    </contour>
  </outline>
</glyph>
<glyph name="Tbar" format="2">
  <advance width="490"/>
  <unicode hex="0166"/>
  <outline>
    <contour>
      <point x="3" y="324" type="curve" smooth="yes"/>
      <point x="3" y="389" type="line" smooth="yes"/>
      <point x="3" y="412"/>
      <point x="5" y="415"/>
      <point x="27" y="415" type="curve" smooth="yes"/>
      <point x="460" y="415" type="line" smooth="yes"/>
      <point x="484" y="415"/>
      <point x="488" y="414"/>
      <point x="488" y="390" type="curve" smooth="yes"/>
      <point x="488" y="316" type="line" smooth="yes"/>
      <point x="488" y="296"/>
      <point x="484" y="295"/>
      <point x="463" y="295" type="curve" smooth="yes"/>
      <point x="34" y="295" type="line" smooth="yes"/>
      <point x="8" y="295"/>
      <point x="3" y="298"/>
    </contour>
    <component base="T"/>
  </outline>
</glyph>
<glyph name="circumflex" format="2">
  <advance width="384"/>
  <unicode hex="02C6"/>
  <anchor x="192" y="700" name="_top"/>
  <outline>
    <contour>
      <point x="182" y="820" type="curve" smooth="yes"/>
      <point x="168" y="791" type="line" smooth="yes"/>
      <point x="156.838" y="767.878"/>
      <point x="160" y="763"/>
      <point x="127" y="763" type="curve" smooth="yes"/>
      <point x="60" y="763" type="line" smooth="yes"/>
      <point x="21" y="763"/>
      <point x="27.966" y="773.217"/>
      <point x="41" y="795" type="curve" smooth="yes"/>
      <point x="114" y="917" type="line" smooth="yes"/>
      <point x="127.712" y="937.155"/>
      <point x="129" y="943"/>
      <point x="162" y="943" type="curve" smooth="yes"/>
      <point x="233" y="943" type="line" smooth="yes"/>
      <point x="269" y="943"/>
      <point x="265.037" y="935.983"/>
      <point x="280" y="914" type="curve" smooth="yes"/>
      <point x="351" y="795" type="line" smooth="yes"/>
      <point x="364.448" y="772.461"/>
      <point x="367" y="763"/>
      <point x="327" y="763" type="curve" smooth="yes"/>
      <point x="273" y="763" type="line" smooth="yes"/>
      <point x="233.46" y="763"/>
      <point x="236.31" y="765.479"/>
      <point x="223" y="794" type="curve" smooth="yes"/>
      <point x="209" y="824" type="line" smooth="yes"/>
      <point x="195.358" y="853.234"/>
      <point x="195.811" y="848.608"/>
    </contour>
  </outline>
</glyph>
<glyph name="caron" format="2">
  <advance width="384"/>
  <unicode hex="02C7"/>
  <anchor x="192" y="700" name="_top"/>
  <outline>
    <contour>
      <point x="210" y="886" type="curve" smooth="yes"/>
      <point x="224" y="915" type="line" smooth="yes"/>
      <point x="235.162" y="938.122"/>
      <point x="232" y="943"/>
      <point x="265" y="943" type="curve" smooth="yes"/>
      <point x="332" y="943" type="line" smooth="yes"/>
      <point x="371" y="943"/>
      <point x="364.034" y="932.783"/>
      <point x="351" y="911" type="curve" smooth="yes"/>
      <point x="278" y="789" type="line" smooth="yes"/>
      <point x="264.288" y="768.845"/>
      <point x="263" y="763"/>
      <point x="230" y="763" type="curve" smooth="yes"/>
      <point x="159" y="763" type="line" smooth="yes"/>
      <point x="123" y="763"/>
      <point x="126.963" y="770.017"/>
      <point x="112" y="792" type="curve" smooth="yes"/>
      <point x="41" y="911" type="line" smooth="yes"/>
      <point x="27.5518" y="933.539"/>
      <point x="25" y="943"/>
      <point x="65" y="943" type="curve" smooth="yes"/>
      <point x="119" y="943" type="line" smooth="yes"/>
      <point x="158.54" y="943"/>
      <point x="155.69" y="940.521"/>
      <point x="169" y="912" type="curve" smooth="yes"/>
      <point x="183" y="882" type="line" smooth="yes"/>
      <point x="196.643" y="852.767"/>
      <point x="196.189" y="857.392"/>
    </contour>
  </outline>
</glyph>
<glyph name="breve" format="2">
  <advance width="319"/>
  <unicode hex="02D8"/>
  <anchor x="160" y="700" name="_top"/>
  <outline>
    <contour>
      <point x="309.769" y="909.615" type="curve" smooth="yes"/>
      <point x="307" y="835"/>
      <point x="256.075" y="790"/>
      <point x="160" y="790" type="curve" smooth="yes"/>
      <point x="71.664" y="790"/>
      <point x="21" y="823"/>
      <point x="12.041" y="892.027" type="curve" smooth="yes"/>
      <point x="9.50669" y="911.554"/>
      <point x="8" y="919"/>
      <point x="27" y="919" type="curve" smooth="yes"/>
      <point x="130" y="919" type="line" smooth="yes"/>
      <point x="135.849" y="919"/>
      <point x="134.69" y="918.063"/>
      <point x="135.401" y="913" type="curve" smooth="yes"/>
      <point x="137.018" y="901.498"/>
      <point x="143.76" y="882"/>
      <point x="160" y="882" type="curve" smooth="yes"/>
      <point x="177.588" y="882"/>
      <point x="183.576" y="902.054"/>
      <point x="184.765" y="914" type="curve" smooth="yes"/>
      <point x="185.18" y="918.173"/>
      <point x="184.293" y="919"/>
      <point x="189" y="919" type="curve" smooth="yes"/>
      <point x="302" y="919" type="line" smooth="yes"/>
      <point x="310.814" y="919"/>
      <point x="310.097" y="918.46"/>
    </contour>
  </outline>
</glyph>
<glyph name="ring" format="2">
  <advance width="319"/>
  <unicode hex="02DA"/>
  <anchor x="160" y="700" name="_top"/>
  <outline>
    <contour>
      <point x="40" y="850" type="curve" smooth="yes"/>
      <point x="40" y="916"/>
      <point x="94" y="970"/>
      <point x="160" y="970" type="curve" smooth="yes"/>
      <point x="226" y="970"/>
      <point x="280" y="916"/>
      <point x="280" y="850" type="curve" smooth="yes"/>
      <point x="280" y="784"/>
      <point x="226" y="730"/>
      <point x="160" y="730" type="curve" smooth="yes"/>
      <point x="94" y="730"/>
      <point x="40" y="784"/>
    </contour>
    <contour>
      <point x="110" y="850" type="curve" smooth="yes"/>
      <point x="110" y="816"/>
      <point x="132" y="797"/>
      <point x="160" y="797" type="curve" smooth="yes"/>
      <point x="188" y="797"/>
      <point x="211" y="816"/>
      <point x="211" y="850" type="curve" smooth="yes"/>
      <point x="211" y="884"/>
      <point x="188" y="904"/>
      <point x="160" y="904" type="curve" smooth="yes"/>
      <point x="132" y="904"/>
      <point x="110" y="884"/>
    </contour>
  </outline>
</glyph>
<glyph name="ogonek" format="2">
  <advance width="549"/>
  <unicode hex="02DB"/>
  <anchor x="282" y="24" name="_cedilla"/>
  <outline>
    <contour>
      <point x="391" y="-128.524" type="curve" smooth="yes"/>
      <point x="375.318" y="-156.228"/>
      <point x="336.135" y="-186"/>
      <point x="263" y="-186" type="curve" smooth="yes"/>
      <point x="192" y="-186"/>
      <point x="155" y="-151"/>
      <point x="155" y="-91" type="curve" smooth="yes"/>
      <point x="155" y="-14.4359"/>
      <point x="235.603" y="19.9946"/>
      <point x="296" y="40.343" type="curve" smooth="yes"/>
      <point x="303.504" y="42.8712"/>
      <point x="303.95" y="43.0798"/>
      <point x="307.789" y="37" type="curve" smooth="yes"/>
      <point x="313.474" y="28" type="line" smooth="yes"/>
      <point x="316.878" y="22.6105"/>
      <point x="314.541" y="19.1251"/>
      <point x="311.531" y="13" type="curve" smooth="yes"/>
      <point x="305.904" y="1.55188"/>
      <point x="298" y="-12.6912"/>
      <point x="298" y="-45" type="curve" smooth="yes"/>
      <point x="298" y="-112"/>
      <point x="314" y="-114"/>
      <point x="338" y="-114" type="curve" smooth="yes"/>
      <point x="350.467" y="-114"/>
      <point x="358.137" y="-111.122"/>
      <point x="364" y="-106.029" type="curve" smooth="yes"/>
      <point x="368.511" y="-102.112"/>
      <point x="371.563" y="-100.202"/>
      <point x="383" y="-110.667" type="curve" smooth="yes"/>
      <point x="393.304" y="-120.094"/>
      <point x="394.486" y="-122.364"/>
    </contour>
  </outline>
</glyph>
<glyph name="tilde" format="2">
  <advance width="447"/>
  <unicode hex="02DC"/>
  <anchor x="234" y="750" name="_top"/>
  <outline>
    <contour>
      <point x="149" y="835.709" type="curve" smooth="yes"/>
      <point x="52" y="839.328" type="line" smooth="yes"/>
      <point x="35.0566" y="839.961"/>
      <point x="33.1445" y="838.371"/>
      <point x="31.7695" y="856" type="curve" smooth="yes"/>
      <point x="31.2568" y="862.576"/>
      <point x="31" y="869.442"/>
      <point x="31" y="874" type="curve" smooth="yes"/>
      <point x="31" y="895"/>
      <point x="36.8477" y="930.115"/>
      <point x="55" y="954" type="curve" smooth="yes"/>
      <point x="74" y="979"/>
      <point x="105" y="996"/>
      <point x="147" y="996" type="curve" smooth="yes"/>
      <point x="186" y="996"/>
      <point x="196.081" y="987.513"/>
      <point x="223" y="965" type="curve" smooth="yes"/>
      <point x="241.271" y="949.72"/>
      <point x="258" y="936"/>
      <point x="266" y="936" type="curve" smooth="yes"/>
      <point x="276" y="936"/>
      <point x="283" y="941"/>
      <point x="283" y="955" type="curve" smooth="yes"/>
      <point x="283" y="970.049"/>
      <point x="267.286" y="982.32"/>
      <point x="292" y="981.412" type="curve" smooth="yes"/>
      <point x="396" y="977.588" type="line" smooth="yes"/>
      <point x="412.433" y="976.984"/>
      <point x="412.679" y="977.411"/>
      <point x="414.508" y="961" type="curve" smooth="yes"/>
      <point x="415.391" y="953.087"/>
      <point x="416" y="944.52"/>
      <point x="416" y="939" type="curve" smooth="yes"/>
      <point x="416" y="919"/>
      <point x="410.28" y="881.516"/>
      <point x="394" y="858" type="curve" smooth="yes"/>
      <point x="376" y="832"/>
      <point x="346" y="821"/>
      <point x="300" y="821" type="curve" smooth="yes"/>
      <point x="266" y="821"/>
      <point x="248.931" y="832.901"/>
      <point x="218" y="858" type="curve" smooth="yes"/>
      <point x="199.6" y="872.93"/>
      <point x="187" y="882"/>
      <point x="177" y="882" type="curve" smooth="yes"/>
      <point x="165" y="882"/>
      <point x="156" y="875"/>
      <point x="156" y="860" type="curve" smooth="yes"/>
      <point x="156" y="843.801"/>
      <point x="177.314" y="834.652"/>
    </contour>
  </outline>
</glyph>
<glyph name="uni0304" format="2">
  <unicode hex="0304"/>
  <anchor x="-209" y="700" name="_top"/>
  <outline>
    <contour>
      <point x="-320" y="804" type="curve" smooth="yes"/>
      <point x="-320" y="879" type="line" smooth="yes"/>
      <point x="-320" y="902"/>
      <point x="-318" y="905"/>
      <point x="-296" y="905" type="curve" smooth="yes"/>
      <point x="-118" y="905" type="line" smooth="yes"/>
      <point x="-94" y="905"/>
      <point x="-90" y="904"/>
      <point x="-90" y="880" type="curve" smooth="yes"/>
      <point x="-90" y="796" type="line" smooth="yes"/>
      <point x="-90" y="776"/>
      <point x="-94" y="775"/>
      <point x="-115" y="775" type="curve" smooth="yes"/>
      <point x="-289" y="775" type="line" smooth="yes"/>
      <point x="-315" y="775"/>
      <point x="-320" y="778"/>
    </contour>
  </outline>
</glyph>
<glyph name="uni0307" format="2">
  <unicode hex="0307"/>
  <outline>
    <contour>
      <point x="-260" y="501" type="curve" smooth="yes"/>
      <point x="-260" y="622" type="line" smooth="yes"/>
      <point x="-260" y="642"/>
      <point x="-258" y="645"/>
      <point x="-241" y="645" type="curve" smooth="yes"/>
      <point x="-120" y="645" type="line" smooth="yes"/>
      <point x="-103" y="645"/>
      <point x="-100" y="640"/>
      <point x="-100" y="622" type="curve" smooth="yes"/>
      <point x="-100" y="500" type="line" smooth="yes"/>
      <point x="-100" y="484"/>
      <point x="-101" y="482"/>
      <point x="-117" y="482" type="curve" smooth="yes"/>
      <point x="-240" y="482" type="line" smooth="yes"/>
      <point x="-257" y="482"/>
      <point x="-260" y="485"/>
    </contour>
  </outline>
</glyph>
